<?xml version="1.0" standalone="no"?>
<!DOCTYPE svg PUBLIC "-//W3C//DTD SVG 1.1//EN" "http://www.w3.org/Graphics/SVG/1.1/DTD/svg11.dtd" >
<svg xmlns="http://www.w3.org/2000/svg">
<metadata></metadata>
<defs>
<font id="libre_franklinmedium" horiz-adv-x="1226" >
<font-face units-per-em="2048" ascent="1638" descent="-410" />
<missing-glyph horiz-adv-x="434" />
<glyph unicode="&#xfb01;" horiz-adv-x="1296" d="M47 952v107q0 27 27 26h176q12 0 16 5.5t4 19.5v141q0 129 69 199t202 70h182q31 0 31 -31l2 -96q0 -10 -7.5 -17.5t-19.5 -7.5h-131q-57 0 -86 -37t-29 -102v-125q0 -18 21 -19h213q28 1 28 -26v-107q0 -23 -26 -22h-213q-18 0 -19 -19v-878q0 -33 -26 -33h-166 q-25 0 -25 29v884q0 16 -14 17h-184q-25 0 -25 22zM928 1298v187q0 35 31 35h170q12 0 20.5 -9.5t8.5 -23.5v-184q0 -23 -9.5 -33t-31.5 -10h-152q-20 0 -28.5 9t-8.5 29zM934 33v1022q0 16 6.5 23t22.5 7h164q25 0 24 -28v-1018q0 -23 -9 -31t-32 -8h-139q-20 0 -28.5 7 t-8.5 26z" />
<glyph unicode="&#xfb02;" horiz-adv-x="1298" d="M47 952v107q0 27 27 26h176q12 0 16 5.5t4 19.5v141q0 129 69 199t202 70h182q31 0 31 -31l2 -96q0 -10 -7.5 -17.5t-19.5 -7.5h-131q-57 0 -86 -37t-29 -102v-125q0 -18 21 -19h213q28 1 28 -26v-107q0 -23 -26 -22h-213q-18 0 -19 -19v-878q0 -33 -26 -33h-166 q-25 0 -25 29v884q0 16 -14 17h-184q-25 0 -25 22zM934 33l4 1456q0 31 27 31h162q27 0 26 -31v-1450q0 -23 -9 -31t-34 -8h-139q-20 0 -28.5 7t-8.5 26z" />
<glyph horiz-adv-x="0" />
<glyph horiz-adv-x="0" />
<glyph unicode="&#xd;" horiz-adv-x="436" />
<glyph unicode=" "  horiz-adv-x="434" />
<glyph unicode="&#x09;" horiz-adv-x="434" />
<glyph unicode="&#xa0;" horiz-adv-x="434" />
<glyph unicode="!" horiz-adv-x="514" d="M129 33v198q0 31 25 31h202q25 0 25 -26v-199q0 -20 -10.5 -28.5t-32.5 -8.5h-174q-18 0 -26.5 8t-8.5 25zM129 1491v4q0 25 23 25h208q10 0 17.5 -7.5t5.5 -17.5l-53 -1059q-2 -18 -10.5 -25.5t-30.5 -7.5h-74q-18 0 -24.5 6.5t-8.5 22.5z" />
<glyph unicode="&#x22;" horiz-adv-x="876" d="M129 1493v4q0 23 23 23h198q27 0 23 -25l-58 -451q-4 -20 -11 -27t-30 -7h-55q-18 0 -24.5 6t-8.5 22zM510 1493v4q0 23 23 23h198q27 0 23 -25l-58 -451q-4 -20 -11 -27t-30 -7h-55q-18 0 -24.5 6t-8.5 22z" />
<glyph unicode="#" horiz-adv-x="1234" d="M59 518v70q0 27 21 26h242l47 304h-211q-18 0 -24.5 7t-6.5 23v70q0 27 20 26h240l68 449q8 29 24 27l80 -11q29 -4 23 -30l-66 -435h305l68 449q4 29 24 27l80 -11q25 -4 23 -30l-66 -435h203q25 1 25 -22v-70q0 -35 -41 -34h-207l-45 -304h200q25 0 25 -22v-70 q0 -35 -41 -35h-203l-69 -452q-2 -23 -9.5 -30t-27.5 -5l-60 8q-20 4 -27 9.5t-5 19.5l67 450h-303l-67 -452q-4 -23 -11.5 -30t-25.5 -5l-62 8q-18 4 -25.5 9.5t-4.5 19.5l67 450h-213q-18 0 -24.5 7.5t-6.5 23.5zM453 614h303l45 304h-303z" />
<glyph unicode="$" horiz-adv-x="1271" d="M66 233q0 12 8 19l84 86q16 12 26 12q12 0 23 -10q72 -86 153.5 -131t194.5 -53h8q10 0 13.5 4t3.5 14v455q0 16 -8.5 26.5t-28.5 20.5q-236 74 -333 175t-97 257q0 164 117.5 277.5t320.5 140.5q10 0 19.5 7t9.5 17v95q0 10 5 16t13 6h102q27 0 27 -31v-94q0 -12 23 -18 q213 -31 368 -170q14 -10 15 -23q0 -8 -11 -18l-82 -96q-10 -10 -18 -11q-10 0 -27 17q-41 47 -105.5 80.5t-139.5 48.5l-9 2q-14 0 -14 -19v-461q0 -12 4 -17t21 -11l88 -27q170 -59 263 -166.5t93 -257.5q0 -112 -55.5 -202.5t-154.5 -144.5t-230 -60q-16 -2 -21.5 -7.5 t-5.5 -17.5v-102q0 -35 -35 -35h-86q-31 0 -30 29v108q0 14 -4.5 19.5t-16.5 5.5q-162 4 -273.5 56t-199.5 159q-18 14 -18 30zM309 1126q0 -74 51.5 -128t178.5 -103q6 -2 16 -2q25 0 25 33v413q0 25 -25 19q-115 -14 -180.5 -76.5t-65.5 -155.5zM729 168q1 -14 21 -12 q113 6 180 66.5t67 150.5q0 86 -56 144t-183 104q-6 2 -15 2q-8 0 -11 -4.5t-3 -16.5v-434z" />
<glyph unicode="%" horiz-adv-x="1894" d="M104 1108q0 127 47.5 226.5t130.5 153.5t187 54q102 0 184 -54t129 -153.5t47 -226.5t-46 -225.5t-128 -152.5t-186 -54t-187 54t-130.5 152.5t-47.5 225.5zM268 1106q0 -143 52.5 -227t146.5 -84t146.5 84t52.5 227q0 145 -52.5 231t-146.5 86t-146.5 -86t-52.5 -231z M389 14q0 12 8 23l985 1483q6 10 14.5 13t22.5 3h80q14 0 18.5 -7t-4.5 -20l-993 -1497q-6 -12 -15 -16t-26 -4h-63q-27 0 -27 22zM1063 412q0 127 48 226t131 153.5t188 54.5q102 0 184 -54.5t129 -153.5t47 -226t-46 -225.5t-128 -152.5t-186 -54t-188.5 54t-131.5 152.5 t-47 225.5zM1229 410q0 -139 53 -225.5t145 -86.5q93 0 146 85t53 227q0 143 -53 230t-146 87q-92 0 -145 -88t-53 -229z" />
<glyph unicode="&#x26;" horiz-adv-x="1632" d="M82 389q0 123 75.5 225.5t245.5 202.5q20 12 21 23q0 10 -16 28q-133 139 -134 297q0 106 57.5 192.5t158 135.5t225.5 49q180 0 294.5 -86t114.5 -227q0 -113 -88 -218.5t-258 -183.5q-16 -6 -16 -14q0 -4 10 -18l289 -332q10 -12 16 -12t23 16q66 66 135.5 169 t93.5 171q4 12 15.5 15t23.5 -1l107 -35q12 -4 18 -16t2 -22q-31 -84 -105.5 -195t-168.5 -215q-10 -14 -11 -19q0 -4 6.5 -10t8.5 -8q55 -47 143 -79t174 -34q33 0 33 -30v-117q0 -23 -9.5 -32t-29.5 -9q-123 0 -255 45t-222 115q-10 8 -21 8q-12 0 -22 -10 q-203 -168 -465 -168q-219 0 -344 107.5t-125 291.5zM317 408q0 -106 79 -178t198 -72q76 0 154.5 31.5t136.5 82.5q16 16 16 27q0 8 -10 23l-316 362q-14 18 -30 18q-12 0 -27 -8q-94 -47 -147.5 -123.5t-53.5 -162.5zM496 1180q0 -86 75 -168l60 -70q6 -6 18 -6q6 0 19 4 q135 63 196.5 132t61.5 151q0 84 -57.5 130t-143.5 46q-104 0 -166.5 -64.5t-62.5 -154.5z" />
<glyph unicode="'" horiz-adv-x="495" d="M129 1493v4q0 23 23 23h198q27 0 23 -25l-58 -451q-4 -20 -11 -27t-30 -7h-55q-18 0 -24.5 6t-8.5 22z" />
<glyph unicode="(" horiz-adv-x="602" d="M125 584q0 246 78 481t211 436q16 18 39 19h96q12 0 15 -7.5t-1 -13.5q-109 -213 -171 -448.5t-62 -468.5q0 -225 55 -442.5t166 -454.5q2 -2 2 -9q0 -14 -18 -14h-105q-14 0 -29 16q-137 238 -206.5 449t-69.5 457z" />
<glyph unicode=")" horiz-adv-x="602" d="M37 1507q0 12 16 13h97q23 0 38 -19q133 -201 211 -436.5t78 -480.5q0 -246 -69.5 -457t-206.5 -449q-14 -16 -29 -16h-104q-12 0 -16.5 7t-0.5 16q111 238 166 454.5t55 442.5q0 233 -62.5 468.5t-170.5 448.5q-2 2 -2 8z" />
<glyph unicode="*" horiz-adv-x="833" d="M58.5 1200q-3.5 8 0.5 19l33 90q6 18 25 10l231 -94q18 -6 19 10l-19 264v4q0 6 6 11.5t15 5.5h112q18 0 19 -21l-19 -264q0 -18 15 -12l237 102q8 4 12 4q10 0 17 -16l26 -88q2 -4 3 -11q0 -12 -15 -18l-239 -76q-8 -2 -9.5 -7t4.5 -11l168 -209q6 -6 7 -14 q0 -10 -15 -23l-76 -53q-8 -8 -20 -8t-18 10l-146 239q-6 8 -14 0l-154 -247q-2 -8 -14 -9q-10 0 -19 7l-84 57q-18 14 -4 31l179 219q4 6 2 11t-11 7l-243 70q-8 2 -11.5 10z" />
<glyph unicode="+" horiz-adv-x="1157" d="M119 711v106q0 29 20 29h359v348q0 18 6 25.5t22 7.5h109q27 0 27 -23v-358h356q24 0 24 -23v-108q0 -18 -9 -25.5t-32 -7.5h-337v-356q0 -23 -25 -23h-107q-35 0 -34 39v338h-348q-18 0 -24.5 7t-6.5 24z" />
<glyph unicode="," horiz-adv-x="460" d="M89 -291q-5 10 1 23l94 229q6 12 6 21q0 18 -22 18h-31q-33 0 -33 29v207q0 27 25 26h205q23 0 22 -24v-191q0 -12 -4 -29l-166 -292q-20 -27 -51 -27h-29q-12 0 -17 10z" />
<glyph unicode="-" horiz-adv-x="780" d="M119 487v109q0 29 22 29h496q25 0 25 -23v-110q0 -33 -41 -33h-471q-16 0 -23.5 6t-7.5 22z" />
<glyph unicode="." horiz-adv-x="454" d="M98 33v203q0 14 7.5 21t17.5 7h205q25 0 24 -26v-201q0 -20 -10 -28.5t-35 -8.5h-174q-35 0 -35 33z" />
<glyph unicode="/" horiz-adv-x="714" d="M20 -49l515 1546q6 23 30 23h105q25 0 24 -19q0 -12 -4 -20l-502 -1522q-10 -31 -43 -31h-104q-27 0 -21 23z" />
<glyph unicode="0" horiz-adv-x="1421" d="M121 754q0 244 76.5 422t211 271t304.5 93t303 -93t208.5 -270.5t75.5 -420.5q0 -242 -75.5 -417t-208.5 -266t-305 -91t-305.5 91t-209 265t-75.5 416zM373 756q0 -305 88 -448.5t252 -143.5t250 142.5t86 449.5q0 604 -338 604q-162 0 -250 -147.5t-88 -456.5z" />
<glyph unicode="1" horiz-adv-x="980" d="M94 1208v99q0 16 4 22t19 14l317 158q23 10 36 14.5t34 4.5h104q25 0 25 -29v-1284q0 -18 14 -19h225q29 1 29 -22v-139q0 -12 -8 -19.5t-23 -7.5h-745q-29 0 -29 25v141q0 23 27 22h244q18 0 18 13v1042q0 14 -5 18.5t-18 0.5l-235 -82q-4 -2 -10 -2q-23 0 -23 30z" />
<glyph unicode="2" horiz-adv-x="1255" d="M92 35v108q0 20 12.5 40t55.5 55l420 405q123 113 189.5 188.5t94 140t27.5 136.5q0 115 -82 180.5t-197 65.5q-92 0 -179 -50.5t-154 -156.5q-6 -12 -23 -12q-10 0 -23 6l-118 65q-18 16 -19 29q0 14 8 25q94 141 229.5 210.5t297.5 69.5q141 0 254.5 -50t180.5 -149.5 t67 -238.5q0 -129 -71 -240.5t-247 -271.5l-403 -359q-10 -10 -11 -14q0 -10 23 -10h694q31 0 31 -27v-151q0 -29 -31 -29h-987q-23 0 -31 7t-8 28z" />
<glyph unicode="3" horiz-adv-x="1329" d="M78 227q0 12 16 25l111 82q14 10 20 10q4 0 17 -8q92 -94 181 -134t208 -40q162 0 253 70.5t91 187.5q0 127 -103.5 201.5t-250.5 76.5l-179 2q-29 0 -28 23v133q0 18 28 23l144 4q147 2 245.5 73.5t98.5 182.5q0 94 -82 158.5t-207 64.5q-100 0 -186 -39t-168 -117 q-12 -12 -21 -12q-8 0 -20 12l-96 92q-7 11 -7 17q0 8 7 20q90 100 217 152.5t274 52.5q162 0 281.5 -50t184 -138t64.5 -201q0 -109 -66.5 -197t-184.5 -129q-25 -8 -25 -16t23 -14q133 -39 217 -137.5t84 -231.5q0 -205 -155 -325.5t-450 -120.5q-162 0 -298 58t-230 171 q-8 12 -8 18z" />
<glyph unicode="4" horiz-adv-x="1353" d="M86 422v125q0 29 39 78l651 868q12 16 24.5 21.5t35.5 5.5h176q27 0 26 -29v-901q0 -20 19 -21h184q31 0 31 -24v-123q0 -31 -31 -31h-182q-20 0 -21 -20v-336q0 -18 -9 -26.5t-30 -8.5h-178q-33 0 -33 33v344q0 14 -20 14h-647q-35 0 -35 31zM293 582q0 -12 20 -13h455 q8 0 13 4.5t5 10.5v628q0 27 -8 27q-4 0 -20 -18l-459 -625q-6 -8 -6 -14z" />
<glyph unicode="5" horiz-adv-x="1353" d="M92 229q0 14 17 25l112 86q10 6 17 6q12 0 24 -12q94 -90 171 -132t194 -42q178 0 278.5 91t100.5 238q0 141 -90.5 219t-233.5 78q-88 0 -158.5 -27.5t-165.5 -80.5q-16 -8 -22 -8q-4 0 -21 10l-127 72q-10 4 -15 9t-5 13l4 29l55 682q2 23 11.5 29t44.5 6h843 q25 0 31 -6.5t4 -28.5l-8 -139q-2 -18 -8 -23.5t-25 -5.5h-682q-27 0 -28 -25l-31 -387v-8q0 -10 7 -15t17 -1q104 45 169 65.5t157 20.5q145 0 263 -52.5t187.5 -158t69.5 -258.5q0 -160 -75.5 -278t-210 -179t-308.5 -61q-170 0 -314 58t-237 165q-12 16 -12 26z" />
<glyph unicode="6" horiz-adv-x="1370" d="M121 733q0 248 77.5 430.5t221 278.5t338.5 96q153 0 264 -65.5t162 -157.5l4 -17q0 -14 -14 -20l-150 -55q-4 -2 -10 -2q-14 0 -25 18q-45 59 -98 89t-131 30q-195 0 -294 -137.5t-99 -360.5q0 -27 3 -38t13 -11q2 0 23 8q102 47 179 70.5t179 23.5q154 0 268.5 -57 t176 -158.5t61.5 -230.5q0 -141 -73 -252t-199 -172t-277 -61q-184 0 -319.5 90t-208 259t-72.5 402zM371 573q0 -100 40 -196t117.5 -159.5t188.5 -63.5q86 0 156.5 39.5t111.5 110.5t41 155q0 123 -84 202.5t-219 79.5q-76 0 -168 -24.5t-147 -61.5q-23 -16 -30 -31.5 t-7 -50.5z" />
<glyph unicode="7" horiz-adv-x="1241" d="M80 1348l14 149q2 23 39 23h985q18 0 28.5 -9.5t10.5 -21.5l-4 -86q0 -33 -37 -86q-125 -188 -238.5 -432t-189.5 -471.5t-94 -368.5q-2 -45 -35 -45h-213q-39 0 -29 41q70 264 207.5 580.5t360.5 666.5q6 10 6 19q0 10 -21 10h-761q-31 0 -29 31z" />
<glyph unicode="8" horiz-adv-x="1378" d="M111 377q0 109 55 191.5t180 160.5q25 16 25 23q0 8 -23 20q-92 55 -144 132t-52 188q0 125 66.5 227t188 161.5t277.5 59.5q152 0 270.5 -53t184 -149.5t65.5 -217.5q0 -92 -48 -165.5t-155 -145.5q-16 -10 -16 -18t14 -15q141 -61 207 -151t66 -213q0 -133 -74 -230.5 t-209 -149.5t-311 -52q-260 0 -413.5 105t-153.5 292zM328 408q0 -121 92 -188.5t270 -67.5q156 0 247 66.5t91 178.5q0 86 -47 140.5t-154 80.5l-243 64q-6 2 -21 2q-45 0 -101 -38t-95 -101.5t-39 -136.5zM387 1116q0 -82 47 -136t141 -77l195 -47q39 -10 92 28t91 104.5 t38 131.5q0 109 -82 178.5t-221 69.5q-129 0 -215 -71.5t-86 -180.5z" />
<glyph unicode="9" horiz-adv-x="1363" d="M100 1053q0 141 73 251.5t199 172t279 61.5q182 0 315.5 -90t205 -259t71.5 -403q0 -248 -76.5 -430t-219 -278t-335.5 -96q-157 0 -270 65.5t-168 157.5q-4 12 -4 18q0 12 14 19l150 55q4 2 10 2q12 0 25 -16q45 -59 101 -90t142 -31q188 0 286.5 137t98.5 360 q0 49 -16 50q-2 0 -23 -9q-100 -47 -175.5 -70.5t-176.5 -23.5q-154 0 -268.5 57.5t-176 159t-61.5 230.5zM346 1063q0 -123 83 -204t214 -81q80 0 170 26.5t145 67.5q23 16 30 32t7 50q0 98 -38.5 193.5t-116.5 157t-187 61.5q-86 0 -156.5 -40t-110.5 -109.5t-40 -153.5z " />
<glyph unicode=":" horiz-adv-x="454" d="M98 41v197q0 31 25 30h205q25 0 24 -26v-199q0 -20 -10 -28.5t-35 -8.5h-174q-35 0 -35 35zM98 817v199q0 14 7.5 21t17.5 7h205q25 0 24 -26v-197q0 -20 -10 -28.5t-35 -8.5h-174q-35 0 -35 33z" />
<glyph unicode=";" horiz-adv-x="487" d="M89 -293q-5 10 1 23l94 231q6 12 6 21q0 18 -22 18h-31q-33 0 -33 29v207q0 27 25 26h205q23 0 22 -24v-191q0 -12 -4 -29l-166 -294q-18 -27 -51 -27h-29q-12 0 -17 10zM98 811v203q0 14 7.5 21t17.5 7h205q25 0 24 -26v-201q0 -20 -10 -28.5t-35 -8.5h-174 q-35 0 -35 33z" />
<glyph unicode="&#x3c;" horiz-adv-x="1134" d="M102 657v136q0 16 8.5 26t24.5 17l817 321q16 4 21 4q14 0 23.5 -9t9.5 -26v-112q0 -18 -13.5 -30.5t-42.5 -25.5l-596 -233l596 -231q31 -14 42.5 -24.5t11.5 -31.5v-106q0 -39 -31 -39q-12 0 -21 4l-817 319q-33 10 -33 41z" />
<glyph unicode="=" horiz-adv-x="1157" d="M119 442v109q0 29 20 29h879q25 0 24 -25v-106q0 -18 -9 -25.5t-32 -7.5l-851 -2q-18 0 -24.5 7t-6.5 21zM119 911v109q0 27 20 27l879 2q10 0 17 -7.5t7 -17.5v-106q0 -35 -41 -35h-851q-18 0 -24.5 6t-6.5 22z" />
<glyph unicode="&#x3e;" horiz-adv-x="1134" d="M131 332v106q0 21 12.5 32t42.5 24l596 231l-598 233q-29 10 -41 23.5t-12 32.5v112q0 16 8 25.5t23 9.5q8 0 20 -4l817 -321q35 -14 35 -43v-136q0 -31 -35 -41l-817 -319q-6 -4 -20 -4q-31 0 -31 39z" />
<glyph unicode="?" horiz-adv-x="1079" d="M45 1253q66 135 197 211t301 76q139 0 246.5 -47t166 -130t58.5 -187q0 -113 -52.5 -193t-156.5 -180q-102 -98 -154.5 -177t-52.5 -188q0 -12 -8 -21t-21 -9h-120q-33 0 -33 34q0 96 30.5 173t73.5 133.5t113 130.5q82 88 122 150.5t40 137.5q0 96 -71 154.5t-183 58.5 q-98 0 -186.5 -53t-121.5 -133q-4 -10 -10 -13t-20 -1l-146 41q-20 7 -12 32zM381 33v198q0 31 25 31h202q25 0 25 -26v-199q0 -20 -10.5 -28.5t-32.5 -8.5h-176q-18 0 -25.5 8t-7.5 25z" />
<glyph unicode="@" horiz-adv-x="1708" d="M92 535q0 221 103.5 409.5t292 299t432.5 110.5q190 0 356 -72t269.5 -220.5t103.5 -367.5q0 -154 -51.5 -273.5t-142.5 -187t-204 -67.5q-156 0 -188 104q-6 14 -10 15q-4 0 -15 -13q-106 -135 -282 -135q-80 0 -147.5 44t-107.5 125t-40 188q0 129 50 238.5t142 175 t209 65.5q152 0 232 -123q6 -4 10 -2t6 10l12 49q2 12 19 13h108q16 0 15 -15l-76 -448q-6 -33 -6 -58q0 -94 82 -94q63 0 116.5 45t85 131t31.5 201q0 184 -82 305t-213 175.5t-282 54.5q-213 0 -366 -91.5t-230.5 -247t-77.5 -343.5q0 -186 78.5 -330t229.5 -224.5 t361 -80.5q121 0 194 27.5t165 86.5q10 8 22 9q12 0 19 -11l47 -65q6 -10 6 -15q0 -10 -20 -26q-86 -64 -205 -100.5t-256 -36.5q-244 0 -424 102t-275.5 276.5t-95.5 387.5zM633 512q0 -104 42 -165.5t118 -61.5q72 0 130 45t93 119.5t35 156.5q0 102 -51.5 160.5 t-125.5 58.5q-104 0 -172.5 -90t-68.5 -223z" />
<glyph unicode="A" horiz-adv-x="1517" d="M84 25l4 18l522 1444q6 18 16.5 25.5t28.5 7.5h207q39 0 51 -35l519 -1444q2 -4 2 -14q0 -27 -23 -27h-194q-27 0 -35 25l-131 364q-4 10 -8.5 14.5t-16.5 4.5h-567q-18 0 -25 -17l-133 -371q-6 -20 -35 -20h-157q-25 0 -25 25zM500 614q0 -14 18 -14h445q14 0 17 7 q1 3 1 7q0 6 -2 15l-221 614q-6 14 -15 14q-8 0 -14 -16l-227 -614z" />
<glyph unicode="B" horiz-adv-x="1447" d="M180 29v1456q0 35 33 35h498q283 0 434 -101.5t151 -294.5q0 -121 -63.5 -203.5t-204.5 -134.5q-8 -2 -8 -9t8 -9q152 -41 228.5 -129t76.5 -231q0 -205 -153.5 -306.5t-450.5 -101.5h-518q-14 0 -22.5 8t-8.5 21zM428 205q0 -31 23 -31h268q356 0 356 248 q0 129 -92 192.5t-244 63.5h-278q-18 0 -25.5 -6t-7.5 -21v-446zM428 887q0 -29 23 -29h288q129 0 219.5 57.5t90.5 180.5t-89.5 186.5t-244.5 63.5h-256q-31 0 -31 -27v-432z" />
<glyph unicode="C" horiz-adv-x="1458" d="M119 764q0 240 78.5 415t227 268t351.5 93q142 0 266.5 -58.5t206.5 -156.5t101 -215q2 -8 2 -20q0 -10 -4.5 -13.5t-16.5 -5.5l-190 -12h-6q-12 0 -19 22q-29 127 -116 203t-216 76q-199 0 -302 -148.5t-103 -449.5q0 -299 103.5 -446.5t310.5 -147.5q139 0 232 67.5 t151 217.5q2 14 30 10l146 -35q15 -3 15 -25q0 -5 -1 -10q-29 -98 -103.5 -192.5t-197.5 -157.5t-283 -63q-205 0 -354 96t-229 273t-80 415z" />
<glyph unicode="D" horiz-adv-x="1497" d="M180 37v1452q0 16 8.5 23.5t26.5 7.5q246 0 365 -2q412 -8 605 -196.5t193 -553.5q0 -377 -204.5 -572.5t-612.5 -195.5h-344q-37 0 -37 37zM428 205q0 -14 5 -19.5t20 -5.5h67q211 0 342 57.5t194.5 186.5t63.5 342q0 209 -58 331t-177 176t-314 62l-127 2h-1 q-15 0 -15 -28v-1104z" />
<glyph unicode="E" horiz-adv-x="1302" d="M180 33v1456q0 16 6.5 23.5t22.5 7.5h954q25 0 25 -27l-2 -129q0 -31 -31 -31h-696q-31 0 -31 -26v-422q0 -27 27 -27h499q27 0 27 -24v-138q0 -23 -27 -22h-501q-25 0 -25 -23v-442q0 -12 5 -17.5t16 -5.5h735q16 0 22 -5t6 -19v-135q0 -27 -28 -27h-969q-20 0 -27.5 7 t-7.5 26z" />
<glyph unicode="F" horiz-adv-x="1251" d="M180 33v1456q0 31 29 31h936q25 0 24 -27l-2 -129q0 -31 -30 -31h-678q-16 0 -23.5 -6t-7.5 -20v-447q0 -25 27 -24h514q25 0 24 -25v-135q0 -12 -5 -17.5t-19 -5.5h-516q-25 0 -25 -24v-596q0 -18 -8 -25.5t-29 -7.5h-176q-20 0 -27.5 7t-7.5 26z" />
<glyph unicode="G" horiz-adv-x="1521" d="M119 754q0 242 82 420t232.5 272t348.5 94q145 0 270.5 -58.5t205 -154.5t98.5 -205q2 -8 2 -18t-5 -14.5t-16 -6.5l-186 -28h-4q-10 0 -14.5 6t-6.5 18q-23 119 -117 199t-231 80q-195 0 -297 -148.5t-102 -443.5q0 -604 405 -604q113 0 193 48t124 123t52 156l2 103v8 q0 16 -20 16h-308q-14 0 -19 5.5t-5 19.5v109q0 23 22 22l521 -2q41 0 40 -33v-710q0 -27 -26 -27h-53q-16 0 -26.5 5t-16.5 22l-33 176q-6 18 -21 0q-147 -223 -440 -223q-199 0 -346.5 94t-226 269t-78.5 411z" />
<glyph unicode="H" horiz-adv-x="1515" d="M180 33v1456q0 31 29 31h192q27 0 27 -31v-576q0 -16 6 -22t21 -6h608q25 0 24 26v580q0 29 25 29h197q27 0 26 -31v-1456q0 -16 -7 -24.5t-28 -8.5h-172q-23 0 -32 7t-9 28v635q0 23 -22 22h-616q-8 0 -14.5 -6t-6.5 -14v-637q0 -35 -39 -35h-174q-18 0 -26.5 8t-8.5 25 z" />
<glyph unicode="I" horiz-adv-x="610" d="M180 33v1456q0 31 29 31h192q27 0 27 -31v-1450q0 -23 -9 -31t-34 -8h-168q-20 0 -28.5 7t-8.5 26z" />
<glyph unicode="J" horiz-adv-x="874" d="M80 68l18 133q4 31 29 24q10 -4 35.5 -14t56.5 -16.5t66 -6.5q92 0 131 49.5t39 174.5v1077q0 31 26 31h197q25 0 24 -31v-1137q0 -190 -87 -281t-271 -91q-98 0 -233 40q-32 5 -32 37q0 5 1 11z" />
<glyph unicode="K" horiz-adv-x="1462" d="M180 33v1458q0 29 27 29h196q25 0 25 -27v-709q0 -16 6 -16q4 0 15 10l616 719q12 12 21.5 17.5t29.5 5.5h174q12 0 20.5 -5.5t8.5 -13.5t-8 -16l-451 -510q-8 -12 -8 -17q0 -6 6 -18l520 -905q6 -9 6 -19q0 -16 -20 -16h-213q-31 0 -43 23l-414 720q-4 10 -12 11 q-6 0 -20 -15l-220 -252q-14 -16 -14 -38v-414q0 -35 -39 -35h-174q-18 0 -26.5 7t-8.5 26z" />
<glyph unicode="L" horiz-adv-x="1249" d="M180 33v1456q0 31 29 31h192q27 0 27 -31v-1280q0 -12 5 -17.5t16 -5.5h692q14 0 21 -5t7 -19v-135q0 -27 -28 -27h-926q-18 0 -26.5 8t-8.5 25z" />
<glyph unicode="M" horiz-adv-x="1882" d="M180 35v1454q0 16 6.5 23.5t22.5 7.5h268q18 0 26.5 -5.5t12.5 -19.5l410 -1075q6 -18 14 -19q6 0 16 21l404 1065q12 33 37 33h278q27 0 27 -31v-1452q0 -20 -8 -28.5t-29 -8.5h-176q-18 0 -26.5 7t-8.5 26v1122q0 10 -4 9t-8 -11l-422 -1124q-10 -29 -39 -29h-123 q-31 0 -43 27l-414 1114q-4 14 -9 13t-5 -13v-1112q0 -16 -6 -22.5t-25 -6.5h-143q-33 0 -33 35z" />
<glyph unicode="N" horiz-adv-x="1550" d="M180 29v1460q0 16 7.5 23.5t23.5 7.5h160q18 0 27.5 -5.5t17.5 -19.5l717 -1038q12 -14 18 -15q12 0 12 19v1030q0 29 29 29h156q23 0 22 -27v-1466q0 -12 -8 -19.5t-23 -7.5h-133q-16 0 -25.5 3t-19.5 17l-747 1074q-8 14 -15.5 12t-7.5 -14v-1063q0 -29 -33 -29h-145 q-33 0 -33 29z" />
<glyph unicode="O" horiz-adv-x="1570" d="M121 754q0 246 81 423t231.5 270t354.5 93q203 0 351.5 -93t229.5 -269.5t81 -421.5q0 -244 -80 -418t-229.5 -266t-354.5 -92q-206 0 -355.5 91t-229.5 265t-80 418zM379 754q0 -303 101.5 -447.5t307.5 -144.5q205 0 304.5 143.5t99.5 448.5q0 309 -100.5 457.5 t-303.5 148.5q-205 0 -307 -148.5t-102 -457.5z" />
<glyph unicode="P" horiz-adv-x="1429" d="M180 31v1458q0 16 6.5 23.5t22.5 7.5h547q258 0 415.5 -114t157.5 -339q0 -219 -148.5 -334t-396.5 -115h-335q-20 0 -21 -20v-563q0 -35 -37 -35h-178q-33 0 -33 31zM428 831q0 -30 22 -30h1h305q150 0 234.5 68.5t84.5 203.5q0 264 -334 264h-282q-16 0 -23.5 -6 t-7.5 -22v-478z" />
<glyph unicode="Q" horiz-adv-x="1572" d="M121 756q0 245 81 422.5t230.5 269.5t353.5 92q205 0 354.5 -92t230.5 -269.5t81 -422.5q0 -455 -272 -654q-10 -4 -11 -16q0 -25 36 -58.5t94.5 -62t117.5 -37.5q23 -2 23 -22v-119q0 -25 -13.5 -33t-48.5 -8q-227 0 -403 240q-10 14 -31 8q-72 -14 -158 -14 q-205 0 -354 90t-230 265t-81 421zM379 752q0 -303 100.5 -446.5t306.5 -143.5q207 0 307.5 143.5t100.5 448.5t-101.5 455.5t-306.5 150.5q-207 0 -307 -150.5t-100 -457.5z" />
<glyph unicode="R" horiz-adv-x="1441" d="M180 33v1456q0 16 6.5 23.5t22.5 7.5h592q254 0 393 -103.5t139 -298.5q0 -158 -85 -258t-210 -139q-12 -4 -8 -25l283 -653q4 -12 4 -16q0 -10 -8.5 -18.5t-20.5 -8.5h-198q-25 0 -37 29l-250 622q-8 25 -51 25h-299q-25 0 -25 -23v-616q0 -20 -9 -28.5t-30 -8.5h-174 q-18 0 -26.5 8t-8.5 25zM428 879q0 -29 23 -29h301q163 0 244 61.5t81 188.5q0 123 -74.5 184.5t-216.5 61.5h-325q-18 0 -25.5 -5.5t-7.5 -19.5v-442z" />
<glyph unicode="S" horiz-adv-x="1335" d="M88 260q0 16 21 31l100 69q18 12 33 13q14 0 24 -15q84 -109 167 -153.5t224 -44.5q160 0 250 55t90 172q0 74 -46 124t-167 93l-309 101q-166 55 -249 161.5t-83 237.5q0 129 68 228.5t189.5 153.5t281.5 54q158 0 286 -55t210 -152q10 -10 10 -22t-10 -21l-117 -90 q-8 -6 -17 -6q-6 0 -24 18q-59 68 -139 107t-195 39q-145 0 -226 -60.5t-81 -167.5q0 -141 201 -208l307 -97q348 -109 348 -409q0 -203 -150.5 -319.5t-412.5 -116.5q-195 0 -344.5 67.5t-231.5 192.5q-8 16 -8 20z" />
<glyph unicode="T" horiz-adv-x="1343" d="M80 1360v131q0 29 31 29h1124q29 0 29 -29v-131q0 -25 -29 -25h-406q-12 0 -16 -4t-4 -14v-1286q0 -31 -29 -31h-192q-27 0 -27 29v1284q0 14 -5 18t-17 4h-430q-29 0 -29 25z" />
<glyph unicode="U" horiz-adv-x="1460" d="M162 559v928q0 33 26 33h195q27 0 27 -31v-973q0 -352 338 -352q344 0 344 358v967q0 31 24 31h156q25 0 24 -29v-967q0 -284 -143 -414t-424 -130q-297 0 -432 142t-135 437z" />
<glyph unicode="V" horiz-adv-x="1464" d="M84 1495q0 10 7 17.5t20 7.5h192q29 0 35 -27l399 -1178q6 -16 13 -16q8 0 16 18l397 1176q8 27 37 27h156q14 0 21 -10q4 -7 4 -15q0 -5 -1 -10l-512 -1450q-6 -18 -18 -26.5t-33 -8.5h-174q-43 0 -55 33l-502 1450q-2 4 -2 12z" />
<glyph unicode="W" horiz-adv-x="2164" d="M88 1489q0 31 37 31h170q18 0 27.5 -6.5t13.5 -20.5l313 -1112q6 -23 13 -23q6 0 12 21l315 1114q8 27 43 27h148q20 0 28.5 -6.5t12.5 -20.5l315 -1120q6 -16 12 -17q8 0 13 17l313 1120q6 27 41 27h129q20 0 30 -12q6 -8 5 -19q0 -7 -2 -14l-420 -1440 q-6 -18 -17.5 -26.5t-31.5 -8.5h-156q-43 0 -51 33l-307 1077q-2 14 -9 14q-2 0 -8 -16l-311 -1073q-4 -18 -15.5 -26.5t-33.5 -8.5h-160q-39 0 -51 33l-416 1442q-2 6 -2 14z" />
<glyph unicode="X" horiz-adv-x="1435" d="M84 18q0 14 14 37l459 690q10 16 10 27q0 14 -12 29l-449 680q-6 10 -6 18q0 20 23 21h207q18 0 27.5 -5.5t17.5 -17.5l325 -506q8 -14 19 -14q12 0 20 14l326 506q6 12 15.5 17.5t27.5 5.5h180q20 0 21 -15q0 -8 -9 -20l-440 -662q-8 -10 -8 -24q0 -10 8 -25l477 -719 q17 -27 17 -37q0 -18 -33 -18h-195q-31 0 -45 23l-356 546q-12 23 -25 23q-8 0 -24 -25l-352 -544q-14 -23 -48 -23h-161q-31 0 -31 18z" />
<glyph unicode="Y" horiz-adv-x="1421" d="M78 1499q0 20 31 21h196q20 0 29.5 -6.5t19.5 -22.5l357 -617q12 -23 22 -22q12 0 21 18l354 621q8 18 17.5 23.5t29.5 5.5h164q16 0 23 -10q2 -3 2 -8q0 -7 -5 -15l-485 -807q-8 -14 -11 -28.5t-3 -51.5v-559q0 -23 -10.5 -32t-34.5 -9h-166q-35 0 -35 35v563 q0 20 -4 31.5t-15 29.5l-491 822q-6 10 -6 18z" />
<glyph unicode="Z" horiz-adv-x="1325" d="M88 29v57q0 18 5 29.5t22 34.5l766 1161q4 8 4 12q0 8 -17 8h-712q-14 0 -20.5 6t-6.5 23v135q0 25 21 25h1058q23 0 23 -25v-63q0 -14 -5 -24.5t-16 -25.5l-780 -1173l-4 -10q0 -4 5 -7.5t11 -3.5h758q27 0 27 -22v-139q0 -27 -29 -27h-1079q-17 0 -24 6t-7 23z" />
<glyph unicode="[" horiz-adv-x="606" d="M166 1493q0 14 7 20.5t26 6.5h356q20 0 20 -17v-100q0 -18 -20 -19h-172q-29 0 -29 -32l-2 -1530q0 -14 5 -19.5t20 -5.5h172q25 0 24 -22v-88q0 -14 -5 -19.5t-19 -5.5h-346q-35 0 -35 31z" />
<glyph unicode="\" horiz-adv-x="714" d="M18 1501q0 18 25 19h104q27 0 33 -23l512 -1546l2 -8q0 -14 -20 -15h-107q-33 0 -43 31l-501 1522z" />
<glyph unicode="]" horiz-adv-x="606" d="M31 1403v100q0 16 20 17h357q18 0 25 -6.5t7 -20.5l-2 -1800q0 -31 -35 -31h-346q-14 0 -19 5t-5 20v88q0 23 24 22h172q14 0 19.5 5t5.5 20l-2 1530q0 33 -29 32h-172q-20 0 -20 19z" />
<glyph unicode="^" horiz-adv-x="974" d="M92 285q0 10 4 16l301 731q14 35 38 54.5t50 19.5q25 0 48.5 -18.5t37.5 -55.5l306 -737q4 -12 4 -14q0 -14 -25 -15h-102q-31 0 -37 17l-217 542q-6 14 -17 15q-8 0 -14 -15l-217 -540q-4 -10 -12.5 -13.5t-22.5 -3.5h-106q-18 0 -19 17z" />
<glyph unicode="_" horiz-adv-x="1077" d="M119 -119q0 27 20 27l797 2q10 0 17.5 -7t7.5 -18v-108q0 -18 -9.5 -25.5t-31.5 -7.5l-770 -2q-18 0 -24.5 7t-6.5 22v110z" />
<glyph unicode="`" horiz-adv-x="598" d="M23 1417l36 107q2 10 10.5 14t18.5 0l475 -199q10 -4 13.5 -12t-3.5 -20l-18 -54q-4 -14 -12 -18t-25 0l-471 141q-18 6 -23.5 15.5t-0.5 25.5z" />
<glyph unicode="a" horiz-adv-x="1130" d="M74 276q0 166 144 264.5t411 110.5l133 11q33 4 33 30v51q0 100 -61.5 159t-168.5 59q-168 0 -268 -152q-6 -12 -13.5 -15t-21.5 1l-139 41q-12 4 -12 16q0 8 6 22q57 111 175 171.5t283 60.5q215 0 322 -92t107 -256v-723q0 -20 -7.5 -27.5t-23.5 -7.5h-137 q-29 0 -33 41l-4 78q-4 16 -13 16q-6 0 -22 -12q-149 -143 -350 -143q-158 0 -249 80.5t-91 215.5zM287 303q0 -80 57 -126t154 -46q111 0 209 76q88 72 88 143v160q0 31 -26 31h-3l-111 -9q-170 -10 -269 -68t-99 -161z" />
<glyph unicode="b" horiz-adv-x="1232" d="M143 37v1452q0 31 29 31h164q25 0 24 -31v-496q0 -23 11 -22q8 0 22 10q131 125 314 125q213 0 324.5 -153.5t111.5 -403.5q0 -264 -123 -416.5t-344 -152.5q-117 0 -200 49t-130 112q-10 10 -14 11q-4 0 -8 -17l-17 -100q-4 -18 -12 -26.5t-29 -8.5h-86q-20 0 -28.5 8 t-8.5 29zM360 369q0 -68 38 -124.5t99.5 -88t129.5 -31.5q133 0 213 104.5t80 315.5q0 201 -73 306t-210 105q-82 0 -152.5 -37.5t-124.5 -99.5v-450z" />
<glyph unicode="c" horiz-adv-x="1116" d="M86 539q0 164 67.5 293t186.5 201.5t268 72.5q160 0 270.5 -76t165.5 -196q4 -8 5 -19q0 -12 -19 -16l-145 -25h-6q-12 0 -21 17q-57 84 -110.5 123.5t-129.5 39.5q-143 0 -227 -108.5t-84 -302.5q0 -197 86 -305.5t234 -108.5q92 0 158.5 47t123.5 141q6 8 12.5 10.5 t16.5 -1.5l109 -33q12 -4 12 -16q0 -7 -4 -15q-57 -121 -169 -201.5t-278 -80.5q-152 0 -270.5 70.5t-185 197.5t-66.5 291z" />
<glyph unicode="d" horiz-adv-x="1232" d="M88 528q0 170 60.5 301.5t168 204t240.5 72.5q88 0 155.5 -28.5t127.5 -80.5q10 -10 20 -10q12 0 12 25v477q0 31 27 31h164q12 0 19.5 -8.5t7.5 -22.5v-1454q0 -18 -9.5 -26.5t-29.5 -8.5h-142q-32 0 -32 33v78q0 18 -11 18q-6 0 -16 -10q-61 -59 -133 -99t-182 -40 q-129 0 -230.5 62t-159 186t-57.5 300zM309 535q0 -205 84 -306.5t217 -101.5q72 0 131.5 34t95 86t35.5 105v479q-61 64 -120.5 94.5t-130.5 30.5q-139 0 -225.5 -108.5t-86.5 -312.5z" />
<glyph unicode="e" horiz-adv-x="1191" d="M86 530q0 172 69.5 303.5t189.5 202t267 70.5q152 0 266.5 -66.5t177 -193.5t62.5 -301v-8q0 -18 -5 -27.5t-26 -9.5h-757q-20 0 -21 -33q0 -92 44 -167t120 -119t166 -44q94 0 168 39t135 121q6 8 14 8q10 0 17 -4l104 -49q10 -6 10 -16q0 -6 -6 -17 q-86 -127 -196.5 -183t-268.5 -56q-154 0 -274.5 69.5t-188 195.5t-67.5 285zM313 631l555 -2q20 0 27.5 6t7.5 22q0 80 -33.5 150t-98 112t-153.5 42q-92 0 -161.5 -46.5t-107.5 -120.5q-36 -71 -36 -154v-9z" />
<glyph unicode="f" horiz-adv-x="790" d="M47 952v107q0 27 27 26h176q12 0 16 5.5t4 19.5v141q0 129 69 199t202 70h182q31 0 31 -31l2 -96q0 -10 -7.5 -17.5t-19.5 -7.5h-131q-57 0 -86 -37t-29 -102v-125q0 -18 21 -19h213q28 1 28 -26v-107q0 -23 -26 -22h-213q-18 0 -19 -19v-878q0 -33 -26 -33h-166 q-25 0 -25 29v884q0 16 -14 17h-184q-25 0 -25 22z" />
<glyph unicode="g" horiz-adv-x="1251" d="M39 -78q0 70 49 123t143 96q25 12 0 23q-102 47 -102 131q0 49 46 92t128 72q12 4 12 10q0 8 -12 14q-92 47 -137 115t-45 162q0 160 126 251t355 91q201 0 313 -92q14 -10 23 -11q12 0 25 13q39 41 95 70.5t103 29.5q39 0 39 -37v-92q0 -41 -35 -41q-33 0 -61.5 -2 t-48.5 -8q-27 -8 -36 -19.5t-5 -27.5q2 -6 15 -41t13 -84q0 -145 -117.5 -238.5t-340.5 -93.5q-135 0 -196.5 -22.5t-61.5 -59.5q0 -31 38.5 -44t131.5 -17l272 -17q184 -10 275.5 -86t91.5 -202q0 -158 -142.5 -248t-402.5 -90q-270 0 -410.5 71.5t-140.5 208.5zM225 -51 q0 -186 385 -187q160 0 244 46.5t84 138.5q0 133 -193 145l-333 19h-7q-36 0 -76 -19q-44 -20 -74 -58t-30 -85zM319 760q0 -98 69 -153.5t196 -55.5q129 0 193.5 54t64.5 155q0 102 -65.5 159.5t-192.5 57.5q-125 0 -195 -58.5t-70 -158.5z" />
<glyph unicode="h" horiz-adv-x="1204" d="M145 33v1456q0 31 25 31h162q25 0 24 -27v-541q0 -25 21 -6q109 86 190.5 123t177.5 37q158 0 242 -84t84 -231v-754q0 -37 -35 -37h-151q-31 0 -31 33v717q0 92 -47 142t-143 50q-80 0 -144.5 -35t-157.5 -119v-753q0 -35 -38 -35h-146q-18 0 -25.5 8t-7.5 25z" />
<glyph unicode="i" horiz-adv-x="505" d="M137 1298v187q0 35 31 35h170q12 0 20.5 -9.5t8.5 -23.5v-184q0 -23 -9.5 -33t-31.5 -10h-152q-20 0 -28.5 9t-8.5 29zM143 33v1022q0 16 6.5 23t22.5 7h164q25 0 24 -28v-1018q0 -23 -9 -31t-32 -8h-139q-20 0 -28.5 7t-8.5 26z" />
<glyph unicode="j" horiz-adv-x="505" d="M-88 -205q0 25 25 31l98 6q59 4 84.5 35t25.5 108v1080q0 31 29 30h164q25 0 24 -28v-1094q0 -162 -72.5 -236.5t-240.5 -74.5q-51 0 -84 2t-42 9t-9 22zM139 1298v187q0 35 31 35h168q14 0 22.5 -9.5t8.5 -23.5v-184q0 -23 -9.5 -33t-33.5 -10h-152q-35 0 -35 38z" />
<glyph unicode="k" horiz-adv-x="1179" d="M145 33v1456q0 31 27 31h164q27 0 26 -31v-916q0 -18 9 -18q4 0 14 10l467 494q27 27 47 26h154q29 0 28 -16q0 -12 -14 -27l-311 -317q-10 -10 -11 -20q0 -6 7 -23l374 -643q4 -7 4 -19q0 -20 -26 -20h-182q-29 0 -41 31l-281 495q-6 12 -12 13q-6 0 -15 -9l-194 -194 q-16 -14 -17 -43v-254q0 -23 -9 -31t-31 -8h-142q-20 0 -27.5 7t-7.5 26z" />
<glyph unicode="l" horiz-adv-x="507" d="M143 33l4 1456q0 31 27 31h162q27 0 26 -31v-1450q0 -23 -9 -31t-34 -8h-139q-20 0 -28.5 7t-8.5 26z" />
<glyph unicode="m" horiz-adv-x="1863" d="M143 33v1022q0 31 27 30h160q25 0 24 -26v-113q0 -12 6.5 -14t14.5 8q102 86 183 126t175 40q113 0 186.5 -51t104.5 -133q4 -6 8 -7q8 0 19 11q96 88 184 134t184 46q147 0 230.5 -85t83.5 -233v-751q0 -37 -37 -37h-152q-16 0 -22 7t-6 26v717q0 92 -45.5 142 t-135.5 50q-123 0 -262 -129q-14 -14 -20 -27.5t-6 -31.5v-717q0 -37 -37 -37h-150q-31 0 -31 33v717q0 92 -44 142t-136 50q-74 0 -137 -36t-152 -118v-753q0 -18 -9 -26.5t-29 -8.5h-146q-33 0 -33 33z" />
<glyph unicode="n" horiz-adv-x="1204" d="M143 33v1022q0 31 27 30h162q25 0 24 -26v-113q0 -12 5.5 -14t15.5 8q106 86 188 126t178 40q154 0 241 -85t87 -228v-756q0 -37 -35 -37h-151q-31 0 -31 33v717q0 92 -48 142t-144 50q-78 0 -144.5 -36t-157.5 -118v-753q0 -18 -9 -26.5t-29 -8.5h-146q-33 0 -33 33z " />
<glyph unicode="o" d="M86 537q0 166 67.5 296t187.5 201.5t273 71.5q156 0 276 -72.5t185.5 -202t65.5 -292.5q0 -162 -66.5 -289t-186.5 -198.5t-276 -71.5q-155 0 -275 70.5t-185.5 197.5t-65.5 289zM307 543q0 -193 82 -301.5t227 -108.5q144 0 224 107.5t80 302.5t-81 304t-225 109 q-143 0 -225 -109.5t-82 -303.5z" />
<glyph unicode="p" horiz-adv-x="1230" d="M143 -309v1358q0 20 9.5 28t29.5 8h144q34 1 34 -32v-80q0 -16 9 -17q4 0 18 11q61 61 130 100t183 39q127 0 226.5 -61.5t157 -184.5t57.5 -303q0 -184 -57.5 -314t-162 -196.5t-241.5 -66.5q-166 0 -285 102q-16 14 -24 14q-10 0 -11 -26v-379q0 -29 -24 -29h-166 q-27 0 -27 29zM360 252q60 -62 120.5 -93.5t131.5 -31.5q141 0 224.5 109.5t83.5 320.5q0 205 -82 303t-215 98q-74 0 -134.5 -31.5t-94.5 -81.5t-34 -100v-493z" />
<glyph unicode="q" horiz-adv-x="1232" d="M90 545q0 256 124 408.5t341 152.5q129 0 206 -44t132 -108q8 -8 14 -8q8 0 11 15l16 88q4 20 13 28t28 8h80q20 0 27.5 -8t7.5 -28v-1356q0 -31 -27 -31h-166q-25 0 -25 31v373q0 29 -10 28q-6 0 -22 -12q-59 -45 -134 -73.5t-159 -28.5q-213 0 -335 151.5t-122 413.5z M311 547q0 -205 81 -312.5t218 -107.5q76 0 144.5 31.5t117.5 89.5v467q0 66 -33.5 124t-94 92t-134.5 34q-133 0 -216 -105.5t-83 -312.5z" />
<glyph unicode="r" horiz-adv-x="811" d="M143 33v1022q0 31 27 30h158q25 0 24 -26v-129q0 -12 7.5 -14.5t15.5 8.5q76 88 156.5 135t158.5 47q72 0 72 -29v-159q0 -25 -23 -21q-39 10 -108 10q-57 0 -121 -31.5t-107 -83t-43 -104.5v-653q0 -35 -38 -35h-146q-33 0 -33 33z" />
<glyph unicode="s" horiz-adv-x="1060" d="M47 223q0 12 10 19l101 53q12 6 20 6q10 0 17 -8q109 -164 321 -164q113 0 186.5 42t73.5 114q0 51 -42 87t-138 60l-209 53q-152 37 -221.5 109t-69.5 180q0 98 54.5 173t151.5 117t226 42q139 0 250 -53.5t166 -139.5q8 -12 8 -20t-10 -14l-106 -56q-4 -2 -13 -2 q-12 0 -22 10q-43 60 -113 96t-162 36q-102 0 -167.5 -42t-65.5 -114q0 -41 32.5 -74t118.5 -57l252 -72q143 -37 212 -113.5t69 -181.5q0 -98 -58.5 -173t-163 -115.5t-235.5 -40.5q-164 0 -289 62t-178 163q-6 10 -6 18z" />
<glyph unicode="t" horiz-adv-x="821" d="M47 954v109q0 23 25 22h164q16 0 16 19l24 321q4 29 25 29h141q27 0 27 -33v-317q0 -18 18 -19h246q25 0 25 -22v-109q0 -25 -29 -24h-246q-18 0 -18 -21v-600q0 -86 31.5 -118.5t101.5 -32.5h131q25 0 25 -25v-88q0 -29 -31 -35q-66 -10 -209 -10q-135 0 -200.5 62.5 t-65.5 193.5v649q0 25 -21 25h-153q-27 0 -27 24z" />
<glyph unicode="u" horiz-adv-x="1193" d="M131 297v752q0 36 35 36h2h149q31 0 31 -32v-711q0 -90 51.5 -144.5t137.5 -54.5q141 0 297 162v746q0 34 36 34h2h148q33 0 33 -32l-4 -1024q0 -29 -25 -29h-160q-25 0 -24 27v114q0 25 -21 6q-100 -92 -186 -129.5t-180 -37.5q-141 0 -231.5 87t-90.5 230z" />
<glyph unicode="v" horiz-adv-x="1136" d="M51 1059q0 12 8.5 19t20.5 7h170q29 0 35 -26l295 -742q6 -20 14 -20t18 22l291 742q13 24 35 24h2h121q14 0 20 -11q4 -7 4 -14q0 -5 -2 -9l-413 -1016q-12 -35 -54 -35h-96q-41 0 -55 33l-412 1016q-2 4 -2 10z" />
<glyph unicode="w" horiz-adv-x="1644" d="M57 1059q0 10 7.5 18t19.5 8h160q27 0 37 -26l225 -729q6 -18 14 -19q8 0 15 21l221 729q6 24 33 24h2h118q29 0 35 -26l230 -729q6 -18 14 -19q8 0 14 21l217 729q10 24 37 24h2h105q14 0 21 -11q4 -6 4 -12q0 -5 -3 -11l-319 -1022q-4 -16 -13.5 -22.5t-25.5 -6.5h-121 q-39 0 -47 31l-221 702q-6 18 -15 19q-6 0 -12 -19l-215 -704q-4 -16 -13.5 -22.5t-25.5 -6.5h-127q-37 0 -45 31l-326 1018q-2 4 -2 10z" />
<glyph unicode="x" horiz-adv-x="1144" d="M53 20q0 16 17 39l362 461q10 16 10 25q0 12 -12 26l-348 473q-6 10 -6 17q0 24 26 24h2h170q18 0 28.5 -5t21.5 -17l249 -342q8 -12 17 -12q8 0 14 12l242 342q8 12 18 17t31 5h131q25 0 25 -16q0 -6 -9 -18l-333 -447q-10 -12 -11 -24q0 -10 11 -27l368 -502 q19 -25 19 -37q0 -14 -29 -14h-180q-35 0 -51 23l-265 366q-12 18 -20 19q-4 0 -21 -19l-274 -366q-12 -23 -49 -23h-119q-35 0 -35 20z" />
<glyph unicode="y" horiz-adv-x="1107" d="M51 1061q0 24 27 24h2h168q12 0 22.5 -7t12.5 -19l282 -737q6 -18 15 -19q12 0 20 25l279 733q10 24 30 24h2h121q14 0 22 -11q4 -6 4 -13q0 -5 -3 -10l-441 -1117q-43 -111 -96 -169t-123.5 -80.5t-177.5 -22.5q-70 0 -97.5 5t-27.5 26v104q0 29 58 29h133q45 0 85 30.5 t62.5 78t22.5 92.5q0 27 -9 45l-391 975q-2 4 -2 14z" />
<glyph unicode="z" horiz-adv-x="1009" d="M59 29v67q0 18 5.5 30.5t21.5 35.5l567 756l6 12q0 10 -18 10h-510q-16 0 -21.5 6t-5.5 23v92q0 24 21 24h2h786q23 0 23 -22v-74q0 -27 -23 -61l-571 -756q-6 -8 -6 -14q0 -10 16 -11h566q27 0 26 -24v-94q0 -29 -31 -29h-825q-16 0 -22.5 6t-6.5 23z" />
<glyph unicode="{" horiz-adv-x="663" d="M0 557v78q0 25 14 24q113 0 168.5 53.5t55.5 149.5v434q0 103 80.5 163.5t201.5 60.5h92q12 0 16.5 -3.5t4.5 -13.5v-100q0 -18 -21 -19h-57q-76 0 -103.5 -26.5t-27.5 -81.5v-440q-2 -109 -62.5 -167.5t-146.5 -66.5q-12 -2 -13 -7t13 -7q88 -8 147.5 -62.5t61.5 -173.5 v-444q0 -59 28.5 -85t104.5 -26h51q25 0 25 -22v-88q0 -14 -5 -19.5t-20 -5.5h-84q-127 0 -206.5 60.5t-79.5 164.5v449q0 80 -58.5 138t-165.5 58q-14 0 -14 25z" />
<glyph unicode="|" horiz-adv-x="528" d="M180 1704q0 31 29 31h108q31 0 31 -29v-2019q0 -25 -26 -25h-107q-18 0 -25.5 8t-7.5 27z" />
<glyph unicode="}" horiz-adv-x="663" d="M31 -225q0 23 24 22h51q76 0 105 25.5t29 85.5v444q2 119 61 173.5t148 62.5q14 2 13 7t-13 7q-86 8 -146.5 66.5t-62.5 167.5v440q0 55 -28 81.5t-103 26.5h-58q-20 0 -20 19v100q0 10 4 13.5t16 3.5h92q121 0 202 -60.5t81 -163.5v-434q0 -96 55.5 -149.5t167.5 -53.5 q14 0 15 -24v-78q0 -25 -15 -25q-106 0 -164.5 -58t-58.5 -138v-449q0 -104 -80 -164.5t-207 -60.5h-84q-14 0 -19 5t-5 20v88z" />
<glyph unicode="~" horiz-adv-x="1189" d="M119 739q0 12 14 21q70 68 131.5 101.5t143.5 33.5q55 0 100 -14.5t108 -44.5q59 -27 97.5 -40.5t83.5 -13.5q113 0 192 97q10 12 19 12q8 0 18 -17l39 -71q4 -8 4 -15q0 -12 -10 -26q-39 -57 -106.5 -91t-153.5 -34q-57 0 -103.5 14.5t-109.5 44.5q-57 27 -94 40.5 t-82 13.5q-68 0 -116 -28t-99 -79q-6 -8 -15 -8q-6 0 -12 10l-45 82q-4 8 -4 12z" />
<glyph unicode="&#xa1;" horiz-adv-x="514" d="M131 -309l55 962q2 16 7.5 22.5t23.5 6.5h76q20 0 28.5 -7t10.5 -26l53 -962v-4q0 -8 -6 -14.5t-17 -6.5h-208q-25 0 -23 29zM131 854v199q0 18 8 25t27 7h174q25 0 34 -8t9 -28v-199q0 -27 -25 -27h-202q-25 0 -25 31z" />
<glyph unicode="&#xa2;" horiz-adv-x="1142" d="M86 766q0 150 55.5 270.5t154.5 196.5t228 94v158q0 18 8.5 26.5t28.5 8.5h86q31 0 31 -31v-160q131 -16 224 -90t142 -178q4 -8 5 -19q0 -12 -19 -16l-145 -25h-6q-12 0 -21 17q-57 84 -110.5 124t-129.5 40q-143 0 -227 -108.5t-84 -303.5q0 -197 86 -305.5t234 -108.5 q92 0 158.5 47.5t123.5 141.5q6 8 12.5 10t16.5 -2l109 -33q18 -6 8 -31q-51 -106 -145.5 -184t-231.5 -94v-170q0 -41 -41 -41h-76q-20 0 -28.5 9t-8.5 28v176q-131 18 -230 92t-153.5 192.5t-54.5 268.5z" />
<glyph unicode="&#xa3;" horiz-adv-x="1280" d="M25 27v137q0 20 20 20h57q84 0 136.5 67.5t52.5 205.5q0 68 -23 248q-2 16 -16 16h-182q-16 0 -17 18v97q0 18 17 18h151q20 0 19 18l-27 158q-10 57 -10 103q0 125 61.5 217t163.5 141t223 49q139 0 263 -66.5t171 -177.5q2 -2 2 -8q0 -12 -20 -18l-143 -45 q-4 -2 -13 -2q-14 0 -20 10q-61 125 -211 125q-100 0 -167 -60.5t-67 -162.5q0 -111 43 -263q4 -18 19 -18h301q16 0 16 -14v-101q0 -18 -16 -18h-277q-20 0 -18 -16q10 -82 10 -140q0 -27 -4 -80q-10 -182 -100 -278q-20 -20 6 -21h322q100 0 161.5 35t94.5 113q6 23 32 16 l129 -33q31 -6 23 -30q-45 -139 -155.5 -213t-272.5 -74h-711q-24 0 -24 27z" />
<glyph unicode="&#xa4;" horiz-adv-x="1124" d="M104 401q0 10 9 19l96 96q6 10 6 16q0 10 -6 19q-59 96 -59 213q0 121 63 219q8 18 -2 29l-96 96q-8 8 -9 18q0 12 9 21l63 63q8 10 19 11q10 0 18 -11l98 -96q8 -8 13 -8q6 0 16 6q100 63 217 64q121 0 223 -68q16 -6 25 2l100 102q14 10 25 0l76 -79q12 -12 0 -25 l-101 -100q-10 -10 -2 -23q66 -102 66 -221q0 -127 -66 -221q-6 -14 0 -21l103 -102q12 -12 2 -25l-76 -78q-12 -12 -25 0l-100 101q-12 10 -23 4q-106 -70 -223 -70q-123 0 -223 66q-12 4 -14 4q-8 0 -15 -8l-96 -97q-8 -8 -18 -8q-12 0 -23 10l-61 64q-8 8 -9 18zM309 764 q0 -68 34 -126t91.5 -93t128.5 -35q70 0 128.5 35t92 93t33.5 126t-33.5 126t-92 93t-128.5 35q-72 0 -129 -35t-91 -93.5t-34 -125.5z" />
<glyph unicode="&#xa5;" horiz-adv-x="1277" d="M12 1499q0 20 31 21h203q20 0 28.5 -5.5t20.5 -23.5l354 -619q2 -2 7.5 -11t11.5 -9q8 0 16 18l358 621q8 18 17.5 23.5t32.5 5.5h157q17 0 23 -9.5t-2 -23.5l-469 -772h268q23 0 23 -25v-74q0 -18 -9.5 -25t-29.5 -7h-281v-181h297q23 0 23 -24v-74q0 -18 -9.5 -25.5 t-29.5 -7.5h-281v-231q0 -23 -10 -32t-35 -9h-166q-35 0 -35 35v235h-288q-18 0 -24.5 6.5t-6.5 22.5v74q0 29 22 28h297v181h-288q-18 0 -24.5 7t-6.5 23v74q0 27 22 27h248l-459 768q-6 10 -6 18z" />
<glyph unicode="&#xa6;" horiz-adv-x="528" d="M180 475q0 31 29 31h108q31 0 31 -27v-792q0 -25 -26 -25h-107q-18 0 -25.5 8t-7.5 27zM180 1704q0 31 29 31h108q31 0 31 -29v-791q0 -25 -26 -24h-107q-18 0 -25.5 8t-7.5 25z" />
<glyph unicode="&#xa7;" horiz-adv-x="1011" d="M76 61q-16 31 0 35l106 56q8 4 15 4q10 0 20 -13q51 -70 127 -110.5t176 -40.5t161.5 37t61.5 106q0 53 -43 97t-151 85l-178 68q-150 57 -217.5 132t-67.5 181q0 94 55.5 165t147.5 110q-111 59 -153 122.5t-42 143.5q0 84 50.5 152.5t141.5 108.5t210 40 q133 0 238.5 -55t158.5 -137q6 -12 6 -21q0 -6 -8 -14l-103 -53q-8 -4 -14 -5q-12 0 -24 13q-104 127 -244 127q-98 0 -154.5 -37t-56.5 -98q0 -45 33.5 -83t124.5 -75l168 -66q166 -68 239.5 -147.5t73.5 -192.5q0 -174 -182 -270q98 -55 144 -118.5t46 -147.5 q0 -139 -113.5 -226.5t-308.5 -87.5q-150 0 -270.5 60.5t-173.5 154.5zM272 729q0 -57 36 -94t143 -80l120 -49q74 -6 125.5 40t51.5 111q0 63 -36 109.5t-141 87.5l-108 43q-82 -8 -136.5 -57t-54.5 -111z" />
<glyph unicode="&#xa8;" horiz-adv-x="581" d="M21 1311v180q0 29 24 29h156q25 0 25 -27v-178q0 -18 -9.5 -26.5t-29.5 -8.5h-133q-18 0 -25.5 7t-7.5 24zM357 1311v180q0 29 24 29h156q25 0 25 -27v-178q0 -18 -9.5 -26.5t-29.5 -8.5h-134q-18 0 -25 7t-7 24z" />
<glyph unicode="&#xa9;" horiz-adv-x="1699" d="M70 760q0 211 104.5 390t283.5 284.5t392 105.5q211 0 390 -105.5t284.5 -284.5t105.5 -390q0 -213 -105.5 -392.5t-284.5 -283.5t-390 -104q-213 0 -392 104t-283.5 283.5t-104.5 392.5zM219 760q0 -190 82 -337t226.5 -225.5t322.5 -78.5q176 0 319.5 80t227.5 225 t84 336q0 188 -84 334.5t-228.5 227.5t-318.5 81q-178 0 -322.5 -81t-226.5 -227.5t-82 -334.5zM451 762q0 129 52 229.5t144 156.5t207 56q123 0 209 -62.5t135 -158.5q2 -4 2 -10q0 -10 -14 -15l-123 -24h-4q-12 0 -17 14q-33 61 -75.5 94t-104.5 33q-102 0 -165.5 -83 t-63.5 -226q0 -147 64.5 -229t172.5 -82q135 0 215 147q6 10 25 4l84 -26q8 -2 10 -7.5t-2 -17.5q-45 -94 -133 -160.5t-215 -66.5q-117 0 -209 54t-143 153.5t-51 226.5z" />
<glyph unicode="&#xaa;" horiz-adv-x="815" d="M74 1022q0 203 344 231l84 9q23 0 22 18v29q0 123 -141 123q-53 0 -91 -18.5t-67 -65.5q-4 -8 -8 -9.5t-14 0.5l-99 25q-4 2 -6 11t2 16q39 72 109 108.5t182 36.5q277 0 277 -225v-342q0 -31 3 -51.5t13 -49.5q2 -2 2 -8q0 -16 -35 -16h-92q-20 0 -24 20l-9 49 q-4 10 -8 11q-6 0 -16 -9q-53 -45 -99.5 -64.5t-105.5 -19.5q-104 0 -163.5 51.5t-59.5 139.5zM221 1030q0 -43 36 -69.5t95 -26.5q72 0 129 47q43 39 43 80v88q0 12 -5 18.5t-17 3.5l-72 -8q-98 -8 -153.5 -42t-55.5 -91z" />
<glyph unicode="&#xab;" horiz-adv-x="940" d="M84 526q0 8 8 25l246 362q6 8 12 10.5t12 2.5h80q25 0 17 -23l-187 -358q-4 -12 -4 -21q0 -4 4 -16l187 -346q2 -2 2 -6q0 -10 -25 -11h-76q-16 0 -22 13l-244 342q-10 16 -10 26zM461 526q0 8 8 25l246 362q6 8 11 10.5t11 2.5h82q25 0 17 -23l-187 -358q-4 -12 -4 -21 q0 -4 4 -16l187 -346q2 -2 2 -6q0 -10 -25 -11h-76q-16 0 -22 13l-244 342q-10 16 -10 26z" />
<glyph unicode="&#xac;" horiz-adv-x="1157" d="M119 711v106q0 29 20 29h879q24 0 24 -23v-415q0 -16 -8 -23.5t-26 -7.5h-117q-16 0 -22.5 6t-6.5 18l-2 281l-710 -2q-18 0 -24.5 7t-6.5 24z" />
<glyph unicode="&#xad;" horiz-adv-x="780" d="M119 487v109q0 29 22 29h496q25 0 25 -23v-110q0 -33 -41 -33h-471q-16 0 -23.5 6t-7.5 22z" />
<glyph unicode="&#xae;" horiz-adv-x="1116" d="M70 1051q0 133 65.5 245.5t178 178t245.5 65.5q131 0 243.5 -65.5t178.5 -178t66 -245.5t-66 -245t-177.5 -177.5t-244.5 -65.5t-245.5 65.5t-178 177.5t-65.5 245zM178 1051q0 -176 104.5 -280.5t276.5 -104.5q170 0 274.5 105.5t104.5 279.5q0 115 -48 202.5t-134 136 t-197 48.5q-170 0 -275.5 -106.5t-105.5 -280.5zM369 815v465q0 10 8 10h213q80 0 125 -32.5t45 -92.5q0 -94 -94 -127q-2 0 -3 -3t1 -5l86 -211q2 -4 -1.5 -9t-9.5 -5h-80q-8 0 -12 10l-74 203q-2 2 -4 5t-14 3h-82q-8 0 -8 -8v-201q0 -12 -12 -12h-74q-10 0 -10 10z M465 1108q0 -8 8 -8h105q81 0 81 57q0 59 -86 60h-98h-5t-4 -2.5t-1 -6.5v-100z" />
<glyph unicode="&#xaf;" horiz-adv-x="692" d="M20 1374v96q0 25 21 25h610q20 0 21 -22v-97q0 -31 -37 -30h-588q-27 0 -27 28z" />
<glyph unicode="&#xb0;" horiz-adv-x="950" d="M141 1421q0 96 43 173t119 120t172 43q94 0 170 -43t120 -119.5t44 -173.5q0 -96 -44 -171.5t-120 -119t-170 -43.5t-171 43.5t-120 119t-43 171.5zM281 1423q0 -90 51 -146t141 -56q86 0 138.5 55t52.5 143t-52.5 143.5t-140.5 55.5q-86 0 -138 -54.5t-52 -140.5z" />
<glyph unicode="&#xb1;" horiz-adv-x="1157" d="M119 141v109q0 27 20 26l879 3q24 0 24 -25v-107q0 -18 -9 -25t-32 -7l-851 -2q-18 0 -24.5 6t-6.5 22zM119 874v109q0 27 20 27h359v348q0 18 6 25.5t22 7.5h109q27 0 27 -23v-356h356q10 0 17 -7.5t7 -17.5v-106q0 -35 -41 -35h-339v-354q0 -25 -25 -25h-105 q-35 0 -34 39v340h-348q-18 0 -24.5 6t-6.5 22z" />
<glyph unicode="&#xb2;" horiz-adv-x="925" d="M95 809v68q0 14 8 25t35 34l264 256q115 102 155.5 163.5t40.5 127.5q0 72 -52 113.5t-124 41.5q-57 0 -112.5 -31.5t-96.5 -99.5q-6 -14 -28 -4l-76 41q-18 16 -6 35q59 90 144 133t188 43q137 0 226 -72.5t89 -203.5q0 -80 -45 -151t-156 -171l-254 -225 q-8 -6 -6 -10.5t14 -4.5h437q20 0 20 -18v-94q0 -18 -20 -19h-621q-14 0 -19 5.5t-5 17.5z" />
<glyph unicode="&#xb3;" horiz-adv-x="956" d="M107 930q0 10 10 14l70 53q8 6 13 5t9 -5q57 -59 113.5 -83.5t132.5 -24.5q100 0 157.5 44t57.5 118q0 80 -64.5 127t-156.5 47l-113 2q-18 0 -18 14v84q0 10 18 14l90 2q94 2 155.5 47.5t61.5 114.5q0 59 -52 99t-130 40q-123 0 -223 -98q-8 -8 -12 -8t-15 8l-59 60 q-8 12 0 22q55 63 135 96t174 33q154 0 244 -68.5t90 -177.5q0 -68 -43 -123t-117 -81q-14 -6 -14 -11q0 -6 14 -8q82 -25 135.5 -86t53.5 -145q0 -129 -96.5 -205t-282.5 -76q-102 0 -188.5 37t-145.5 106q-4 8 -4 13z" />
<glyph unicode="&#xb4;" horiz-adv-x="598" d="M20 1319q0 18 13 20l477 199l8 2q14 0 21 -16l34 -107q4 -12 5 -14q0 -16 -29 -27l-469 -141q-6 -2 -14 -2q-16 0 -23 20l-20 54q-2 4 -3 12z" />
<glyph unicode="&#xb6;" horiz-adv-x="1175" d="M86 1063q0 123 55.5 226.5t165 167t262.5 63.5h457q18 0 18 -17v-100q0 -8 -4 -11t-14 -3h-94q-16 0 -17 -17v-1526q0 -20 -16 -20h-102q-20 0 -21 20v1528q0 6 -5 10.5t-13 4.5h-76q-14 0 -14 -17v-1526q0 -20 -21 -20h-102q-20 0 -21 20v768q0 12 -12 13 q-127 4 -223 61t-149.5 154.5t-53.5 220.5z" />
<glyph unicode="&#xb7;" horiz-adv-x="442" d="M92 672v188q0 29 23 29h211q20 0 20 -25v-186q0 -20 -9 -28.5t-30 -8.5h-184q-18 0 -24.5 7t-6.5 24z" />
<glyph unicode="&#xb8;" horiz-adv-x="479" d="M20 -369l27 60q2 4 7 5t11 -1q63 -41 133 -41q113 0 113 76q0 43 -41 65.5t-129 24.5q-20 0 -12 14l74 176h110l-45 -112q-6 -12 8 -13q94 -4 138.5 -49t44.5 -106q0 -78 -67 -122t-167 -44q-115 0 -195 47q-12 6 -10 20z" />
<glyph unicode="&#xb9;" horiz-adv-x="751" d="M72 1538v61q0 10 4 15.5t10 9.5l199 98q27 12 45 13h66q14 0 14 -19v-807q0 -12 10 -12h142q18 0 18 -14v-88q0 -16 -21 -17h-469q-16 0 -16 17v88q0 14 16 14h154q10 0 10 8v656q0 8 -3 10t-11 0l-147 -51l-7 -2q-14 0 -14 20z" />
<glyph unicode="&#xba;" horiz-adv-x="833" d="M86 1182q0 160 92 258t238 98q151 0 242.5 -98.5t91.5 -257.5q0 -154 -90.5 -251t-243.5 -97q-152 0 -241 97t-89 251zM242 1188q0 -119 44 -182.5t130 -63.5q88 0 133 63.5t45 182.5q0 117 -45 180.5t-133 63.5q-86 0 -130 -63.5t-44 -180.5z" />
<glyph unicode="&#xbb;" horiz-adv-x="937" d="M102 162l187 346q4 6 4 18t-4 19l-185 358q-2 4 -2 10q0 12 19 13h80q6 0 11 -2t11 -11l248 -362q6 -12 6 -25q0 -12 -8 -26l-244 -342q-6 -12 -24 -13h-76q-29 0 -23 17zM479 162l187 346q4 6 4 18t-4 19l-185 358q-2 4 -2 10q0 12 19 13h80q6 0 11 -2t11 -11l248 -362 q8 -16 8 -25q0 -10 -10 -26l-244 -342q-6 -12 -24 -13h-76q-29 0 -23 17z" />
<glyph unicode="&#xbc;" horiz-adv-x="1857" d="M2 1325v61q0 10 4 15.5t10 9.5l199 98q27 12 45 13h66q14 0 14 -19v-807q0 -12 10 -12h142q18 0 18 -14v-88q0 -16 -21 -17h-469q-16 0 -16 17v88q0 14 16 14h154q10 0 10 8v656q0 8 -3 10t-11 0l-147 -51l-7 -2q-14 0 -14 20zM299 14q0 12 8 23l985 1483q6 10 14 13 t23 3h80q14 0 18 -7t-4 -20l-993 -1497q-6 -12 -15.5 -16t-25.5 -4h-64q-27 0 -26 22zM1059 266v78q0 16 24 49l410 547q8 10 16 13t23 3h110q16 0 17 -18v-567q0 -12 12 -13h115q20 0 20 -16v-76q0 -20 -20 -20h-115q-12 0 -12 -13v-210q0 -12 -5.5 -17.5t-19.5 -5.5h-112 q-20 0 -21 20v218q0 8 -12 8h-408q-23 0 -22 20zM1194 375q-12 -16 8 -17h287q4 0 8 2t4 7v395q0 16 -6 16q-4 0 -12 -10z" />
<glyph unicode="&#xbd;" horiz-adv-x="1972" d="M2 1325v61q0 10 4 15.5t10 9.5l199 98q27 12 45 13h66q14 0 14 -19v-807q0 -12 10 -12h142q18 0 18 -14v-88q0 -16 -21 -17h-469q-16 0 -16 17v88q0 14 16 14h154q10 0 10 8v656q0 8 -3 10t-11 0l-147 -51l-7 -2q-14 0 -14 20zM420 14q0 12 8 23l985 1483q6 10 14 13 t23 3h80q14 0 18 -7t-4 -20l-993 -1497q-6 -12 -15.5 -16t-25.5 -4h-64q-27 0 -26 22zM1209 23v67q0 14 8 25.5t35 34.5l264 256q115 102 155.5 163.5t40.5 126.5q0 72 -52 114t-124 42q-57 0 -112.5 -32t-96.5 -99q-6 -14 -28 -4l-76 41q-18 16 -6 35q59 90 144 133t188 43 q137 0 226 -73t89 -204q0 -80 -45 -150.5t-156 -170.5l-254 -226q-8 -6 -6 -10t14 -4h437q20 0 20 -18v-95q0 -18 -20 -18h-621q-14 0 -19 5t-5 18z" />
<glyph unicode="&#xbe;" horiz-adv-x="1959" d="M37 715q0 10 10 14l70 53q8 6 13 5t9 -5q57 -59 113.5 -83.5t132.5 -24.5q100 0 157.5 44t57.5 118q0 80 -64.5 127t-156.5 47l-113 2q-18 0 -18 14v84q0 10 18 14l90 2q94 2 155.5 47.5t61.5 114.5q0 59 -52 99t-130 40q-123 0 -223 -98q-8 -8 -12 -8t-15 8l-59 60 q-8 12 0 22q55 63 135 96t174 33q154 0 244 -68.5t90 -177.5q0 -68 -43 -123t-117 -81q-14 -6 -14 -11q0 -6 14 -8q82 -25 135.5 -86t53.5 -145q0 -129 -96.5 -205t-282.5 -76q-102 0 -188.5 37t-145.5 106q-4 8 -4 13zM504 14q0 12 8 23l985 1483q6 10 14 13t23 3h80 q14 0 18 -7t-4 -20l-993 -1497q-6 -12 -15.5 -16t-25.5 -4h-64q-27 0 -26 22zM1153 266v78q0 16 24 49l410 547q8 10 16 13t23 3h110q16 0 17 -18v-567q0 -12 12 -13h115q20 0 20 -16v-76q0 -20 -20 -20h-115q-12 0 -12 -13v-210q0 -12 -5.5 -17.5t-19.5 -5.5h-112 q-20 0 -21 20v218q0 8 -12 8h-408q-23 0 -22 20zM1288 375q-12 -16 8 -17h287q4 0 8 2t4 7v395q0 16 -6 16q-4 0 -12 -10z" />
<glyph unicode="&#xbf;" horiz-adv-x="1069" d="M55 6q0 76 29 134.5t71 100.5t109 95q68 55 109 95t68.5 96.5t27.5 127.5q0 12 9 21.5t22 9.5h121q31 0 30 -35q0 -92 -30.5 -161.5t-73.5 -117.5t-113 -108q-82 -72 -121 -124t-39 -126q0 -94 71 -151.5t183 -57.5q94 0 183.5 52.5t124.5 130.5q4 10 10 13t20 -1 l144 -39q12 -4 14 -13t-2 -20q-66 -135 -196 -210.5t-300 -75.5q-147 0 -253.5 46t-162 129t-55.5 189zM436 850v199q0 20 10.5 28t32.5 8h174q20 0 27.5 -7t7.5 -25v-199q0 -31 -24 -31h-205q-23 0 -23 27z" />
<glyph unicode="&#xc0;" horiz-adv-x="1517" d="M84 25l4 18l522 1444q6 18 16.5 25.5t28.5 7.5h207q39 0 51 -35l519 -1444q2 -4 2 -14q0 -27 -23 -27h-194q-27 0 -35 25l-131 364q-4 10 -8.5 14.5t-16.5 4.5h-567q-18 0 -25 -17l-133 -371q-6 -20 -35 -20h-157q-25 0 -25 25zM459 1851l36 107q2 10 10.5 14t18.5 0 l475 -199q10 -4 13.5 -12t-3.5 -20l-18 -54q-4 -14 -12 -18t-25 0l-471 141q-18 6 -23.5 15.5t-0.5 25.5zM500 614q0 -14 18 -14h445q14 0 17 7t-1 22l-221 614q-6 14 -15 14q-8 0 -14 -16l-227 -614z" />
<glyph unicode="&#xc1;" horiz-adv-x="1517" d="M84 25l4 18l522 1444q6 18 16.5 25.5t28.5 7.5h207q39 0 51 -35l519 -1444q2 -4 2 -14q0 -27 -23 -27h-194q-27 0 -35 25l-131 364q-4 10 -8.5 14.5t-16.5 4.5h-567q-18 0 -25 -17l-133 -371q-6 -20 -35 -20h-157q-25 0 -25 25zM477 1753q0 18 13 20l477 199l8 2 q14 0 21 -16l34 -107q4 -12 5 -14q0 -16 -29 -27l-469 -141q-6 -2 -14 -2q-16 0 -23 20l-20 54q-2 4 -3 12zM500 614q0 -14 18 -14h445q14 0 17 7t-1 22l-221 614q-6 14 -15 14q-8 0 -14 -16l-227 -614z" />
<glyph unicode="&#xc2;" horiz-adv-x="1517" d="M84 25l4 18l522 1444q6 18 16.5 25.5t28.5 7.5h207q39 0 51 -35l519 -1444q2 -4 2 -14q0 -27 -23 -27h-194q-27 0 -35 25l-131 364q-4 10 -8.5 14.5t-16.5 4.5h-567q-18 0 -25 -17l-133 -371q-6 -20 -35 -20h-157q-25 0 -25 25zM430 1722q0 6 10 17l216 200 q12 12 23 18.5t32 6.5h100q14 0 24.5 -7t18.5 -16l213 -202q12 -12 12 -19q0 -8 -16 -8h-137q-27 0 -41 14l-107 105q-18 18 -24 18q-8 0 -27 -18l-112 -105q-12 -10 -18.5 -12t-22.5 -2h-127q-16 0 -17 10zM500 614q0 -14 18 -14h445q14 0 17 7t-1 22l-221 614 q-6 14 -15 14q-8 0 -14 -16l-227 -614z" />
<glyph unicode="&#xc3;" horiz-adv-x="1517" d="M84 25l4 18l522 1444q6 18 16.5 25.5t28.5 7.5h207q39 0 51 -35l519 -1444q2 -4 2 -14q0 -27 -23 -27h-194q-27 0 -35 25l-131 364q-4 10 -8.5 14.5t-16.5 4.5h-567q-18 0 -25 -17l-133 -371q-6 -20 -35 -20h-157q-25 0 -25 25zM438 1859q0 10 10 21q39 33 77 49t89 16 q37 0 77 -9t75 -21q12 -4 53 -15.5t78 -11.5q63 0 125 43q8 6 18 6q12 0 19 -18l20 -76q2 -4 2 -12q0 -12 -18 -25q-74 -47 -166 -47q-39 0 -71 7t-77 22q-31 10 -63.5 17t-63.5 7q-39 0 -65.5 -10t-61.5 -35q-8 -6 -16 -6q-10 0 -16 19l-23 65q-2 6 -2 14zM500 614 q0 -14 18 -14h445q14 0 17 7t-1 22l-221 614q-6 14 -15 14q-8 0 -14 -16l-227 -614z" />
<glyph unicode="&#xc4;" horiz-adv-x="1517" d="M84 25l4 18l522 1444q6 18 16.5 25.5t28.5 7.5h207q39 0 51 -35l519 -1444q2 -4 2 -14q0 -27 -23 -27h-194q-27 0 -35 25l-131 364q-4 10 -8.5 14.5t-16.5 4.5h-567q-18 0 -25 -17l-133 -371q-6 -20 -35 -20h-157q-25 0 -25 25zM483 1745v180q0 29 24 29h156q25 0 25 -27 v-178q0 -18 -9.5 -26.5t-29.5 -8.5h-133q-18 0 -25.5 7t-7.5 24zM500 614q0 -14 18 -14h445q14 0 17 7t-1 22l-221 614q-6 14 -15 14q-8 0 -14 -16l-227 -614zM819 1745v180q0 29 24 29h156q25 0 25 -27v-178q0 -18 -9.5 -26.5t-29.5 -8.5h-134q-18 0 -25 7t-7 24z" />
<glyph unicode="&#xc5;" horiz-adv-x="1517" d="M84 25l4 18l522 1444q6 18 16.5 25.5t28.5 7.5h207q39 0 51 -35l519 -1444q2 -4 2 -14q0 -27 -23 -27h-194q-27 0 -35 25l-131 364q-4 10 -8.5 14.5t-16.5 4.5h-567q-18 0 -25 -17l-133 -371q-6 -20 -35 -20h-157q-25 0 -25 25zM500 614q0 -14 18 -14h445q14 0 17 7 t-1 22l-221 614q-6 14 -15 14q-8 0 -14 -16l-227 -614zM534 1759q0 88 64.5 149.5t154.5 61.5q92 0 156 -62.5t64 -152.5q0 -94 -63.5 -156.5t-156.5 -62.5q-92 0 -155.5 64.5t-63.5 158.5zM639 1753q0 -45 33.5 -78.5t78.5 -33.5q47 0 79 33.5t32 78.5q0 49 -32 80t-79 31 q-45 0 -78.5 -32t-33.5 -79z" />
<glyph unicode="&#xc6;" horiz-adv-x="2111" d="M84 18q0 14 8 25l795 1444q10 18 20.5 25.5t28.5 7.5h1036q25 0 25 -27l-2 -129q0 -31 -31 -31h-661q-16 0 -22.5 -6t-6.5 -20v-422q0 -27 24 -27h478q25 0 24 -24v-138q0 -23 -24 -22h-478q-14 0 -19 -5t-5 -18v-442q0 -14 4 -18.5t16 -4.5h699q16 0 22 -5t6 -19v-135 q0 -27 -28 -27h-934q-18 0 -25.5 7t-7.5 26v358q0 16 -16 17h-475q-20 0 -31 -17l-205 -371q-10 -20 -35 -20h-160q-8 0 -14 5t-6 13zM606 608q0 -8 17 -8h376q27 0 27 27v641q-2 31 -18 30q-16 0 -33 -30l-361 -641q-8 -16 -8 -19z" />
<glyph unicode="&#xc7;" horiz-adv-x="1458" d="M119 764q0 240 78.5 415t227 268t351.5 93q141 0 266 -58.5t207 -156.5t101 -215q2 -8 2 -20q0 -10 -4.5 -13.5t-16.5 -5.5l-190 -12h-6q-12 0 -19 22q-29 127 -116 203t-216 76q-199 0 -302 -148.5t-103 -449.5q0 -299 103.5 -446.5t310.5 -147.5q139 0 232 67.5 t151 217.5q2 14 30 10l146 -35q18 -4 14 -35q-27 -92 -96.5 -183t-182 -154.5t-258.5 -73.5l-32 -84q-6 -12 8 -13q94 -4 138 -49t44 -106q0 -78 -66.5 -122t-166.5 -44q-115 0 -195 47q-12 6 -10 20l26 60q2 4 7.5 5t11.5 -1q63 -41 133 -41q113 0 113 76q0 43 -41 65.5 t-129 24.5q-20 0 -13 14l62 148q-186 14 -321.5 114.5t-207 271.5t-71.5 396z" />
<glyph unicode="&#xc8;" horiz-adv-x="1302" d="M180 33v1456q0 16 6.5 23.5t22.5 7.5h954q25 0 25 -27l-2 -129q0 -31 -31 -31h-696q-31 0 -31 -26v-422q0 -27 27 -27h499q27 0 27 -24v-138q0 -23 -27 -22h-501q-25 0 -25 -23v-442q0 -12 5 -17.5t16 -5.5h735q16 0 22 -5t6 -19v-135q0 -27 -28 -27h-969q-20 0 -27.5 7 t-7.5 26zM402 1851l36 107q2 10 10.5 14t18.5 0l475 -199q10 -4 13.5 -12t-3.5 -20l-18 -54q-4 -14 -12 -18t-25 0l-471 141q-18 6 -23.5 15.5t-0.5 25.5z" />
<glyph unicode="&#xc9;" horiz-adv-x="1302" d="M180 33v1456q0 16 6.5 23.5t22.5 7.5h954q25 0 25 -27l-2 -129q0 -31 -31 -31h-696q-31 0 -31 -26v-422q0 -27 27 -27h499q27 0 27 -24v-138q0 -23 -27 -22h-501q-25 0 -25 -23v-442q0 -12 5 -17.5t16 -5.5h735q16 0 22 -5t6 -19v-135q0 -27 -28 -27h-969q-20 0 -27.5 7 t-7.5 26zM419 1753q0 18 13 20l477 199l8 2q14 0 21 -16l34 -107q4 -12 5 -14q0 -16 -29 -27l-469 -141q-6 -2 -14 -2q-16 0 -23 20l-20 54q-2 4 -3 12z" />
<glyph unicode="&#xca;" horiz-adv-x="1302" d="M180 33v1456q0 16 6.5 23.5t22.5 7.5h954q25 0 25 -27l-2 -129q0 -31 -31 -31h-696q-31 0 -31 -26v-422q0 -27 27 -27h499q27 0 27 -24v-138q0 -23 -27 -22h-501q-25 0 -25 -23v-442q0 -12 5 -17.5t16 -5.5h735q16 0 22 -5t6 -19v-135q0 -27 -28 -27h-969q-20 0 -27.5 7 t-7.5 26zM372 1722q0 6 10 17l216 200q12 12 23 18.5t32 6.5h100q14 0 24.5 -7t18.5 -16l213 -202q12 -12 12 -19q0 -8 -16 -8h-137q-27 0 -41 14l-107 105q-18 18 -24 18q-8 0 -27 -18l-112 -105q-12 -10 -18.5 -12t-22.5 -2h-127q-16 0 -17 10z" />
<glyph unicode="&#xcb;" horiz-adv-x="1302" d="M180 33v1456q0 16 6.5 23.5t22.5 7.5h954q25 0 25 -27l-2 -129q0 -31 -31 -31h-696q-31 0 -31 -26v-422q0 -27 27 -27h499q27 0 27 -24v-138q0 -23 -27 -22h-501q-25 0 -25 -23v-442q0 -12 5 -17.5t16 -5.5h735q16 0 22 -5t6 -19v-135q0 -27 -28 -27h-969q-20 0 -27.5 7 t-7.5 26zM426 1745v180q0 29 24 29h156q25 0 25 -27v-178q0 -18 -9.5 -26.5t-29.5 -8.5h-133q-18 0 -25.5 7t-7.5 24zM762 1745v180q0 29 24 29h156q25 0 25 -27v-178q0 -18 -9.5 -26.5t-29.5 -8.5h-134q-18 0 -25 7t-7 24z" />
<glyph unicode="&#xcc;" horiz-adv-x="610" d="M13 1851l36 107q2 10 10.5 14t18.5 0l475 -199q10 -4 13.5 -12t-3.5 -20l-18 -54q-4 -14 -12 -18t-25 0l-471 141q-18 6 -23.5 15.5t-0.5 25.5zM180 33v1456q0 31 29 31h192q27 0 27 -31v-1450q0 -23 -9 -31t-34 -8h-168q-20 0 -28.5 7t-8.5 26z" />
<glyph unicode="&#xcd;" horiz-adv-x="610" d="M30 1753q0 18 13 20l477 199l8 2q14 0 21 -16l34 -107q4 -12 5 -14q0 -16 -29 -27l-469 -141q-6 -2 -14 -2q-16 0 -23 20l-20 54q-2 4 -3 12zM180 33v1456q0 31 29 31h192q27 0 27 -31v-1450q0 -23 -9 -31t-34 -8h-168q-20 0 -28.5 7t-8.5 26z" />
<glyph unicode="&#xce;" horiz-adv-x="610" d="M-17 1722q0 6 10 17l216 200q12 12 23 18.5t32 6.5h100q14 0 24.5 -7t18.5 -16l213 -202q12 -12 12 -19q0 -8 -16 -8h-137q-27 0 -41 14l-107 105q-18 18 -24 18q-8 0 -27 -18l-112 -105q-12 -10 -18.5 -12t-22.5 -2h-127q-16 0 -17 10zM180 33v1456q0 31 29 31h192 q27 0 27 -31v-1450q0 -23 -9 -31t-34 -8h-168q-20 0 -28.5 7t-8.5 26z" />
<glyph unicode="&#xcf;" horiz-adv-x="610" d="M37 1745v180q0 29 24 29h156q25 0 25 -27v-178q0 -18 -9.5 -26.5t-29.5 -8.5h-133q-18 0 -25.5 7t-7.5 24zM180 33v1456q0 31 29 31h192q27 0 27 -31v-1450q0 -23 -9 -31t-34 -8h-168q-20 0 -28.5 7t-8.5 26zM373 1745v180q0 29 24 29h156q25 0 25 -27v-178 q0 -18 -9.5 -26.5t-29.5 -8.5h-134q-18 0 -25 7t-7 24z" />
<glyph unicode="&#xd0;" horiz-adv-x="1513" d="M61 705v106q0 31 25 31h111v647q0 16 8 23.5t26 7.5q246 0 365 -2q412 -9 605.5 -197t193.5 -553q0 -377 -205 -572.5t-612 -195.5h-345q-37 0 -36 37v635h-101q-18 0 -26.5 8t-8.5 25zM444 205q0 -14 5.5 -19.5t19.5 -5.5h68q211 0 342 57.5t194.5 186.5t63.5 342 q0 209 -58.5 331t-177.5 176t-313 62l-127 2q-16 0 -17 -28v-467h310q23 0 22 -27v-106q0 -20 -10 -28.5t-33 -8.5h-289v-467z" />
<glyph unicode="&#xd1;" horiz-adv-x="1550" d="M180 29v1460q0 16 7.5 23.5t23.5 7.5h160q18 0 27.5 -5.5t17.5 -19.5l717 -1038q12 -14 18 -15q12 0 12 19v1030q0 29 29 29h156q23 0 22 -27v-1466q0 -12 -8 -19.5t-23 -7.5h-133q-16 0 -25.5 3t-19.5 17l-747 1074q-8 14 -15.5 12t-7.5 -14v-1063q0 -29 -33 -29h-145 q-33 0 -33 29zM479 1859q0 10 10 21q39 33 77 49t89 16q37 0 77 -9t75 -21q12 -4 53 -15.5t78 -11.5q63 0 125 43q8 6 18 6q12 0 19 -18l20 -76q2 -4 2 -12q0 -12 -18 -25q-74 -47 -166 -47q-39 0 -71 7t-77 22q-31 10 -63.5 17t-63.5 7q-39 0 -65.5 -10t-61.5 -35 q-8 -6 -16 -6q-10 0 -16 19l-23 65q-2 6 -2 14z" />
<glyph unicode="&#xd2;" horiz-adv-x="1570" d="M121 754q0 246 81 423t231.5 270t354.5 93q203 0 351.5 -93t229.5 -269.5t81 -421.5q0 -244 -80 -418t-229.5 -266t-354.5 -92q-206 0 -355.5 91t-229.5 265t-80 418zM379 754q0 -303 101.5 -447.5t307.5 -144.5q205 0 304.5 143.5t99.5 448.5q0 309 -100.5 457.5 t-303.5 148.5q-205 0 -307 -148.5t-102 -457.5zM492 1851l36 107q2 10 10.5 14t18.5 0l475 -199q10 -4 13.5 -12t-3.5 -20l-18 -54q-4 -14 -12 -18t-25 0l-471 141q-18 6 -23.5 15.5t-0.5 25.5z" />
<glyph unicode="&#xd3;" horiz-adv-x="1570" d="M121 754q0 246 81 423t231.5 270t354.5 93q203 0 351.5 -93t229.5 -269.5t81 -421.5q0 -244 -80 -418t-229.5 -266t-354.5 -92q-206 0 -355.5 91t-229.5 265t-80 418zM379 754q0 -303 101.5 -447.5t307.5 -144.5q205 0 304.5 143.5t99.5 448.5q0 309 -100.5 457.5 t-303.5 148.5q-205 0 -307 -148.5t-102 -457.5zM509 1753q0 18 13 20l477 199l8 2q14 0 21 -16l34 -107q4 -12 5 -14q0 -16 -29 -27l-469 -141q-6 -2 -14 -2q-16 0 -23 20l-20 54q-2 4 -3 12z" />
<glyph unicode="&#xd4;" horiz-adv-x="1570" d="M121 754q0 246 81 423t231.5 270t354.5 93q203 0 351.5 -93t229.5 -269.5t81 -421.5q0 -244 -80 -418t-229.5 -266t-354.5 -92q-206 0 -355.5 91t-229.5 265t-80 418zM379 754q0 -303 101.5 -447.5t307.5 -144.5q205 0 304.5 143.5t99.5 448.5q0 309 -100.5 457.5 t-303.5 148.5q-205 0 -307 -148.5t-102 -457.5zM463 1722q0 6 10 17l216 200q12 12 23 18.5t32 6.5h100q14 0 24.5 -7t18.5 -16l213 -202q12 -12 12 -19q0 -8 -16 -8h-137q-27 0 -41 14l-107 105q-18 18 -24 18q-8 0 -27 -18l-112 -105q-12 -10 -18.5 -12t-22.5 -2h-127 q-16 0 -17 10z" />
<glyph unicode="&#xd5;" horiz-adv-x="1570" d="M121 754q0 246 81 423t231.5 270t354.5 93q203 0 351.5 -93t229.5 -269.5t81 -421.5q0 -244 -80 -418t-229.5 -266t-354.5 -92q-206 0 -355.5 91t-229.5 265t-80 418zM379 754q0 -303 101.5 -447.5t307.5 -144.5q205 0 304.5 143.5t99.5 448.5q0 309 -100.5 457.5 t-303.5 148.5q-205 0 -307 -148.5t-102 -457.5zM471 1859q0 10 10 21q39 33 77 49t89 16q37 0 77 -9t75 -21q12 -4 53 -15.5t78 -11.5q63 0 125 43q8 6 18 6q12 0 19 -18l20 -76q2 -4 2 -12q0 -12 -18 -25q-74 -47 -166 -47q-39 0 -71 7t-77 22q-31 10 -63.5 17t-63.5 7 q-39 0 -65.5 -10t-61.5 -35q-8 -6 -16 -6q-10 0 -16 19l-23 65q-2 6 -2 14z" />
<glyph unicode="&#xd6;" horiz-adv-x="1570" d="M121 754q0 246 81 423t231.5 270t354.5 93q203 0 351.5 -93t229.5 -269.5t81 -421.5q0 -244 -80 -418t-229.5 -266t-354.5 -92q-206 0 -355.5 91t-229.5 265t-80 418zM379 754q0 -303 101.5 -447.5t307.5 -144.5q205 0 304.5 143.5t99.5 448.5q0 309 -100.5 457.5 t-303.5 148.5q-205 0 -307 -148.5t-102 -457.5zM516 1745v180q0 29 24 29h156q25 0 25 -27v-178q0 -18 -9.5 -26.5t-29.5 -8.5h-133q-18 0 -25.5 7t-7.5 24zM852 1745v180q0 29 24 29h156q25 0 25 -27v-178q0 -18 -9.5 -26.5t-29.5 -8.5h-134q-18 0 -25 7t-7 24z" />
<glyph unicode="&#xd7;" horiz-adv-x="1128" d="M129 1092q0 8 12 20l76 78q18 18 35 4l313 -313l305 307q16 12 25 12q12 0 20 -12l76 -76q18 -18 4 -35l-313 -313l311 -311q8 -6 8 -17q0 -8 -8 -16l-75 -78q-10 -10 -23 -10q-16 0 -31 14l-299 301l-311 -311q-8 -8 -16 -8q-4 0 -17 8l-76 76q-12 12 -12 22q0 12 17 29 l299 299l-308 307q-12 12 -12 23z" />
<glyph unicode="&#xd8;" horiz-adv-x="1515" d="M37 82q0 10 10 20l158 172q-113 188 -113 480q0 246 81 423t231.5 270t355.5 93q283 0 457 -178l145 158q12 14 24 14q10 0 17 -6l76 -74q8 -8 8 -18t-8 -19l-166 -180q111 -193 110 -481q0 -244 -79.5 -418t-229 -266t-354.5 -92q-283 0 -457 170l-135 -148 q-14 -16 -29 -16q-16 0 -30 14l-54 53q-18 18 -18 29zM354 754q0 -172 45 -283l664 737q-98 150 -303 150t-305.5 -147.5t-100.5 -456.5zM455 305q98 -141 307 -141q205 0 302 142.5t97 447.5q0 173 -45 284z" />
<glyph unicode="&#xd9;" horiz-adv-x="1460" d="M162 559v928q0 33 26 33h195q27 0 27 -31v-973q0 -352 338 -352q344 0 344 358v967q0 31 24 31h156q25 0 24 -29v-967q0 -284 -143 -414t-424 -130q-297 0 -432 142t-135 437zM453 1851l36 107q2 10 10.5 14t18.5 0l475 -199q10 -4 13.5 -12t-3.5 -20l-18 -54 q-4 -14 -12 -18t-25 0l-471 141q-18 6 -23.5 15.5t-0.5 25.5z" />
<glyph unicode="&#xda;" horiz-adv-x="1460" d="M162 559v928q0 33 26 33h195q27 0 27 -31v-973q0 -352 338 -352q344 0 344 358v967q0 31 24 31h156q25 0 24 -29v-967q0 -284 -143 -414t-424 -130q-297 0 -432 142t-135 437zM471 1753q0 18 13 20l477 199l8 2q14 0 21 -16l34 -107q4 -12 5 -14q0 -16 -29 -27l-469 -141 q-6 -2 -14 -2q-16 0 -23 20l-20 54q-2 4 -3 12z" />
<glyph unicode="&#xdb;" horiz-adv-x="1460" d="M162 559v928q0 33 26 33h195q27 0 27 -31v-973q0 -352 338 -352q344 0 344 358v967q0 31 24 31h156q25 0 24 -29v-967q0 -284 -143 -414t-424 -130q-297 0 -432 142t-135 437zM424 1722q0 6 10 17l216 200q12 12 23 18.5t32 6.5h100q14 0 24.5 -7t18.5 -16l213 -202 q12 -12 12 -19q0 -8 -16 -8h-137q-27 0 -41 14l-107 105q-18 18 -24 18q-8 0 -27 -18l-112 -105q-12 -10 -18.5 -12t-22.5 -2h-127q-16 0 -17 10z" />
<glyph unicode="&#xdc;" horiz-adv-x="1460" d="M162 559v928q0 33 26 33h195q27 0 27 -31v-973q0 -352 338 -352q344 0 344 358v967q0 31 24 31h156q25 0 24 -29v-967q0 -284 -143 -414t-424 -130q-297 0 -432 142t-135 437zM477 1745v180q0 29 24 29h156q25 0 25 -27v-178q0 -18 -9.5 -26.5t-29.5 -8.5h-133 q-18 0 -25.5 7t-7.5 24zM813 1745v180q0 29 24 29h156q25 0 25 -27v-178q0 -18 -9.5 -26.5t-29.5 -8.5h-134q-18 0 -25 7t-7 24z" />
<glyph unicode="&#xdd;" horiz-adv-x="1421" d="M78 1499q0 20 31 21h196q20 0 29.5 -6.5t19.5 -22.5l357 -617q12 -23 22 -22q12 0 21 18l354 621q8 18 17.5 23.5t29.5 5.5h164q16 0 22.5 -9.5t-2.5 -23.5l-485 -807q-8 -14 -11 -28.5t-3 -51.5v-559q0 -23 -10.5 -32t-34.5 -9h-166q-35 0 -35 35v563q0 20 -4 31.5 t-15 29.5l-491 822q-6 10 -6 18zM440 1753q0 18 13 20l477 199l8 2q14 0 21 -16l34 -107q4 -12 5 -14q0 -16 -29 -27l-469 -141q-6 -2 -14 -2q-16 0 -23 20l-20 54q-2 4 -3 12z" />
<glyph unicode="&#xde;" horiz-adv-x="1439" d="M180 31v1458q0 31 29 31h192q27 0 27 -31v-262q0 -16 16 -17h322q256 0 414.5 -108.5t158.5 -317.5q0 -219 -148.5 -331.5t-395.5 -112.5h-346q-20 0 -21 -21v-284q0 -35 -37 -35h-178q-33 0 -33 31zM428 553q0 -31 23 -31h315q150 0 234.5 66.5t84.5 197.5 q1 240 -331 240h-295q-16 0 -23.5 -6t-7.5 -21v-446z" />
<glyph unicode="&#xdf;" horiz-adv-x="1271" d="M43 924v106q0 27 29 27h90q20 0 20 24q4 197 127 318t357 121q190 0 286.5 -83t96.5 -214q0 -106 -62.5 -167t-195.5 -122q-61 -33 -82 -51.5t-21 -51.5q0 -31 20.5 -45t79.5 -34q129 -49 205 -89t135.5 -119t59.5 -202q0 -172 -117 -267t-303 -95q-76 0 -145.5 16 t-118.5 45q-23 10 -10 29l53 104q8 16 31 6q41 -25 81.5 -38t96.5 -13q106 0 169.5 50t63.5 140q0 63 -31.5 104.5t-82 67t-134.5 54.5q-104 39 -163.5 91t-59.5 152q0 76 40 128.5t126 103.5q14 10 63.5 42t74 69.5t24.5 85.5q0 70 -52.5 110.5t-142.5 40.5 q-119 0 -187.5 -70.5t-68.5 -201.5v-1065q2 -4 2 -13q0 -18 -22 -18h-168q-10 0 -17.5 7t-7.5 20v854q0 20 -16 20h-96q-27 0 -27 23z" />
<glyph unicode="&#xe0;" horiz-adv-x="1130" d="M74 276q0 166 144 264.5t411 110.5l133 11q33 4 33 30v51q0 100 -61.5 159t-168.5 59q-168 0 -268 -152q-6 -12 -13.5 -15t-21.5 1l-139 41q-12 4 -12 16q0 8 6 22q57 111 175 171.5t283 60.5q215 0 322 -92t107 -256v-723q0 -20 -7.5 -27.5t-23.5 -7.5h-137 q-29 0 -33 41l-4 78q-4 16 -13 16q-6 0 -22 -12q-149 -143 -350 -143q-158 0 -249 80.5t-91 215.5zM275 1417l36 107q2 10 10.5 14t18.5 0l475 -199q10 -4 13.5 -12t-3.5 -20l-18 -54q-4 -14 -12 -18t-25 0l-471 141q-18 6 -23.5 15.5t-0.5 25.5zM287 303q0 -80 57 -126 t154 -46q111 0 209 76q88 72 88 143v160q0 33 -29 31l-111 -9q-170 -10 -269 -68t-99 -161z" />
<glyph unicode="&#xe1;" horiz-adv-x="1130" d="M74 276q0 166 144 264.5t411 110.5l133 11q33 4 33 30v51q0 100 -61.5 159t-168.5 59q-168 0 -268 -152q-6 -12 -13.5 -15t-21.5 1l-139 41q-12 4 -12 16q0 8 6 22q57 111 175 171.5t283 60.5q215 0 322 -92t107 -256v-723q0 -20 -7.5 -27.5t-23.5 -7.5h-137 q-29 0 -33 41l-4 78q-4 16 -13 16q-6 0 -22 -12q-149 -143 -350 -143q-158 0 -249 80.5t-91 215.5zM287 303q0 -80 57 -126t154 -46q111 0 209 76q88 72 88 143v160q0 33 -29 31l-111 -9q-170 -10 -269 -68t-99 -161zM292 1319q0 18 13 20l477 199l8 2q14 0 21 -16l34 -107 q4 -12 5 -14q0 -16 -29 -27l-469 -141q-6 -2 -14 -2q-16 0 -23 20l-20 54q-2 4 -3 12z" />
<glyph unicode="&#xe2;" horiz-adv-x="1130" d="M74 276q0 166 144 264.5t411 110.5l133 11q33 4 33 30v51q0 100 -61.5 159t-168.5 59q-168 0 -268 -152q-6 -12 -13.5 -15t-21.5 1l-139 41q-12 4 -12 16q0 8 6 22q57 111 175 171.5t283 60.5q215 0 322 -92t107 -256v-723q0 -20 -7.5 -27.5t-23.5 -7.5h-137 q-29 0 -33 41l-4 78q-4 16 -13 16q-6 0 -22 -12q-149 -143 -350 -143q-158 0 -249 80.5t-91 215.5zM246 1288q0 6 10 17l216 200q12 12 23 18.5t32 6.5h100q14 0 24.5 -7t18.5 -16l213 -202q12 -12 12 -19q0 -8 -16 -8h-137q-27 0 -41 14l-107 105q-18 18 -24 18 q-8 0 -27 -18l-112 -105q-12 -10 -18.5 -12t-22.5 -2h-127q-16 0 -17 10zM287 303q0 -80 57 -126t154 -46q111 0 209 76q88 72 88 143v160q0 33 -29 31l-111 -9q-170 -10 -269 -68t-99 -161z" />
<glyph unicode="&#xe3;" horiz-adv-x="1130" d="M74 276q0 166 144 264.5t411 110.5l133 11q33 4 33 30v51q0 100 -61.5 159t-168.5 59q-168 0 -268 -152q-6 -12 -13.5 -15t-21.5 1l-139 41q-12 4 -12 16q0 8 6 22q57 111 175 171.5t283 60.5q215 0 322 -92t107 -256v-723q0 -20 -7.5 -27.5t-23.5 -7.5h-137 q-29 0 -33 41l-4 78q-4 16 -13 16q-6 0 -22 -12q-149 -143 -350 -143q-158 0 -249 80.5t-91 215.5zM254 1425q0 10 10 21q39 33 77 49t89 16q37 0 77 -9t75 -21q12 -4 53 -15.5t78 -11.5q63 0 125 43q8 6 18 6q12 0 19 -18l20 -76q2 -4 2 -12q0 -12 -18 -25 q-74 -47 -166 -47q-39 0 -71 7t-77 22q-31 10 -63.5 17t-63.5 7q-39 0 -65.5 -10t-61.5 -35q-8 -6 -16 -6q-10 0 -16 19l-23 65q-2 6 -2 14zM287 303q0 -80 57 -126t154 -46q111 0 209 76q88 72 88 143v160q0 33 -29 31l-111 -9q-170 -10 -269 -68t-99 -161z" />
<glyph unicode="&#xe4;" horiz-adv-x="1130" d="M74 276q0 166 144 264.5t411 110.5l133 11q33 4 33 30v51q0 100 -61.5 159t-168.5 59q-168 0 -268 -152q-6 -12 -13.5 -15t-21.5 1l-139 41q-12 4 -12 16q0 8 6 22q57 111 175 171.5t283 60.5q215 0 322 -92t107 -256v-723q0 -20 -7.5 -27.5t-23.5 -7.5h-137 q-29 0 -33 41l-4 78q-4 16 -13 16q-6 0 -22 -12q-149 -143 -350 -143q-158 0 -249 80.5t-91 215.5zM287 303q0 -80 57 -126t154 -46q111 0 209 76q88 72 88 143v160q0 33 -29 31l-111 -9q-170 -10 -269 -68t-99 -161zM299 1311v180q0 29 24 29h156q25 0 25 -27v-178 q0 -18 -9.5 -26.5t-29.5 -8.5h-133q-18 0 -25.5 7t-7.5 24zM635 1311v180q0 29 24 29h156q25 0 25 -27v-178q0 -18 -9.5 -26.5t-29.5 -8.5h-134q-18 0 -25 7t-7 24z" />
<glyph unicode="&#xe5;" horiz-adv-x="1130" d="M74 276q0 166 144 264.5t411 110.5l133 11q33 4 33 30v51q0 100 -61.5 159t-168.5 59q-168 0 -268 -152q-6 -12 -13.5 -15t-21.5 1l-139 41q-12 4 -12 16q0 8 6 22q57 111 175 171.5t283 60.5q215 0 322 -92t107 -256v-723q0 -20 -7.5 -27.5t-23.5 -7.5h-137 q-29 0 -33 41l-4 78q-4 16 -13 16q-6 0 -22 -12q-149 -143 -350 -143q-158 0 -249 80.5t-91 215.5zM287 303q0 -80 57 -126t154 -46q111 0 209 76q88 72 88 143v160q0 33 -29 31l-111 -9q-170 -10 -269 -68t-99 -161zM352 1431q0 88 64.5 149.5t154.5 61.5q92 0 156 -62.5 t64 -152.5q0 -94 -63.5 -156.5t-156.5 -62.5q-92 0 -155.5 64.5t-63.5 158.5zM457 1425q0 -45 33.5 -78.5t78.5 -33.5q47 0 79 33.5t32 78.5q0 49 -32 80t-79 31q-45 0 -78.5 -32t-33.5 -79z" />
<glyph unicode="&#xe6;" horiz-adv-x="1892" d="M74 285q0 160 133 254t397 110l154 13q37 4 37 30v51q0 102 -60.5 160t-175.5 58q-162 0 -262 -152q-8 -14 -14.5 -16t-22.5 2l-137 41q-10 4 -10 20q0 6 4 18q66 115 176 173.5t280 58.5q145 0 235.5 -44t133.5 -132q63 86 157.5 131t211.5 45q150 0 264.5 -66.5 t178 -193.5t63.5 -301q0 -25 -7.5 -35t-29.5 -10l-733 -2q-23 0 -30 -8.5t-7 -36.5q0 -82 44 -155t118.5 -117t164.5 -44q104 0 171 41t132 119q8 8 13.5 9t17.5 -5l105 -49q10 -6 10 -16q0 -6 -6 -17q-154 -240 -469 -239q-252 0 -422 210q-8 8 -15 0q-88 -98 -192 -154 t-262 -56q-164 0 -255 81.5t-91 223.5zM289 297q0 -78 51 -124t143 -46q84 0 155 29.5t114 80t43 111.5v154q0 18 -7.5 25.5t-25.5 4.5l-127 -8q-162 -12 -254 -70.5t-92 -156.5zM1014 631l553 -2q23 0 29 7t6 26q0 78 -36 146.5t-101.5 110.5t-149.5 42q-129 0 -215 -89.5 t-86 -240.5z" />
<glyph unicode="&#xe7;" horiz-adv-x="1116" d="M86 539q0 164 67.5 293t186.5 201.5t268 72.5q160 0 270.5 -76t165.5 -196q4 -8 5 -19q0 -12 -19 -16l-145 -25h-6q-12 0 -21 17q-57 84 -110.5 123.5t-129.5 39.5q-143 0 -227 -108.5t-84 -302.5q0 -197 86 -305.5t234 -108.5q92 0 158.5 47t123.5 141q6 8 12.5 10.5 t16.5 -1.5l109 -33q18 -6 8 -31q-53 -111 -153.5 -189.5t-246.5 -90.5l-32 -84q-6 -12 8 -13q94 -4 138 -49t44 -106q0 -78 -66.5 -122t-166.5 -44q-115 0 -195 47q-12 6 -10 20l26 60q2 4 7.5 5t11.5 -1q63 -41 133 -41q113 0 113 76q0 43 -41 65.5t-129 24.5q-20 0 -13 14 l62 150q-135 14 -239.5 86.5t-162 193.5t-57.5 275z" />
<glyph unicode="&#xe8;" horiz-adv-x="1191" d="M86 530q0 172 69.5 303.5t189.5 202t267 70.5q152 0 266.5 -66.5t177 -193.5t62.5 -301v-8q0 -18 -5 -27.5t-26 -9.5h-757q-20 0 -21 -33q0 -92 44 -167t120 -119t166 -44q94 0 168 39t135 121q6 8 14 8q10 0 17 -4l104 -49q10 -6 10 -16q0 -6 -6 -17 q-86 -127 -196.5 -183t-268.5 -56q-154 0 -274.5 69.5t-188 195.5t-67.5 285zM313 631l555 -2q20 0 27.5 6t7.5 22q0 80 -33.5 150t-98 112t-153.5 42q-92 0 -161.5 -46.5t-107.5 -121t-36 -162.5zM316 1417l36 107q2 10 10.5 14t18.5 0l475 -199q10 -4 13.5 -12t-3.5 -20 l-18 -54q-4 -14 -12 -18t-25 0l-471 141q-18 6 -23.5 15.5t-0.5 25.5z" />
<glyph unicode="&#xe9;" horiz-adv-x="1191" d="M86 530q0 172 69.5 303.5t189.5 202t267 70.5q152 0 266.5 -66.5t177 -193.5t62.5 -301v-8q0 -18 -5 -27.5t-26 -9.5h-757q-20 0 -21 -33q0 -92 44 -167t120 -119t166 -44q94 0 168 39t135 121q6 8 14 8q10 0 17 -4l104 -49q10 -6 10 -16q0 -6 -6 -17 q-86 -127 -196.5 -183t-268.5 -56q-154 0 -274.5 69.5t-188 195.5t-67.5 285zM313 631l555 -2q20 0 27.5 6t7.5 22q0 80 -33.5 150t-98 112t-153.5 42q-92 0 -161.5 -46.5t-107.5 -121t-36 -162.5zM333 1319q0 18 13 20l477 199l8 2q14 0 21 -16l34 -107q4 -12 5 -14 q0 -16 -29 -27l-469 -141q-6 -2 -14 -2q-16 0 -23 20l-20 54q-2 4 -3 12z" />
<glyph unicode="&#xea;" horiz-adv-x="1191" d="M86 530q0 172 69.5 303.5t189.5 202t267 70.5q152 0 266.5 -66.5t177 -193.5t62.5 -301v-8q0 -18 -5 -27.5t-26 -9.5h-757q-20 0 -21 -33q0 -92 44 -167t120 -119t166 -44q94 0 168 39t135 121q6 8 14 8q10 0 17 -4l104 -49q10 -6 10 -16q0 -6 -6 -17 q-86 -127 -196.5 -183t-268.5 -56q-154 0 -274.5 69.5t-188 195.5t-67.5 285zM286 1288q0 6 10 17l216 200q12 12 23 18.5t32 6.5h100q14 0 24.5 -7t18.5 -16l213 -202q12 -12 12 -19q0 -8 -16 -8h-137q-27 0 -41 14l-107 105q-18 18 -24 18q-8 0 -27 -18l-112 -105 q-12 -10 -18.5 -12t-22.5 -2h-127q-16 0 -17 10zM313 631l555 -2q20 0 27.5 6t7.5 22q0 80 -33.5 150t-98 112t-153.5 42q-92 0 -161.5 -46.5t-107.5 -121t-36 -162.5z" />
<glyph unicode="&#xeb;" horiz-adv-x="1191" d="M86 530q0 172 69.5 303.5t189.5 202t267 70.5q152 0 266.5 -66.5t177 -193.5t62.5 -301v-8q0 -18 -5 -27.5t-26 -9.5h-757q-20 0 -21 -33q0 -92 44 -167t120 -119t166 -44q94 0 168 39t135 121q6 8 14 8q10 0 17 -4l104 -49q10 -6 10 -16q0 -6 -6 -17 q-86 -127 -196.5 -183t-268.5 -56q-154 0 -274.5 69.5t-188 195.5t-67.5 285zM313 631l555 -2q20 0 27.5 6t7.5 22q0 80 -33.5 150t-98 112t-153.5 42q-92 0 -161.5 -46.5t-107.5 -121t-36 -162.5zM340 1311v180q0 29 24 29h156q25 0 25 -27v-178q0 -18 -9.5 -26.5 t-29.5 -8.5h-133q-18 0 -25.5 7t-7.5 24zM676 1311v180q0 29 24 29h156q25 0 25 -27v-178q0 -18 -9.5 -26.5t-29.5 -8.5h-134q-18 0 -25 7t-7 24z" />
<glyph unicode="&#xec;" horiz-adv-x="505" d="M-40 1417l36 107q2 10 10.5 14t18.5 0l475 -199q10 -4 13.5 -12t-3.5 -20l-18 -54q-4 -14 -12 -18t-25 0l-471 141q-18 6 -23.5 15.5t-0.5 25.5zM143 33v1022q0 16 6.5 23t22.5 7h164q25 0 24 -28v-1018q0 -23 -9 -31t-32 -8h-139q-20 0 -28.5 7t-8.5 26z" />
<glyph unicode="&#xed;" horiz-adv-x="505" d="M-23 1319q0 18 13 20l477 199l8 2q14 0 21 -16l34 -107q4 -12 5 -14q0 -16 -29 -27l-469 -141q-6 -2 -14 -2q-16 0 -23 20l-20 54q-2 4 -3 12zM143 33v1022q0 16 6.5 23t22.5 7h164q25 0 24 -28v-1018q0 -23 -9 -31t-32 -8h-139q-20 0 -28.5 7t-8.5 26z" />
<glyph unicode="&#xee;" horiz-adv-x="505" d="M-70 1288q0 6 10 17l216 200q12 12 23 18.5t32 6.5h100q14 0 24.5 -7t18.5 -16l213 -202q12 -12 12 -19q0 -8 -16 -8h-137q-27 0 -41 14l-107 105q-18 18 -24 18q-8 0 -27 -18l-112 -105q-12 -10 -18.5 -12t-22.5 -2h-127q-16 0 -17 10zM143 33v1022q0 16 6.5 23t22.5 7 h164q25 0 24 -28v-1018q0 -23 -9 -31t-32 -8h-139q-20 0 -28.5 7t-8.5 26z" />
<glyph unicode="&#xef;" horiz-adv-x="505" d="M-16 1311v180q0 29 24 29h156q25 0 25 -27v-178q0 -18 -9.5 -26.5t-29.5 -8.5h-133q-18 0 -25.5 7t-7.5 24zM143 33v1022q0 16 6.5 23t22.5 7h164q25 0 24 -28v-1018q0 -23 -9 -31t-32 -8h-139q-20 0 -28.5 7t-8.5 26zM320 1311v180q0 29 24 29h156q25 0 25 -27v-178 q0 -18 -9.5 -26.5t-29.5 -8.5h-134q-18 0 -25 7t-7 24z" />
<glyph unicode="&#xf0;" d="M86 516q0 158 66.5 283t184.5 195.5t265 70.5q129 0 211 -78q-82 168 -262 291l-283 -160q-12 -4 -14 -4q-10 0 -21 16l-24 37q-6 10 -6 17q0 10 10 14l246 139q-109 57 -205 95q-10 4 -11 10t7 14l94 74q4 2 9 5t12 3q10 0 18 -4q129 -43 242 -104l188 106q4 2 10 2 q10 0 17 -6l30 -57q10 -12 -4 -23l-147 -82q215 -147 318.5 -357t103.5 -468q0 -168 -64.5 -296t-185.5 -198.5t-281 -70.5q-154 0 -272.5 68.5t-185 191t-66.5 276.5zM307 522q0 -174 86 -281.5t223 -107.5q138 0 221 107.5t83 281.5q0 176 -84 284.5t-222 108.5 q-90 0 -159.5 -50t-108.5 -139t-39 -204z" />
<glyph unicode="&#xf1;" horiz-adv-x="1204" d="M143 33v1022q0 31 27 30h162q25 0 24 -26v-113q0 -12 5.5 -14t15.5 8q106 86 188 126t178 40q154 0 241 -85t87 -228v-756q0 -37 -35 -37h-151q-31 0 -31 33v717q0 92 -48 142t-144 50q-78 0 -144.5 -36t-157.5 -118v-753q0 -18 -9 -26.5t-29 -8.5h-146q-33 0 -33 33z M303 1425q0 10 10 21q39 33 77 49t89 16q37 0 77 -9t75 -21q12 -4 53 -15.5t78 -11.5q63 0 125 43q8 6 18 6q12 0 19 -18l20 -76q2 -4 2 -12q0 -12 -18 -25q-74 -47 -166 -47q-39 0 -71 7t-77 22q-31 10 -63.5 17t-63.5 7q-39 0 -65.5 -10t-61.5 -35q-8 -6 -16 -6 q-10 0 -16 19l-23 65q-2 6 -2 14z" />
<glyph unicode="&#xf2;" d="M86 537q0 166 67.5 296t187.5 201.5t273 71.5q156 0 276 -72.5t185.5 -202t65.5 -292.5q0 -162 -66.5 -289t-186.5 -198.5t-276 -71.5q-155 0 -275 70.5t-185.5 197.5t-65.5 289zM307 543q0 -193 82 -301.5t227 -108.5q144 0 224 107.5t80 302.5t-81 304t-225 109 q-143 0 -225 -109.5t-82 -303.5zM320 1417l36 107q2 10 10.5 14t18.5 0l475 -199q10 -4 13.5 -12t-3.5 -20l-18 -54q-4 -14 -12 -18t-25 0l-471 141q-18 6 -23.5 15.5t-0.5 25.5z" />
<glyph unicode="&#xf3;" d="M86 537q0 166 67.5 296t187.5 201.5t273 71.5q156 0 276 -72.5t185.5 -202t65.5 -292.5q0 -162 -66.5 -289t-186.5 -198.5t-276 -71.5q-155 0 -275 70.5t-185.5 197.5t-65.5 289zM307 543q0 -193 82 -301.5t227 -108.5q144 0 224 107.5t80 302.5t-81 304t-225 109 q-143 0 -225 -109.5t-82 -303.5zM337 1319q0 18 13 20l477 199l8 2q14 0 21 -16l34 -107q4 -12 5 -14q0 -16 -29 -27l-469 -141q-6 -2 -14 -2q-16 0 -23 20l-20 54q-2 4 -3 12z" />
<glyph unicode="&#xf4;" d="M86 537q0 166 67.5 296t187.5 201.5t273 71.5q156 0 276 -72.5t185.5 -202t65.5 -292.5q0 -162 -66.5 -289t-186.5 -198.5t-276 -71.5q-155 0 -275 70.5t-185.5 197.5t-65.5 289zM291 1288q0 6 10 17l216 200q12 12 23 18.5t32 6.5h100q14 0 24.5 -7t18.5 -16l213 -202 q12 -12 12 -19q0 -8 -16 -8h-137q-27 0 -41 14l-107 105q-18 18 -24 18q-8 0 -27 -18l-112 -105q-12 -10 -18.5 -12t-22.5 -2h-127q-16 0 -17 10zM307 543q0 -193 82 -301.5t227 -108.5q144 0 224 107.5t80 302.5t-81 304t-225 109q-143 0 -225 -109.5t-82 -303.5z" />
<glyph unicode="&#xf5;" d="M86 537q0 166 67.5 296t187.5 201.5t273 71.5q156 0 276 -72.5t185.5 -202t65.5 -292.5q0 -162 -66.5 -289t-186.5 -198.5t-276 -71.5q-155 0 -275 70.5t-185.5 197.5t-65.5 289zM299 1425q0 10 10 21q39 33 77 49t89 16q37 0 77 -9t75 -21q12 -4 53 -15.5t78 -11.5 q63 0 125 43q8 6 18 6q12 0 19 -18l20 -76q2 -4 2 -12q0 -12 -18 -25q-74 -47 -166 -47q-39 0 -71 7t-77 22q-31 10 -63.5 17t-63.5 7q-39 0 -65.5 -10t-61.5 -35q-8 -6 -16 -6q-10 0 -16 19l-23 65q-2 6 -2 14zM307 543q0 -193 82 -301.5t227 -108.5q144 0 224 107.5 t80 302.5t-81 304t-225 109q-143 0 -225 -109.5t-82 -303.5z" />
<glyph unicode="&#xf6;" d="M86 537q0 166 67.5 296t187.5 201.5t273 71.5q156 0 276 -72.5t185.5 -202t65.5 -292.5q0 -162 -66.5 -289t-186.5 -198.5t-276 -71.5q-155 0 -275 70.5t-185.5 197.5t-65.5 289zM307 543q0 -193 82 -301.5t227 -108.5q144 0 224 107.5t80 302.5t-81 304t-225 109 q-143 0 -225 -109.5t-82 -303.5zM344 1311v180q0 29 24 29h156q25 0 25 -27v-178q0 -18 -9.5 -26.5t-29.5 -8.5h-133q-18 0 -25.5 7t-7.5 24zM680 1311v180q0 29 24 29h156q25 0 25 -27v-178q0 -18 -9.5 -26.5t-29.5 -8.5h-134q-18 0 -25 7t-7 24z" />
<glyph unicode="&#xf7;" horiz-adv-x="1159" d="M119 711v106q0 29 20 29h879q25 0 24 -23v-108q0 -18 -9 -25.5t-32 -7.5l-851 -2q-18 0 -24.5 7t-6.5 24zM453 291v190q0 29 22 29h213q23 0 23 -25v-188q0 -20 -9.5 -28.5t-31.5 -8.5h-187q-18 0 -24 7t-6 24zM453 1049v190q0 27 22 27h213q12 0 17.5 -5.5t5.5 -19.5 v-188q0 -18 -9.5 -26.5t-31.5 -8.5h-187q-18 0 -24 7t-6 24z" />
<glyph unicode="&#xf8;" horiz-adv-x="1202" d="M41 76q0 12 12 24l117 113q-86 137 -86 324q0 166 67.5 296t187.5 201.5t273 71.5q211 0 353 -129l96 92q18 14 29 14q10 0 18 -10l45 -45q8 -8 8 -18q0 -12 -10 -21l-109 -104q96 -147 97 -346q0 -162 -66.5 -289t-186.5 -198.5t-276 -71.5q-111 0 -203 34.5t-159 102.5 l-107 -103q-18 -14 -28 -14q-12 0 -27 14l-31 33q-14 14 -14 29zM305 543q0 -98 23 -178l506 487q-80 104 -222 104q-143 0 -225 -109.5t-82 -303.5zM383 248q82 -115 231 -115q143 0 223.5 107.5t80.5 302.5q0 114 -27 194z" />
<glyph unicode="&#xf9;" horiz-adv-x="1193" d="M131 297v752q0 37 37 36h149q31 0 31 -32v-711q0 -90 51.5 -144.5t137.5 -54.5q141 0 297 162v746q0 35 38 34h148q33 0 33 -32l-4 -1024q0 -29 -25 -29h-160q-25 0 -24 27v114q0 25 -21 6q-100 -92 -186 -129.5t-180 -37.5q-141 0 -231.5 87t-90.5 230zM279 1417l36 107 q2 10 10.5 14t18.5 0l475 -199q10 -4 13.5 -12t-3.5 -20l-18 -54q-4 -14 -12 -18t-25 0l-471 141q-18 6 -23.5 15.5t-0.5 25.5z" />
<glyph unicode="&#xfa;" horiz-adv-x="1193" d="M131 297v752q0 37 37 36h149q31 0 31 -32v-711q0 -90 51.5 -144.5t137.5 -54.5q141 0 297 162v746q0 35 38 34h148q33 0 33 -32l-4 -1024q0 -29 -25 -29h-160q-25 0 -24 27v114q0 25 -21 6q-100 -92 -186 -129.5t-180 -37.5q-141 0 -231.5 87t-90.5 230zM296 1319 q0 18 13 20l477 199l8 2q14 0 21 -16l34 -107q4 -12 5 -14q0 -16 -29 -27l-469 -141q-6 -2 -14 -2q-16 0 -23 20l-20 54q-2 4 -3 12z" />
<glyph unicode="&#xfb;" horiz-adv-x="1193" d="M131 297v752q0 37 37 36h149q31 0 31 -32v-711q0 -90 51.5 -144.5t137.5 -54.5q141 0 297 162v746q0 35 38 34h148q33 0 33 -32l-4 -1024q0 -29 -25 -29h-160q-25 0 -24 27v114q0 25 -21 6q-100 -92 -186 -129.5t-180 -37.5q-141 0 -231.5 87t-90.5 230zM250 1288 q0 6 10 17l216 200q12 12 23 18.5t32 6.5h100q14 0 24.5 -7t18.5 -16l213 -202q12 -12 12 -19q0 -8 -16 -8h-137q-27 0 -41 14l-107 105q-18 18 -24 18q-8 0 -27 -18l-112 -105q-12 -10 -18.5 -12t-22.5 -2h-127q-16 0 -17 10z" />
<glyph unicode="&#xfc;" horiz-adv-x="1193" d="M131 297v752q0 37 37 36h149q31 0 31 -32v-711q0 -90 51.5 -144.5t137.5 -54.5q141 0 297 162v746q0 35 38 34h148q33 0 33 -32l-4 -1024q0 -29 -25 -29h-160q-25 0 -24 27v114q0 25 -21 6q-100 -92 -186 -129.5t-180 -37.5q-141 0 -231.5 87t-90.5 230zM303 1311v180 q0 29 24 29h156q25 0 25 -27v-178q0 -18 -9.5 -26.5t-29.5 -8.5h-133q-18 0 -25.5 7t-7.5 24zM639 1311v180q0 29 24 29h156q25 0 25 -27v-178q0 -18 -9.5 -26.5t-29.5 -8.5h-134q-18 0 -25 7t-7 24z" />
<glyph unicode="&#xfd;" horiz-adv-x="1107" d="M51 1061q0 25 29 24h168q12 0 22.5 -7t12.5 -19l282 -737q6 -18 15 -19q12 0 20 25l279 733q10 25 32 24h121q14 0 21.5 -11t1.5 -23l-441 -1117q-43 -111 -96 -169t-123.5 -80.5t-177.5 -22.5q-70 0 -97.5 5t-27.5 26v104q0 29 58 29h133q45 0 85 30.5t62.5 78 t22.5 92.5q0 27 -9 45l-391 975q-2 4 -2 14zM303 1319q0 18 13 20l477 199l8 2q14 0 21 -16l34 -107q4 -12 5 -14q0 -16 -29 -27l-469 -141q-6 -2 -14 -2q-16 0 -23 20l-20 54q-2 4 -3 12z" />
<glyph unicode="&#xfe;" d="M143 -309v1792q0 20 9.5 28.5t29.5 8.5h144q34 0 34 -33v-514q0 -16 9 -17q4 0 18 11q61 61 130 100t183 39q127 0 226.5 -61.5t157 -184.5t57.5 -303q0 -184 -57.5 -314t-162 -196.5t-241.5 -66.5q-166 0 -285 102q-16 14 -24 14q-10 0 -11 -26v-379q0 -29 -24 -29h-166 q-27 0 -27 29zM360 252q60 -62 120.5 -93.5t131.5 -31.5q141 0 224.5 109.5t83.5 320.5q0 205 -82 303t-215 98q-74 0 -134.5 -31.5t-94.5 -81.5t-34 -100v-493z" />
<glyph unicode="&#xff;" horiz-adv-x="1107" d="M51 1061q0 25 29 24h168q12 0 22.5 -7t12.5 -19l282 -737q6 -18 15 -19q12 0 20 25l279 733q10 25 32 24h121q14 0 21.5 -11t1.5 -23l-441 -1117q-43 -111 -96 -169t-123.5 -80.5t-177.5 -22.5q-70 0 -97.5 5t-27.5 26v104q0 29 58 29h133q45 0 85 30.5t62.5 78 t22.5 92.5q0 27 -9 45l-391 975q-2 4 -2 14zM309 1311v180q0 29 24 29h156q25 0 25 -27v-178q0 -18 -9.5 -26.5t-29.5 -8.5h-133q-18 0 -25.5 7t-7.5 24zM645 1311v180q0 29 24 29h156q25 0 25 -27v-178q0 -18 -9.5 -26.5t-29.5 -8.5h-134q-18 0 -25 7t-7 24z" />
<glyph unicode="&#x152;" horiz-adv-x="2304" d="M121 754q0 246 82 423t236.5 270t367.5 93q279 0 416 -190l34 157q8 12 29 13h879q25 0 24 -27l-2 -129q0 -31 -30 -31h-684q-16 0 -23.5 -6t-7.5 -20v-422q0 -14 6 -20.5t20 -6.5h486q27 0 26 -24v-138q0 -23 -24 -22h-490q-25 0 -24 -23v-442q0 -14 4 -18.5t16 -4.5 h723q17 0 23 -5t6 -19v-135q0 -27 -29 -27h-893q-23 0 -26 12l-43 156q-139 -188 -426 -188q-211 0 -362.5 91t-232.5 265t-81 418zM379 754q0 -303 101.5 -447.5t307.5 -144.5q205 0 302.5 143.5t97.5 448.5q0 309 -98.5 457.5t-301.5 148.5q-205 0 -307 -148.5 t-102 -457.5z" />
<glyph unicode="&#x153;" horiz-adv-x="2019" d="M86 537q0 168 67.5 297t187.5 200.5t273 71.5q129 0 232.5 -54.5t167.5 -152.5q12 -12 18 -12q10 0 19 12q61 98 161.5 152.5t223.5 54.5q154 0 269.5 -67.5t178 -195.5t62.5 -302q0 -20 -8.5 -30.5t-28.5 -10.5h-740q-31 0 -30 -37q0 -92 44 -166t118.5 -117t164.5 -43 q94 0 168 39t135 121q6 8 15 8q10 0 16 -4l105 -49q12 -8 12 -16t-8 -17q-86 -127 -196.5 -183t-268.5 -56q-127 0 -230.5 52t-169.5 146q-10 14 -16 15q-8 0 -20 -19q-66 -92 -167.5 -143t-228.5 -51q-155 0 -275 69.5t-185.5 196.5t-65.5 291zM307 543q0 -193 82 -300.5 t227 -107.5q144 0 224 107.5t80 300.5t-82 302t-224 109q-143 0 -225 -109.5t-82 -301.5zM1145 631l553 -2q20 0 27.5 6t7.5 22q0 80 -35 150t-100.5 112t-151.5 42t-154.5 -41t-107.5 -117t-39 -172z" />
<glyph unicode="&#x178;" horiz-adv-x="1421" d="M78 1499q0 20 31 21h196q20 0 29.5 -6.5t19.5 -22.5l357 -617q12 -23 22 -22q12 0 21 18l354 621q8 18 17.5 23.5t29.5 5.5h164q16 0 22.5 -9.5t-2.5 -23.5l-485 -807q-8 -14 -11 -28.5t-3 -51.5v-559q0 -23 -10.5 -32t-34.5 -9h-166q-35 0 -35 35v563q0 20 -4 31.5 t-15 29.5l-491 822q-6 10 -6 18zM447 1745v180q0 29 24 29h156q25 0 25 -27v-178q0 -18 -9.5 -26.5t-29.5 -8.5h-133q-18 0 -25.5 7t-7.5 24zM783 1745v180q0 29 24 29h156q25 0 25 -27v-178q0 -18 -9.5 -26.5t-29.5 -8.5h-134q-18 0 -25 7t-7 24z" />
<glyph unicode="&#x2c6;" horiz-adv-x="692" d="M20 1288q0 6 10 17l216 200q12 12 23 18.5t32 6.5h100q14 0 24.5 -7t18.5 -16l213 -202q12 -12 12 -19q0 -8 -16 -8h-137q-27 0 -41 14l-107 105q-18 18 -24 18q-8 0 -27 -18l-112 -105q-12 -10 -18.5 -12t-22.5 -2h-127q-16 0 -17 10z" />
<glyph unicode="&#x2dc;" horiz-adv-x="727" d="M45 1425q0 10 10 21q39 33 77 49t89 16q37 0 77 -9t75 -21q12 -4 53 -15.5t78 -11.5q63 0 125 43q8 6 18 6q12 0 19 -18l20 -76q2 -4 2 -12q0 -12 -18 -25q-74 -47 -166 -47q-39 0 -71 7t-77 22q-31 10 -63.5 17t-63.5 7q-39 0 -65.5 -10t-61.5 -35q-8 -6 -16 -6 q-10 0 -16 19l-23 65q-2 6 -2 14z" />
<glyph unicode="&#x2000;" horiz-adv-x="987" />
<glyph unicode="&#x2001;" horiz-adv-x="1974" />
<glyph unicode="&#x2002;" horiz-adv-x="987" />
<glyph unicode="&#x2003;" horiz-adv-x="1974" />
<glyph unicode="&#x2004;" horiz-adv-x="658" />
<glyph unicode="&#x2005;" horiz-adv-x="493" />
<glyph unicode="&#x2006;" horiz-adv-x="329" />
<glyph unicode="&#x2007;" horiz-adv-x="329" />
<glyph unicode="&#x2008;" horiz-adv-x="246" />
<glyph unicode="&#x2009;" horiz-adv-x="394" />
<glyph unicode="&#x200a;" horiz-adv-x="109" />
<glyph unicode="&#x2010;" horiz-adv-x="780" d="M119 487v109q0 29 22 29h496q25 0 25 -23v-110q0 -33 -41 -33h-471q-16 0 -23.5 6t-7.5 22z" />
<glyph unicode="&#x2011;" horiz-adv-x="780" d="M119 487v109q0 29 22 29h496q25 0 25 -23v-110q0 -33 -41 -33h-471q-16 0 -23.5 6t-7.5 22z" />
<glyph unicode="&#x2012;" horiz-adv-x="780" d="M119 487v109q0 29 22 29h496q25 0 25 -23v-110q0 -33 -41 -33h-471q-16 0 -23.5 6t-7.5 22z" />
<glyph unicode="&#x2013;" horiz-adv-x="1159" d="M119 471v111q0 27 20 26l879 2q10 0 17 -7t7 -17v-109q0 -35 -41 -35h-851q-18 0 -24.5 6.5t-6.5 22.5z" />
<glyph unicode="&#x2014;" horiz-adv-x="1820" d="M119 471v111q0 27 20 26l1540 2q10 0 17.5 -7t7.5 -17v-109q0 -35 -41 -35h-1513q-18 0 -24.5 6.5t-6.5 22.5z" />
<glyph unicode="&#x2018;" horiz-adv-x="466" d="M100 1026v182q0 12 6 19l164 268q6 12 19.5 18.5t27.5 6.5h35q10 0 15.5 -9.5t1.5 -19.5l-90 -197q-6 -14 -7 -24q0 -14 21 -17l33 -2q16 -2 23 -8t7 -20v-195q0 -25 -22 -24h-213q-20 0 -21 22z" />
<glyph unicode="&#x2019;" horiz-adv-x="466" d="M98 1032l90 197q6 16 7 24q0 14 -21 17l-33 2q-16 2 -23 8t-7 20v195q0 25 22 25h213q20 0 21 -23v-182q0 -12 -7 -19l-163 -268q-6 -12 -19.5 -18t-27.5 -6h-35q-11 0 -16 9t-1 19z" />
<glyph unicode="&#x201a;" horiz-adv-x="466" d="M98 -242l90 199q6 14 7 25q0 14 -21 16l-33 2q-16 2 -23 8t-7 21v194q0 25 22 25h213q20 0 21 -23v-182q0 -12 -7 -18l-163 -269q-6 -12 -19.5 -18t-27.5 -6h-35q-11 0 -16 8t-1 18z" />
<glyph unicode="&#x201c;" horiz-adv-x="858" d="M98 1026v182q0 6 6 19l164 268q14 25 49 25h33q12 0 17.5 -8.5t1.5 -18.5l-90 -199q-6 -14 -7 -24q0 -12 19 -17l35 -2q16 -2 22 -8t6 -20v-193q0 -27 -20 -26h-213q-23 -1 -23 22zM492 1026v182q0 12 6 19l164 268q14 25 47 25h34q10 0 15.5 -8.5t1.5 -18.5l-88 -199 q-8 -20 -8 -24q0 -14 20 -17l33 -2q16 -2 23.5 -8t7.5 -20v-193q0 -27 -23 -26h-213q-20 -1 -20 22z" />
<glyph unicode="&#x201d;" horiz-adv-x="862" d="M98 1032l90 197q6 16 7 24q0 14 -21 17l-33 2q-16 2 -23 8t-7 20v195q0 25 22 25h213q20 0 21 -23v-182q0 -12 -7 -19l-163 -268q-6 -12 -19.5 -18t-27.5 -6h-35q-11 0 -16 9t-1 19zM489 1032l91 197q6 16 6 24q0 14 -19 17l-35 2q-16 2 -22 8t-6 20v195q0 25 22 25h211 q23 0 23 -23v-182q0 -6 -6 -19l-164 -268q-14 -25 -49 -24h-33q-10 0 -16.5 9t-2.5 19z" />
<glyph unicode="&#x201e;" horiz-adv-x="862" d="M98 -242l90 199q6 14 7 25q0 14 -21 16l-33 2q-16 2 -23 8t-7 21v194q0 25 22 25h213q20 0 21 -23v-182q0 -12 -7 -18l-163 -269q-6 -12 -19.5 -18t-27.5 -6h-35q-11 0 -16 8t-1 18zM489 -242l90 199q6 14 7 25q0 14 -21 16l-33 2q-16 2 -23 8t-7 21v194q0 25 22 25h213 q20 0 21 -23v-182q0 -12 -7 -18l-163 -269q-6 -12 -19.5 -18t-27.5 -6h-35q-11 0 -16 8t-1 18z" />
<glyph unicode="&#x2022;" horiz-adv-x="655" d="M109 772q0 90 63.5 153.5t153.5 63.5t153.5 -63.5t63.5 -153.5t-63.5 -153.5t-153.5 -63.5t-153.5 63.5t-63.5 153.5z" />
<glyph unicode="&#x2026;" horiz-adv-x="1624" d="M98 33v203q0 14 7.5 21t17.5 7h205q25 0 24 -26v-201q0 -20 -10 -28.5t-35 -8.5h-174q-35 0 -35 33zM671 33v203q0 14 7.5 21t17.5 7h205q25 0 24 -26v-201q0 -20 -10 -28.5t-35 -8.5h-174q-35 0 -35 33zM1243 33v203q0 14 7.5 21t17.5 7h205q25 0 24 -26v-201 q0 -20 -10 -28.5t-35 -8.5h-174q-35 0 -35 33z" />
<glyph unicode="&#x202f;" horiz-adv-x="394" />
<glyph unicode="&#x2039;" horiz-adv-x="561" d="M84 526q0 8 8 25l246 362q6 8 12 10.5t12 2.5h80q25 0 17 -23l-187 -358q-4 -12 -4 -21q0 -4 4 -16l187 -346q2 -2 2 -6q0 -10 -25 -11h-76q-16 0 -22 13l-244 342q-10 16 -10 26z" />
<glyph unicode="&#x203a;" horiz-adv-x="563" d="M102 911q0 14 19 15h80q8 0 13 -2t11 -11l246 -362q8 -16 8 -25q0 -10 -10 -26l-244 -342q-6 -12 -22 -13h-76q-16 0 -20.5 4.5t-2.5 12.5l187 346q4 6 4 18t-4 19l-187 358z" />
<glyph unicode="&#x205f;" horiz-adv-x="493" />
<glyph unicode="&#x20ac;" horiz-adv-x="1261" d="M-20 557v74q0 29 22 28h152q-4 70 -4 105t4 100h-144q-31 0 -30 29v74q0 29 22 28h170q51 258 211 401.5t399 143.5q115 0 216.5 -40t179.5 -111q6 -6 6 -13q0 -8 -15 -22l-102 -88q-14 -10 -27 -11q-10 0 -16 7q-106 96 -223 96q-152 0 -247 -90t-130 -271h377 q10 0 16 -7t6 -17v-74q0 -18 -9 -25.5t-30 -7.5h-376q-4 -66 -5 -104q0 -37 5 -103h393q10 0 16 -6t6 -16v-74q0 -18 -9 -25.5t-30 -7.5h-360q39 -180 138.5 -270t252.5 -90q70 0 133.5 26.5t112.5 67.5q16 16 29 4l88 -102q8 -6 11 -14.5t-3 -14.5q-76 -72 -179.5 -114.5 t-218.5 -42.5q-242 0 -402.5 145t-213.5 403h-162q-16 0 -23 6.5t-7 22.5z" />
<glyph unicode="&#x2122;" horiz-adv-x="1955" d="M49 1419v82q0 18 21 19h702q18 0 19 -19v-82q0 -8 -4.5 -11t-14.5 -3h-254q-12 0 -12 -12v-805q0 -18 -19 -19h-120q-16 0 -17 19v803q0 14 -14 14h-268q-18 0 -19 14zM926 592v907q0 20 18 21h168q18 0 25 -17l256 -672q10 -23 18 3l252 665q10 20 23 21h174 q16 0 16 -21v-907q0 -23 -23 -23h-110q-20 0 -21 21v702q0 6 -3 5t-5 -7l-264 -702q-6 -18 -25 -19h-75q-20 0 -27 17l-258 696q-2 8 -6 8t-4 -8v-694q0 -10 -4 -14.5t-15 -4.5h-90q-20 0 -20 23z" />
<glyph unicode="&#x25fc;" horiz-adv-x="1085" d="M0 0v1085h1085v-1085h-1085z" />
</font>
</defs>
</svg>
