<?xml version="1.0" standalone="no"?>
<!DOCTYPE svg PUBLIC "-//W3C//DTD SVG 1.1//EN" "http://www.w3.org/Graphics/SVG/1.1/DTD/svg11.dtd" >
<svg xmlns="http://www.w3.org/2000/svg">
<metadata></metadata>
<defs>
<font id="libre_franklinextrabold" horiz-adv-x="1228" >
<font-face units-per-em="2048" ascent="1638" descent="-410" />
<missing-glyph horiz-adv-x="415" />
<glyph unicode="&#xfb01;" horiz-adv-x="1402" d="M39 872v172q0 41 45 41h117q14 0 20 7.5t6 25.5v117q0 133 82 209t228 76h221q27 0 40 -12.5t13 -34.5v-156q0 -16 -8 -26.5t-25 -10.5h-98q-41 0 -69.5 -33t-28.5 -80v-57q0 -25 24 -25h150q22 0 33.5 -11t11.5 -30v-172q0 -35 -39 -34h-148q-23 0 -22 -25v-772 q0 -41 -37 -41h-295q-33 0 -33 39v778q0 20 -16 21h-131q-20 0 -30.5 8t-10.5 26zM938 1245v230q0 20 10.5 32.5t26.5 12.5h295q16 0 26.5 -11.5t10.5 -29.5v-228q0 -29 -15.5 -42t-48.5 -13h-256q-27 0 -38 12.5t-11 36.5zM940 47v995q0 43 37 43h293q35 0 35 -38v-992 q0 -31 -14.5 -43t-47.5 -12h-254q-29 0 -39 11.5t-10 35.5z" />
<glyph unicode="&#xfb02;" horiz-adv-x="1404" d="M39 872v172q0 41 45 41h117q14 0 20 7.5t6 25.5v117q0 133 82 209t228 76h221q27 0 40 -12.5t13 -34.5v-156q0 -16 -8 -26.5t-25 -10.5h-98q-41 0 -69.5 -33t-28.5 -80v-57q0 -25 24 -25h150q22 0 33.5 -11t11.5 -30v-172q0 -35 -39 -34h-148q-23 0 -22 -25v-772 q0 -41 -37 -41h-295q-33 0 -33 39v778q0 20 -16 21h-131q-20 0 -30.5 8t-10.5 26zM938 47l8 1430q0 43 37 43h289q16 0 25.5 -10.5t9.5 -28.5v-1426q0 -31 -14.5 -43t-47.5 -12h-256q-29 0 -40 11.5t-11 35.5z" />
<glyph horiz-adv-x="0" />
<glyph horiz-adv-x="0" />
<glyph unicode="&#xd;" horiz-adv-x="432" />
<glyph unicode=" "  horiz-adv-x="415" />
<glyph unicode="&#x09;" horiz-adv-x="415" />
<glyph unicode="&#xa0;" horiz-adv-x="415" />
<glyph unicode="!" horiz-adv-x="555" d="M68 1477v8q0 16 9 25.5t25 9.5h347q16 0 25 -10.5t7 -28.5l-88 -918q-2 -29 -15 -40t-44 -11h-127q-27 0 -36 10t-11 35zM78 47v283q0 18 10 29.5t27 11.5h319q33 0 33 -39v-277q0 -31 -13.5 -43t-47.5 -12h-277q-27 0 -39 11.5t-12 35.5z" />
<glyph unicode="&#x22;" horiz-adv-x="1003" d="M92 1479v8q0 16 10.5 24.5t24.5 8.5h274q16 0 25.5 -9.5t7.5 -27.5l-76 -549q-4 -31 -16 -42t-45 -11h-80q-27 0 -36 10t-13 37zM584 1479v8q0 16 10.5 24.5t24.5 8.5h274q16 0 25.5 -9.5t7.5 -27.5l-76 -549q-4 -31 -16 -42t-45 -11h-80q-27 0 -36 10t-13 37z" />
<glyph unicode="#" horiz-adv-x="1234" d="M20 508v92q0 43 37 43h228l37 250h-185q-27 0 -38 10t-11 35v92q0 43 37 43h223l60 402q4 25 12 36t22 9l115 -13q39 -4 33 -37l-58 -397h269l59 402q10 47 35 45l115 -13q39 -4 32 -37l-57 -397h195q16 0 25 -10t9 -27v-92q0 -27 -15 -39t-46 -12h-195l-36 -250h190 q16 0 25.5 -10t9.5 -27v-92q0 -27 -15.5 -39t-46.5 -12h-190l-59 -406q-4 -37 -14.5 -49t-43.5 -8l-76 10q-31 6 -42 13.5t-9 29.5l60 410h-269l-59 -406q-4 -37 -15.5 -49t-43.5 -8l-74 10q-33 6 -43 13.5t-8 29.5l59 410h-188q-27 0 -38.5 10t-11.5 35zM469 643h268 l37 250h-268z" />
<glyph unicode="$" horiz-adv-x="1374" d="M45 219q0 12 12 25l140 155q18 20 34 21q16 0 33 -17q119 -121 277 -149l14 -2q20 0 20 22l3 299q0 16 -6.5 24.5t-22.5 12.5q-463 84 -463 457q0 164 115.5 281.5t330.5 158.5q16 4 29.5 15.5t13.5 25.5v70q0 14 9.5 22.5t19.5 8.5h158q20 0 30.5 -9.5t10.5 -33.5v-74 q0 -8 6 -13.5t25 -9.5q205 -47 344 -145q20 -10 20 -29q0 -12 -10 -26l-125 -160q-14 -18 -29 -19q-14 0 -35 19q-70 66 -172 98l-8 2q-18 0 -18 -18v-289q0 -10 6 -16t20 -8l125 -33q158 -43 256.5 -158t98.5 -266q0 -189 -126 -316t-339 -149q-27 -2 -33 -9t-6 -30v-59 q0 -29 -13.5 -41.5t-44.5 -12.5h-124q-27 0 -38.5 11.5t-11.5 35.5v70q0 20 -7 27.5t-25 7.5q-141 8 -250 51t-209 123q-35 25 -35 49zM385 1110q0 -57 36 -94t114 -58h10q31 0 30 41v234q0 33 -26 27q-80 -18 -122 -58.5t-42 -91.5zM801 266q-1 -20 28 -14q82 12 128.5 53 t46.5 96q0 129 -179 166h-8q-16 0 -16 -22v-279z" />
<glyph unicode="%" horiz-adv-x="1953" d="M72 1108q0 115 53 215t144 159.5t200 59.5t199 -59.5t142 -159.5t52 -215t-51 -213t-141 -155.5t-201 -57.5t-202 57.5t-143 155.5t-52 213zM338 1106q0 -121 30.5 -181.5t98.5 -60.5q70 0 99.5 60.5t29.5 181.5q0 127 -30.5 191.5t-98.5 64.5q-129 0 -129 -256zM391 27 q0 14 10 30l967 1454q10 16 22.5 20.5t30.5 4.5h123q25 0 25 -16q0 -8 -6 -21l-983 -1485q-10 -12 -22.5 -17t-33.5 -5l-96 2q-18 0 -27.5 9t-9.5 24zM1092 406q0 115 53 215t144 159.5t200 59.5q108 0 198.5 -59.5t142.5 -160t52 -214.5q0 -115 -51 -213.5t-141.5 -155.5 t-200.5 -57q-111 0 -202 57t-143 155.5t-52 213.5zM1358 403q0 -119 30.5 -180t98.5 -61q69 0 99 60.5t30 180.5q0 127 -31 191.5t-98 64.5q-129 0 -129 -256z" />
<glyph unicode="&#x26;" horiz-adv-x="1759" d="M80 397q0 121 84 223.5t268 204.5q20 12 21 23q0 10 -17 29q-59 66 -93 142.5t-34 147.5q0 106 62.5 192.5t173 134.5t250.5 48q141 0 251.5 -41t172 -116.5t61.5 -172.5q0 -98 -83 -205.5t-212 -168.5q-16 -8 -16 -17q0 -8 10 -18l182 -193q12 -12 23 -12q10 0 24 18 q92 109 133 218q12 25 35 24q6 0 19 -4l182 -57q20 -6 29.5 -24.5t3.5 -37.5q-33 -74 -79 -144.5t-124 -170.5q-4 -4 -9 -12.5t-5 -12.5q0 -6 18 -18q88 -59 229 -70q25 -2 35.5 -11t10.5 -30v-211q0 -27 -12.5 -41t-35.5 -14q-297 0 -495 139q-20 10 -29 11q-10 0 -29 -13 q-104 -76 -222 -111.5t-267 -35.5q-246 0 -381 106.5t-135 300.5zM473 442q0 -74 59.5 -130t143.5 -56q49 0 106.5 19.5t91.5 50.5q18 14 19 26q0 10 -12 25l-226 248q-18 18 -30 18q-10 0 -25 -10q-59 -35 -93 -86t-34 -105zM668 1200q0 -45 47 -100l71 -86q8 -8 23 -8 q8 0 20 4q135 72 136 182q0 61 -42 98t-110 37q-65 0 -105 -38t-40 -89z" />
<glyph unicode="'" horiz-adv-x="514" d="M92 1479v8q0 16 10.5 24.5t24.5 8.5h274q16 0 25.5 -9.5t7.5 -27.5l-76 -549q-4 -31 -16 -42t-45 -11h-80q-27 0 -36 10t-13 37z" />
<glyph unicode="(" horiz-adv-x="661" d="M84 584q0 246 74.5 477t208.5 432q20 27 53 27h186q33 0 21 -29q-106 -211 -166 -442.5t-60 -466.5q0 -223 54.5 -435.5t167.5 -451.5q4 -8 4 -14q0 -18 -25 -19h-194q-14 0 -22.5 5t-18.5 20q-141 244 -212 448.5t-71 448.5z" />
<glyph unicode=")" horiz-adv-x="661" d="M33 1503q0 16 22 17h187q33 0 53 -27q133 -201 208 -432.5t75 -476.5q0 -244 -71 -449t-212 -448q-10 -14 -18.5 -19.5t-22.5 -5.5h-195q-16 0 -21 10.5t1 22.5q113 240 167 451.5t54 435.5q0 236 -59.5 467t-165.5 442q-2 4 -2 12z" />
<glyph unicode="*" horiz-adv-x="1011" d="M51 1126q0 4 4 21l51 137q10 31 39 19l252 -115q4 -2 11 -2q18 0 14 16l-25 289q0 10 7.5 19.5t21.5 9.5h168q14 0 22.5 -9.5t6.5 -19.5l-27 -291v-4q0 -18 18 -10l258 114l17 5q23 0 29 -29l43 -133l4 -17q0 -25 -27 -28l-260 -74q-10 -2 -11 -10t7 -17l180 -213 q8 -8 8 -20q0 -20 -24 -35l-111 -76q-18 -12 -33 -12q-18 0 -24 12l-150 252q-4 6 -11 6t-11 -6l-152 -258q-8 -12 -24 -12t-27 8l-127 90q-16 10 -16 23q0 12 10 22l188 221q4 8 4 11q0 12 -16 16l-266 72q-20 6 -21 28z" />
<glyph unicode="+" horiz-adv-x="1212" d="M90 680v172q0 43 35 43h354v340q0 27 10.5 37t34.5 10h172q43 0 43 -35v-352h353q14 0 23 -10.5t9 -26.5v-172q0 -27 -14 -39t-45 -12h-326v-352q0 -16 -10 -25.5t-27 -9.5h-172q-27 0 -39 14t-12 47v326h-340q-27 0 -38 10t-11 35z" />
<glyph unicode="," horiz-adv-x="544" d="M76 47v285q0 20 9 30.5t26 10.5h319q33 0 33 -37v-275q0 -16 -8 -30l-217 -318q-12 -20 -37 -31.5t-47 -11.5h-41q-19 0 -28 15.5t-1 31.5l100 224q10 25 11 34q0 25 -29 25h-41q-27 0 -38 11.5t-11 35.5z" />
<glyph unicode="-" horiz-adv-x="778" d="M92 457v170q0 41 35 41l526 2q14 0 23.5 -11.5t9.5 -27.5v-168q0 -29 -14.5 -41t-46.5 -12h-484q-29 0 -39 11t-10 36z" />
<glyph unicode="." horiz-adv-x="544" d="M74 47v289q0 41 35 41h319q35 0 35 -37v-285q0 -31 -14.5 -43t-49.5 -12h-274q-29 0 -40 11.5t-11 35.5z" />
<glyph unicode="/" horiz-adv-x="763" d="M6 18l510 1469q12 33 49 33h156q20 0 28.5 -6.5t8.5 -22.5q0 -14 -6 -33l-496 -1427q-8 -27 -23.5 -37t-42.5 -10h-153q-41 -1 -31 34z" />
<glyph unicode="0" horiz-adv-x="1466" d="M78 756q0 227 85 406t234.5 279.5t337.5 100.5q187 0 336.5 -100.5t233.5 -279.5t84 -406t-83 -402.5t-231.5 -272.5t-339.5 -97q-193 0 -342 97t-232 272t-83 403zM498 754q0 -260 55 -372t180 -112t180.5 111t55.5 373q0 268 -56.5 385.5t-179.5 117.5t-179 -117.5 t-56 -385.5z" />
<glyph unicode="1" horiz-adv-x="1071" d="M76 1106v156q0 23 6 34t27 19l356 178q35 16 52.5 21.5t41.5 5.5h160q33 0 33 -39v-1157q0 -23 20 -23h195q43 0 43 -35v-225q0 -18 -12.5 -29.5t-34.5 -11.5h-842q-43 0 -43 39v227q0 18 10 26.5t31 8.5h196q8 0 15.5 5t7.5 13v768q0 16 -7 22.5t-24 2.5l-182 -49 l-14 -2q-35 0 -35 45z" />
<glyph unicode="2" horiz-adv-x="1349" d="M68 47v180q0 18 19 43t89 82l361 314q139 117 205.5 183t90 113.5t23.5 102.5q0 80 -55.5 129t-145.5 49q-84 0 -149.5 -50t-130.5 -171q-10 -16 -29 -16q-12 0 -33 10l-215 108q-27 12 -26 39q0 16 10 33q111 176 256 260t340 84q174 0 305 -58.5t202.5 -166 t71.5 -248.5q0 -123 -63.5 -223.5t-216.5 -212.5l-369 -269q-12 -8 -12 -16t25 -8h608q43 0 43 -35v-262q0 -18 -11.5 -29.5t-33.5 -11.5h-1108q-29 0 -40 10t-11 37z" />
<glyph unicode="3" horiz-adv-x="1386" d="M53 274q0 25 25 39l184 129q18 12 31 13q14 0 20 -11q98 -98 174 -138t187 -40q109 0 172 47t63 125q0 86 -69.5 138.5t-180.5 56.5l-174 2q-39 0 -39 33v221q0 27 39 33l140 6q109 6 175 56t66 128q0 61 -57 104.5t-139 43.5q-90 0 -165 -34t-157 -114q-14 -14 -24 -14 t-23 12l-174 164q-10 14 -10 22q0 10 10 27q78 96 228.5 156.5t320.5 60.5q182 0 316 -50t206 -141.5t72 -209.5q0 -98 -62.5 -184.5t-173.5 -120.5q-25 -8 -24 -21q0 -14 22 -20q131 -43 208 -136.5t77 -210.5q0 -229 -167 -347.5t-499 -118.5q-182 0 -343 73.5t-245 192.5 q-10 16 -10 28z" />
<glyph unicode="4" horiz-adv-x="1439" d="M63 383v192q0 20 13.5 43t48.5 70l602 787q23 28 40 36.5t54 8.5h299q16 0 26.5 -10.5t10.5 -28.5v-838q0 -23 21 -22h159q41 0 41 -37v-201q0 -41 -45 -41h-153q-23 0 -23 -27v-262q0 -29 -14.5 -41t-46.5 -12h-312q-27 0 -38 11.5t-11 35.5l2 275q0 20 -26 20h-600 q-23 0 -35.5 11.5t-12.5 29.5zM383 631q0 -10 23 -10h317q8 0 13 4t5 10v448q0 31 -6 31t-22 -22l-322 -445q-8 -12 -8 -16z" />
<glyph unicode="5" horiz-adv-x="1398" d="M57 283q0 18 23 32l196 136q16 10 27 10q16 0 35 -19q78 -90 145.5 -133t171.5 -43q127 0 198 61.5t71 155.5q0 92 -65.5 151.5t-184.5 59.5q-55 0 -106.5 -15t-127.5 -52q-16 -8 -24 -9q-6 0 -31 13l-217 117q-14 8 -20.5 18t-6.5 27q0 16 2 26l60 645q4 33 19.5 44.5 t62.5 11.5h878q39 0 48.5 -10.5t7.5 -43.5l-13 -233q-2 -25 -12 -34t-39 -9h-629q-39 0 -39 -35l-20 -194v-9q0 -14 9 -19t22 -1q96 29 151.5 41t124.5 12q162 0 288 -57.5t197.5 -168t71.5 -263.5q0 -160 -77.5 -277t-221 -178t-332.5 -61q-207 0 -374.5 70.5t-249.5 187.5 q-18 29 -19 45z" />
<glyph unicode="6" horiz-adv-x="1419" d="M78 725q0 250 86 433t240.5 280.5t357.5 97.5q137 0 248.5 -48t180.5 -119t87 -136q2 -6 2 -21q0 -23 -23 -30l-260 -78q-4 -2 -10 -2q-12 0 -20.5 9t-12.5 17q-41 63 -82 94t-110 31q-127 0 -201 -93t-74 -249q0 -27 4.5 -38t16.5 -11q4 0 29 8q82 35 141 51.5t141 16.5 q156 0 278 -58.5t189.5 -161t67.5 -233.5q0 -143 -81 -257.5t-221.5 -179t-312.5 -64.5q-201 0 -350 91t-230 259t-81 391zM492 547q0 -129 64.5 -213t170.5 -84q92 0 155.5 62.5t63.5 156.5t-62.5 148.5t-154.5 54.5q-53 0 -115.5 -19.5t-97.5 -42.5q-16 -10 -20 -22.5 t-4 -40.5z" />
<glyph unicode="7" horiz-adv-x="1282" d="M61 1237l25 250q2 33 55 33h1014q33 0 50.5 -15.5t15.5 -36.5l-7 -125q-2 -18 -21 -60t-38 -69q-115 -174 -209 -390t-151.5 -418.5t-67.5 -344.5q-2 -33 -13.5 -47t-33.5 -14h-381q-41 0 -41 35q0 4 4 20q72 250 184.5 497t337.5 603q8 16 9 21q0 14 -27 14h-655 q-53 0 -50 47z" />
<glyph unicode="8" horiz-adv-x="1409" d="M70 373q0 104 53 182t184 147q18 10 19 17q0 4 -15 16q-96 72 -148 142.5t-52 185.5q0 131 70.5 239.5t202.5 173t308 64.5q164 0 298 -55t210 -152.5t76 -216.5q0 -84 -50 -152.5t-145 -117.5q-18 -10 -18 -21q0 -8 16 -20q147 -84 205.5 -168t58.5 -197 q0 -143 -83.5 -247.5t-233 -158.5t-346.5 -54q-274 0 -442 103t-168 290zM418 438q0 -190 289 -190q106 0 165.5 42t59.5 116q0 55 -33 92t-117 65l-168 53q-14 6 -32 7q-39 0 -77 -25t-62.5 -68t-24.5 -92zM498 1114q0 -49 30.5 -86t87.5 -53l146 -47q16 -4 22 -4 q53 0 99.5 58t46.5 120q0 72 -61.5 121t-170.5 49q-86 0 -143 -43t-57 -115z" />
<glyph unicode="9" horiz-adv-x="1419" d="M66 1034q0 143 80.5 258t221 179.5t312.5 64.5q201 0 350.5 -91t230 -259t80.5 -391q0 -250 -86 -433.5t-240.5 -280.5t-357.5 -97q-137 0 -248.5 48t-181 118.5t-88.5 136.5q-2 6 -2 18q0 25 25 33l258 78q4 2 10 2q16 0 23.5 -11.5t9.5 -13.5q41 -63 83 -95t111 -32 q127 0 201 93.5t74 248.5q0 27 -4 38t-17 11q-4 0 -28 -8q-82 -35 -141.5 -51t-141.5 -16q-156 0 -277.5 58t-189 160.5t-67.5 233.5zM475 1051q0 -94 62.5 -148.5t152.5 -54.5q55 0 117.5 19.5t95.5 43.5q16 10 20.5 22.5t4.5 41.5q0 129 -63.5 212t-170.5 83 q-92 0 -155.5 -62.5t-63.5 -156.5z" />
<glyph unicode=":" horiz-adv-x="544" d="M74 55v281q0 20 9 30.5t26 10.5h319q35 0 35 -39v-277q0 -29 -15.5 -42t-48.5 -13h-274q-29 0 -40 12.5t-11 36.5zM74 748v278q0 20 9 31.5t26 11.5h319q35 0 35 -39v-278q0 -29 -15.5 -41.5t-48.5 -12.5h-274q-29 0 -40 12.5t-11 37.5z" />
<glyph unicode=";" horiz-adv-x="552" d="M74 733v289q0 41 35 41h319q35 0 35 -37v-287q0 -29 -14.5 -41t-49.5 -12h-274q-29 0 -40 11.5t-11 35.5zM76 47v285q0 20 9 30.5t26 10.5h319q33 0 33 -37v-275q0 -16 -8 -30l-217 -326q-12 -18 -37 -29.5t-47 -11.5h-41q-19 0 -28 14.5t-1 32.5l100 230q8 18 9 34 q0 25 -27 25h-41q-27 0 -38 11.5t-11 35.5z" />
<glyph unicode="&#x3c;" horiz-adv-x="1206" d="M78 612v207q0 49 53 66l887 344q8 4 22 4q20 0 33.5 -14.5t13.5 -36.5v-176q0 -31 -19 -50.5t-62 -35.5l-537 -205l537 -199q45 -16 63 -33.5t18 -50.5v-176q0 -53 -43 -53q-14 0 -28 6l-885 342q-53 18 -53 61z" />
<glyph unicode="=" horiz-adv-x="1212" d="M90 391v170q0 43 35 43h967q14 0 23 -10t9 -27v-170q0 -53 -59 -53h-926q-27 0 -38 11.5t-11 35.5zM90 879v170q0 43 35 43h967q14 0 23 -10.5t9 -26.5v-170q0 -27 -14 -39t-45 -12l-926 -3q-27 0 -38 11.5t-11 36.5z" />
<glyph unicode="&#x3e;" horiz-adv-x="1206" d="M117 256v176q0 31 19.5 49.5t64.5 34.5l536 199l-536 205q-45 18 -64.5 36.5t-19.5 49.5v176q0 23 13 37t34 14q14 0 22 -4l889 -344q51 -16 51 -66v-207q0 -43 -51 -61l-887 -342q-14 -6 -28 -6q-18 0 -30.5 13t-12.5 40z" />
<glyph unicode="?" horiz-adv-x="1110" d="M0 1196q0 8 4 21q66 158 203 240.5t334 82.5q152 0 269.5 -48t182 -129t64.5 -177q0 -74 -28 -132.5t-68.5 -99.5t-108.5 -98q-96 -76 -144.5 -138.5t-48.5 -156.5q0 -16 -13 -29.5t-34 -13.5h-192q-23 0 -35 13.5t-12 39.5q0 94 29.5 168t70.5 125t105 113 q63 63 91.5 102t28.5 86q0 59 -46 96t-115 37q-72 0 -135.5 -44t-96.5 -119q-6 -14 -12 -19.5t-17 -5.5q-12 0 -18 2l-235 53q-23 6 -23 31zM319 47v283q0 41 35 41h320q16 0 25.5 -10.5t9.5 -28.5v-277q0 -31 -14.5 -43t-49.5 -12h-276q-27 0 -38.5 11.5t-11.5 35.5z" />
<glyph unicode="@" horiz-adv-x="1708" d="M74 537q0 221 104.5 408.5t297 298t446.5 110.5q197 0 366.5 -71t274 -220.5t104.5 -370.5q0 -154 -51 -273.5t-143.5 -186t-212.5 -66.5q-82 0 -131.5 27.5t-71.5 64.5q-10 10 -13 10q-4 0 -14 -12q-49 -55 -117.5 -87t-152.5 -32q-90 0 -163 44t-114 126t-41 189 q0 125 52.5 234.5t147.5 176t222 66.5q78 0 125 -24.5t90 -69.5q4 -4 11 -5q8 0 10 13l4 18q2 14 20 15h162q18 0 17 -17l-72 -428q-4 -16 -4 -45q0 -68 59 -68q43 0 83 35t65.5 106.5t25.5 176.5q0 256 -151.5 369.5t-386.5 113.5q-217 0 -359.5 -83t-209 -223t-66.5 -316 q0 -285 168 -441.5t458 -156.5q119 0 193 25.5t158 80.5q14 8 24 8q12 0 19 -10l73 -100q6 -6 6 -15q0 -12 -20 -26q-74 -58 -203 -97.5t-284 -39.5q-246 0 -428.5 102t-279.5 277.5t-97 388.5zM688 524q0 -75 36 -126.5t101 -51.5q82 0 139.5 69.5t59.5 159.5 q4 78 -35 133.5t-106 55.5q-80 0 -137.5 -69.5t-57.5 -170.5z" />
<glyph unicode="A" horiz-adv-x="1607" d="M57 39q0 14 6 29l504 1409q8 25 20.5 34t37.5 9h356q49 0 70 -52l497 -1405q2 -6 2 -20q0 -18 -7 -30.5t-21 -12.5h-355q-33 0 -43 33l-90 266q-6 12 -11 17.5t-19 5.5h-465q-23 0 -29 -23l-96 -270q-10 -29 -45 -29h-277q-16 0 -25.5 10t-9.5 29zM604 651q0 -18 25 -18 h282q20 0 21 20q0 12 -2 19l-148 411q-2 12 -12 13q-8 0 -12 -13l-150 -411q-4 -8 -4 -21z" />
<glyph unicode="B" horiz-adv-x="1497" d="M125 41v1429q0 23 12.5 36.5t32.5 13.5h586q309 0 471 -101.5t162 -298.5q0 -111 -60.5 -188.5t-208.5 -143.5q-4 -2 -4 -7t4 -7q164 -57 234.5 -142t70.5 -220q0 -209 -158.5 -310.5t-482.5 -101.5h-618q-19 0 -30 12.5t-11 28.5zM539 317q0 -23 6 -32t24 -9h205 q106 0 163.5 50.5t57.5 128.5q0 80 -57 126t-152 46h-204q-25 0 -34 -9.5t-9 -31.5v-269zM539 952q0 -23 6 -33t24 -10h217q84 0 138.5 44t54.5 120q0 78 -58.5 124t-150.5 46h-188q-25 0 -34 -8t-9 -29v-254z" />
<glyph unicode="C" horiz-adv-x="1497" d="M76 776q0 231 87 404.5t246.5 266.5t376.5 93q162 0 297.5 -59.5t221.5 -165t110 -236.5l5 -35q0 -16 -6.5 -21t-22.5 -7l-320 -23q-18 0 -23.5 7.5t-11.5 29.5q-47 225 -239 225q-289 0 -289 -485q0 -258 71.5 -373.5t217.5 -115.5q115 0 195.5 58t133.5 191q6 16 31 17 q12 0 21 -2l231 -45q12 -4 19.5 -12.5t7.5 -28.5q0 -12 -2 -21q-16 -82 -91 -188.5t-215.5 -188t-343.5 -81.5q-213 0 -373.5 101t-247.5 281.5t-87 413.5z" />
<glyph unicode="D" horiz-adv-x="1560" d="M125 55v1418q0 27 10 37t39 10h219q223 0 283 -2q403 -14 605 -212t202 -542q0 -229 -91.5 -401.5t-273.5 -267.5t-446 -95h-494q-29 0 -41 12.5t-12 42.5zM539 317q0 -16 5 -22t21 -6h27q229 0 343 111.5t114 367.5q0 229 -91.5 335.5t-275.5 121.5l-125 6 q-18 0 -18 -29v-885z" />
<glyph unicode="E" horiz-adv-x="1357" d="M125 47v1430q0 43 35 43h1071q33 0 33 -39v-213q0 -23 -12.5 -36t-37.5 -13h-632q-43 0 -43 -37v-232q0 -18 9 -28.5t23 -10.5h400q39 0 39 -37v-227q0 -31 -33 -31h-408q-31 0 -30 -28v-260q0 -14 5 -20.5t17 -6.5h682q20 0 30.5 -8t10.5 -27v-225q0 -41 -43 -41h-1067 q-27 0 -38 11.5t-11 35.5z" />
<glyph unicode="F" horiz-adv-x="1312" d="M125 47v1430q0 20 9 31.5t26 11.5h1057q33 0 32 -39l-2 -213q0 -49 -45 -49h-620q-23 0 -33 -8.5t-10 -28.5v-250q0 -39 32 -39h408q39 0 39 -37v-223q0 -31 -35 -31h-414q-31 0 -30 -29v-520q0 -29 -14.5 -41t-47.5 -12h-303q-29 0 -39 11.5t-10 35.5z" />
<glyph unicode="G" horiz-adv-x="1550" d="M76 754q0 236 91 414t255 275t377 97q170 0 305 -62.5t219 -164t109 -213.5l4 -33q0 -18 -7.5 -24.5t-23.5 -8.5l-311 -47q-20 0 -26.5 7t-12.5 30q-16 100 -84 165.5t-180 65.5q-139 0 -211 -114.5t-72 -374.5q0 -272 75.5 -386t221.5 -114q102 0 165.5 50.5t90.5 136.5 l4 39q4 12 4 16q0 16 -22 16h-220q-20 0 -28 8.5t-8 32.5v176q0 31 38 31l562 -4q33 0 50 -15.5t17 -39.5v-680q0 -14 -9 -23.5t-24 -9.5h-71q-39 0 -60 37l-71 131q-4 8 -9.5 7t-11.5 -9q-78 -84 -172 -135t-254 -51q-209 0 -367.5 97t-245.5 272t-87 405z" />
<glyph unicode="H" horiz-adv-x="1550" d="M125 47v1430q0 20 9 31.5t26 11.5h344q16 0 25.5 -10.5t9.5 -28.5v-500q0 -39 32 -39h408q33 0 33 39v500q0 18 9 28.5t26 10.5h344q16 0 25 -11.5t9 -31.5v-1430q0 -25 -10 -36t-39 -11h-303q-33 0 -47 12.5t-14 40.5v547q0 12 -7.5 19.5t-21.5 7.5h-416q-12 0 -20 -7.5 t-8 -19.5v-547q0 -29 -14.5 -41t-47.5 -12h-303q-29 0 -39 11.5t-10 35.5z" />
<glyph unicode="I" horiz-adv-x="661" d="M125 47v1430q0 20 9 31.5t26 11.5h344q35 0 35 -39v-1426q0 -31 -14.5 -43t-47.5 -12h-303q-29 0 -39 11.5t-10 35.5z" />
<glyph unicode="J" horiz-adv-x="937" d="M61 86l19 211q4 42 36 42q4 0 9 -1q12 -2 47 -10.5t76 -8.5q82 0 122 45.5t40 151.5v961q0 43 36 43h342q35 0 35 -39v-1065q0 -234 -111.5 -335t-344.5 -101q-106 0 -250 28q-33 6 -45 24q-11 15 -11 44v10z" />
<glyph unicode="K" horiz-adv-x="1554" d="M125 47v1430q0 20 9 31.5t26 11.5h344q35 0 35 -39v-563q0 -23 8 -23t20 14l432 572q16 23 32 31t48 8h279q20 0 33.5 -8.5t13.5 -22.5q0 -12 -10 -23l-363 -434q-12 -18 -12 -31q0 -12 8 -28l463 -916q8 -14 8 -30q0 -27 -33 -27h-356q-49 0 -66 37l-288 604 q-8 12 -17 12q-8 0 -26 -20l-162 -203q-12 -14 -12 -43v-334q0 -29 -14.5 -41t-47.5 -12h-303q-29 0 -39 11.5t-10 35.5z" />
<glyph unicode="L" horiz-adv-x="1300" d="M125 47v1430q0 20 9 31.5t26 11.5h344q35 0 35 -39v-1153q0 -14 5 -20.5t17 -6.5h635q43 0 43 -35v-225q0 -18 -12.5 -29.5t-34.5 -11.5h-1018q-29 0 -39 11.5t-10 35.5z" />
<glyph unicode="M" horiz-adv-x="1974" d="M125 53v1424q0 23 9 33t30 10h502q25 0 35 -7.5t18 -27.5l258 -750q6 -16 14 -16t15 16l239 731q16 53 51 54h519q35 0 34 -39v-1428q0 -29 -13 -41t-46 -12h-305q-29 0 -39 11.5t-10 35.5v967q0 14 -9 14q-8 0 -14 -16l-323 -977q-12 -35 -48 -35h-192q-37 0 -49 35 l-324 962q-6 18 -12 19q-8 0 -8 -21v-954q0 -25 -8.5 -33t-34.5 -8h-242q-22 0 -34.5 14.5t-12.5 38.5z" />
<glyph unicode="N" horiz-adv-x="1556" d="M125 39v1438q0 23 9 33t32 10h293q25 0 36 -6.5t27 -26.5l545 -768q12 -16 23 -17q10 0 10 25v754q0 39 41 39h262q31 0 31 -33v-1452q0 -16 -12.5 -25.5t-30.5 -9.5h-248q-16 0 -27.5 5t-25.5 24l-607 835q-8 12 -14 11t-6 -13v-821v-6q0 -18 -10.5 -26.5t-34.5 -8.5 h-248q-45 0 -45 39z" />
<glyph unicode="O" horiz-adv-x="1591" d="M76 756q0 238 89 415t252 273t380 96q215 0 377.5 -96t252 -273.5t89.5 -414.5q0 -236 -88.5 -411t-251 -270t-379.5 -95q-219 0 -382 94t-251 269t-88 413zM510 750q0 -258 67.5 -371t221.5 -113q149 0 215.5 113t66.5 371q0 266 -68.5 385.5t-215.5 119.5 q-150 0 -218.5 -119.5t-68.5 -385.5z" />
<glyph unicode="P" horiz-adv-x="1480" d="M125 47v1430q0 43 35 43h647q172 0 309 -54.5t217 -163t80 -266.5q0 -147 -69.5 -254.5t-196.5 -164t-293 -56.5h-293q-23 0 -22 -20v-488q0 -29 -14.5 -41t-47.5 -12h-305q-27 0 -37 11.5t-10 35.5zM539 897q0 -23 6 -32t24 -9h226q90 0 143 51t53 135q0 86 -58.5 135.5 t-150.5 49.5h-200q-25 0 -34 -9.5t-9 -31.5v-289z" />
<glyph unicode="Q" horiz-adv-x="1595" d="M76 756q0 237 89 414.5t252 273.5t380 96t379.5 -96t251 -273.5t88.5 -414.5q0 -195 -58.5 -345.5t-169.5 -250.5q-6 -6 -6 -19q0 -29 64.5 -65.5t134.5 -44.5q33 -4 32 -33v-201q0 -35 -18 -46t-65 -11q-139 0 -251 60.5t-202 181.5q-8 12 -31 8q-61 -10 -149 -10 q-219 0 -382 94t-251 269t-88 413zM510 752q0 -260 66.5 -373t220.5 -113t220 113t66 373q0 264 -68.5 383.5t-217.5 119.5q-152 0 -219.5 -118.5t-67.5 -384.5z" />
<glyph unicode="R" horiz-adv-x="1497" d="M125 47v1430q0 43 35 43h663q287 0 444.5 -112t157.5 -314q0 -145 -76.5 -254t-197.5 -152q-10 -4 -10 -20q0 -10 2 -17l264 -590q4 -16 4 -20q0 -18 -10 -29.5t-29 -11.5h-350q-39 0 -51 39l-205 551q-6 16 -19.5 23.5t-41.5 7.5h-142q-12 0 -18 -7.5t-6 -15.5v-543 q0 -31 -14.5 -43t-47.5 -12h-305q-27 0 -37 11.5t-10 35.5zM539 936q0 -23 6 -32t24 -9h228q98 0 149 45t51 127q0 86 -56 133t-144 47h-215q-25 0 -34 -8t-9 -29v-274z" />
<glyph unicode="S" horiz-adv-x="1413" d="M57 279q0 16 23 32l184 127q23 14 39 15q20 0 33 -17q74 -94 148.5 -133t197.5 -39q125 0 197.5 37t72.5 107q0 94 -149 135l-311 82q-180 47 -283 166.5t-103 275.5q0 133 76 240.5t214.5 170t320.5 62.5q176 0 327.5 -59.5t225.5 -157.5q14 -25 14 -35t-14 -22 l-201 -146q-8 -8 -18 -8q-12 0 -37 25q-51 55 -113.5 86.5t-171.5 31.5q-115 0 -173 -37.5t-58 -95.5q0 -39 32.5 -73.5t114.5 -55.5l332 -90q184 -49 276.5 -163.5t92.5 -274.5q0 -147 -77 -257t-220.5 -169t-335.5 -59q-217 0 -394.5 72.5t-250.5 195.5q-10 20 -11 31z " />
<glyph unicode="T" horiz-adv-x="1419" d="M63 1260v217q0 18 11.5 30.5t34.5 12.5h1202q23 0 34 -12.5t11 -30.5v-217q0 -35 -41 -35h-373q-23 0 -22 -21v-1163q0 -41 -37 -41h-344q-35 0 -35 39v1157q0 16 -4 22.5t-17 6.5h-377q-43 0 -43 35z" />
<glyph unicode="U" horiz-adv-x="1482" d="M106 623v854q0 43 37 43h342q35 0 35 -39v-908q0 -158 64.5 -229.5t187.5 -71.5q262 0 262 308v897q0 43 37 43h272q33 0 33 -39v-899q0 -324 -163.5 -463t-471.5 -139q-342 0 -488.5 158.5t-146.5 484.5z" />
<glyph unicode="V" horiz-adv-x="1521" d="M57 1485q0 14 10.5 24.5t28.5 10.5h348q35 0 48 -39l303 -965q6 -14 12 -14q4 0 10 16l291 963q2 18 15.5 28.5t31.5 10.5h270q23 0 33 -16q6 -10 6 -23q0 -7 -2 -15l-483 -1419q-14 -47 -70 -47h-297q-57 0 -69 47l-482 1419q-4 12 -4 19z" />
<glyph unicode="W" horiz-adv-x="2246" d="M61 1468q0 25 14.5 38.5t43.5 13.5h299q27 0 40 -9.5t19 -29.5l240 -842q6 -25 14 -25q6 0 10 17l238 850q4 20 18.5 29.5t42.5 9.5h254q27 0 40.5 -9.5t19.5 -29.5l248 -858q4 -14 11 -16.5t11 11.5l234 863q6 39 59 39h211q29 0 44 -13.5t15 -36.5q0 -8 -4 -24 l-416 -1399q-10 -25 -25.5 -36t-43.5 -11h-252q-29 0 -45.5 11.5t-24.5 35.5l-233 805q-6 23 -13 22q-8 0 -16 -26l-235 -801q-12 -47 -68 -47h-262q-53 0 -68 47l-418 1399q-2 8 -2 22z" />
<glyph unicode="X" horiz-adv-x="1521" d="M57 31q0 20 27 61l416 641q14 20 14 35q0 14 -14 35l-422 653q-10 16 -10 29q0 14 10 24.5t28 10.5h347q29 0 44 -9.5t27 -29.5l219 -371q10 -16 23 -16q12 0 22 16l220 371q10 20 25.5 29.5t43.5 9.5h287q35 0 35 -27q0 -16 -13 -33l-399 -610q-12 -18 -12 -31 q0 -14 16 -37l451 -690q24 -38 24 -61q0 -31 -51 -31h-328q-55 0 -75 37l-258 422q-16 29 -27 28q-14 0 -29 -26l-252 -424q-18 -37 -77 -37h-260q-51 0 -52 31z" />
<glyph unicode="Y" horiz-adv-x="1546" d="M55 1491q0 29 43 29h361q27 0 39 -7.5t26 -31.5l277 -494q10 -20 18 -20q6 0 19 18l272 496q10 23 23.5 31t40.5 8h284q35 0 35 -23q0 -10 -8 -20l-481 -783q-12 -20 -15.5 -41.5t-3.5 -81.5v-516q0 -31 -14.5 -43t-46.5 -12h-303q-27 0 -38.5 11.5t-11.5 35.5v545 q0 27 -6 43t-20 41l-482 790q-8 14 -8 25z" />
<glyph unicode="Z" horiz-adv-x="1429" d="M61 47v82q0 29 6.5 43t32.5 53l662 961q8 10 8 20t-25 11h-581q-25 0 -33 10t-8 35v219q0 39 33 39h1169q35 0 35 -37v-94q0 -20 -6 -35t-25 -41l-686 -981q-4 -8 -4 -13q0 -14 27 -14h643q41 0 41 -35v-229q0 -18 -11.5 -29.5t-33.5 -11.5h-1194q-29 0 -39.5 9t-10.5 38 z" />
<glyph unicode="[" horiz-adv-x="669" d="M111 -289v1768q0 22 11 31.5t38 9.5h450q29 0 29 -25v-147q0 -27 -29 -27h-159q-47 0 -48 -51v-1370q0 -25 8.5 -32t30.5 -7h162q35 0 35 -31v-133q0 -35 -35 -35h-438q-27 0 -41 13.5t-14 35.5z" />
<glyph unicode="\" horiz-adv-x="763" d="M4 1491q0 16 8 22.5t29 6.5h156q16 0 29.5 -9.5t17.5 -23.5l512 -1469q2 -4 2 -12q0 -23 -33 -22h-154q-26 0 -41.5 10t-23.5 37l-496 1427q-6 18 -6 33z" />
<glyph unicode="]" horiz-adv-x="669" d="M31 -170q0 31 35 31h161q23 0 31 7t8 32v1370q0 51 -47 51h-160q-29 0 -28 27v147q0 25 28 25h451q27 0 38 -9.5t11 -31.5v-1768q0 -23 -14.5 -36t-40.5 -13h-438q-35 0 -35 35v133z" />
<glyph unicode="^" horiz-adv-x="972" d="M57 274q0 10 6 23l316 735q14 35 44 54.5t62 19.5q33 0 61.5 -18.5t43.5 -53.5l317 -743q4 -12 4 -19q0 -23 -32 -22h-148q-47 0 -51 18l-174 426q-6 20 -23 21q-14 0 -22 -21l-172 -426q-6 -10 -16.5 -13t-32.5 -3h-156q-27 0 -27 22z" />
<glyph unicode="_" horiz-adv-x="1134" d="M90 -96q0 43 35 43h885q14 0 23 -10.5t9 -26.5v-170q0 -27 -14 -39t-45 -12h-844q-27 0 -38 10t-11 35v170z" />
<glyph unicode="`" horiz-adv-x="641" d="M20 1343q0 12 5 21l53 152q6 16 16 22t23 0l485 -205q20 -10 21 -28l-5 -17l-28 -80q-12 -29 -33 -28q-6 0 -22 4l-476 121q-39 8 -39 38z" />
<glyph unicode="a" horiz-adv-x="1163" d="M45 279q0 117 74 205.5t212 138t326 51.5l41 2q33 0 33 29v38q0 68 -38 105t-109 37q-57 0 -105.5 -25.5t-79.5 -83.5q-6 -12 -12 -17t-18 -5t-21 2l-237 49q-20 4 -21 24q0 12 8 35q94 242 502 242q256 0 366.5 -89t110.5 -251v-715q0 -31 -8 -41t-35 -10h-248 q-23 0 -33 16.5t-16 46.5l-2 31q-2 18 -14 19q-12 0 -35 -19q-135 -114 -309 -114q-152 0 -242 83.5t-90 215.5zM399 328q0 -53 38 -84t102 -31q76 0 135 47q57 49 57 90v121q0 18 -7 26.5t-24 8.5l-32 -2q-55 -2 -118 -21.5t-107 -59.5t-44 -95z" />
<glyph unicode="b" horiz-adv-x="1255" d="M98 47v1430q0 43 37 43h293q35 0 35 -41v-467q0 -27 14 -27q8 0 23 10q117 111 272 111q201 0 313.5 -149.5t112.5 -405.5q0 -264 -122 -417.5t-343 -153.5q-100 0 -182 46t-141 121q-6 8 -13 9q-10 0 -12 -15l-29 -96q-8 -25 -19 -35t-32 -10h-155q-29 0 -40.5 11.5 t-11.5 35.5zM463 377q0 -82 49 -131t123 -49q96 0 145 81.5t49 264.5q0 180 -46 259t-140 79q-100 0 -180 -97v-407z" />
<glyph unicode="c" horiz-adv-x="1132" d="M53 539q0 166 73 295t200 200.5t284 71.5q131 0 230.5 -48t161 -124t83.5 -158l5 -20q0 -25 -37 -29l-248 -16q-2 0 -4 -1t-6 1q-16 0 -23 24q-23 66 -53.5 101.5t-97.5 35.5q-94 0 -146.5 -81.5t-52.5 -247.5q0 -334 217 -334q80 0 126 41t95 127q4 8 12.5 10t26.5 0 l172 -37q20 -2 21 -20q0 -6 -5 -23q-18 -68 -74.5 -143.5t-157.5 -129.5t-245 -54q-160 0 -286.5 70.5t-198.5 197.5t-72 291z" />
<glyph unicode="d" horiz-adv-x="1255" d="M57 537q0 168 59.5 297t160 200.5t219.5 71.5q78 0 139 -24.5t121 -82.5q12 -12 24 -12q14 0 15 29v465q0 39 32 39h293q37 0 37 -43v-1430q0 -25 -11 -36t-40 -11h-260q-47 0 -47 43v49q0 8 -4 12.5t-9 4.5q-6 0 -18 -9q-61 -59 -129 -89.5t-164 -30.5q-188 0 -303 143 t-115 414zM426 539q0 -178 50 -257t145 -79q72 0 122 45t50 110v430q-41 46 -79 67.5t-91 21.5q-92 0 -144.5 -81t-52.5 -257z" />
<glyph unicode="e" horiz-adv-x="1204" d="M53 526q0 170 76 302.5t204 205t279 72.5q160 0 283 -68.5t192.5 -199.5t69.5 -312q0 -29 -5 -39t-30 -12h-665q-29 0 -29 -33q0 -102 67.5 -160.5t172.5 -58.5q63 0 119.5 29t121.5 96q8 8 19 8q10 0 20 -4l168 -69q18 -8 19 -23q0 -8 -11 -22q-102 -147 -216.5 -202.5 t-289.5 -55.5q-160 0 -288.5 69.5t-202.5 193.5t-74 283zM434 670l334 -2q20 0 27.5 5t7.5 23q0 70 -46 131.5t-128 61.5q-85 1 -141 -59q-54 -57 -54 -153v-7z" />
<glyph unicode="f" horiz-adv-x="841" d="M39 872v172q0 41 45 41h117q14 0 20 7.5t6 25.5v117q0 133 82 209t228 76h221q27 0 40 -12.5t13 -34.5v-156q0 -16 -8 -26.5t-25 -10.5h-98q-41 0 -69.5 -33t-28.5 -80v-57q0 -25 24 -25h150q22 0 33.5 -11t11.5 -30v-172q0 -35 -39 -34h-148q-23 0 -22 -25v-772 q0 -41 -37 -41h-295q-33 0 -33 39v778q0 20 -16 21h-131q-20 0 -30.5 8t-10.5 26z" />
<glyph unicode="g" horiz-adv-x="1316" d="M2 -100q0 63 52 105t147 73q12 4 12 10t-12 12q-127 59 -127 160q0 115 211 201q12 6 15 11t-11 13q-100 43 -152.5 114t-52.5 163q0 156 138 248t396 92q111 0 197 -24.5t139 -67.5q12 -10 29 -11q18 0 31 15q39 51 107.5 90t115.5 39q18 0 29.5 -12.5t11.5 -36.5v-162 q0 -31 -13.5 -44.5t-37.5 -6.5q-37 10 -72 10q-16 0 -22 -2q-44 -2 -44 -31q0 -7 3 -16q16 -45 16 -78q0 -94 -59.5 -170t-175 -121t-277.5 -45q-106 0 -155.5 -16.5t-49.5 -44.5q0 -25 24.5 -34t82.5 -14l303 -18q213 -14 317.5 -93t104.5 -208q0 -106 -69 -187t-204 -126 t-329 -45q-311 0 -465 63.5t-154 194.5zM299 -53q0 -68 78 -102.5t262 -34.5q129 0 197.5 32.5t68.5 89.5q0 39 -39 65t-110 28l-305 14q-8 1 -16 1q-53 0 -91 -24q-45 -28 -45 -69zM410 758q0 -68 49 -113t133 -45q92 0 138 45t46 113q0 76 -46 123t-138 47 q-86 0 -134 -48.5t-48 -121.5z" />
<glyph unicode="h" horiz-adv-x="1230" d="M100 47v1430q0 43 35 43h289q35 0 35 -39v-518q0 -14 8 -15q6 0 16 6q90 82 170 117t168 35q154 0 238 -87t84 -247v-717q0 -55 -58 -55h-264q-25 0 -34 10t-9 37v680q0 55 -33.5 87t-93.5 32q-55 0 -99 -27.5t-87 -87.5v-678q0 -29 -14.5 -41t-47.5 -12h-256 q-26 0 -36.5 10t-10.5 37z" />
<glyph unicode="i" horiz-adv-x="561" d="M96 1245v230q0 20 10.5 32.5t26.5 12.5h295q16 0 26.5 -11.5t10.5 -29.5v-228q0 -29 -15.5 -42t-48.5 -13h-256q-27 0 -38 12.5t-11 36.5zM98 47v995q0 43 37 43h293q35 0 35 -38v-992q0 -31 -14.5 -43t-47.5 -12h-254q-29 0 -39 11.5t-10 35.5z" />
<glyph unicode="j" horiz-adv-x="563" d="M-78 -115q0 16 9.5 30.5t27.5 18.5l78 11q31 6 47 29.5t16 76.5v991q0 43 37 43h293q35 0 35 -38v-1010q0 -193 -99.5 -289t-304.5 -96q-86 0 -112.5 9t-26.5 38v186zM98 1245v230q0 20 11.5 32.5t27.5 12.5h293q35 0 35 -41v-228q0 -29 -13.5 -42t-45.5 -13h-256 q-29 0 -40.5 12.5t-11.5 36.5z" />
<glyph unicode="k" horiz-adv-x="1265" d="M100 47v1430q0 20 9.5 31.5t25.5 11.5h295q35 0 35 -39v-803q0 -16 8 -16q4 0 14 10l347 381q28 32 57 32h2h252q39 0 39 -24q0 -16 -15 -31l-276 -276q-14 -18 -14 -31q0 -12 12 -35l338 -635l4 -16q0 -14 -10.5 -25.5t-28.5 -11.5h-311q-41 0 -62 47l-178 387 q-8 20 -20 21q-8 0 -21 -13l-121 -114q-16 -16 -16 -56v-217q0 -31 -13.5 -43t-48.5 -12h-251q-29 0 -40.5 11.5t-11.5 35.5z" />
<glyph unicode="l" horiz-adv-x="563" d="M96 47l8 1430q0 43 37 43h289q16 0 25.5 -10.5t9.5 -28.5v-1426q0 -31 -14.5 -43t-47.5 -12h-256q-29 0 -40 11.5t-11 35.5z" />
<glyph unicode="m" horiz-adv-x="1892" d="M98 47v995q0 20 9.5 31.5t25.5 11.5h289q35 0 35 -36v-99q0 -16 10 -16q6 0 14 8q162 166 334 166q106 0 182 -51t109 -144q4 -6 8 -6q8 0 19 11q66 80 165 134t191 54q143 0 229 -89t86 -247v-715q0 -55 -57 -55h-264q-23 0 -33 10t-10 37v680q0 55 -33 87t-90 32 q-45 0 -89 -25.5t-77 -64.5q-18 -27 -18 -58v-643q0 -55 -56 -55h-264q-23 0 -33 11.5t-10 35.5v680q0 55 -32.5 87t-90.5 32q-55 0 -98 -27.5t-86 -87.5v-678q0 -29 -14.5 -41t-47.5 -12h-254q-26 0 -37.5 10t-11.5 37z" />
<glyph unicode="n" d="M98 47v995q0 43 35 43h291q35 0 35 -36v-99q0 -16 10 -16q6 0 14 8q160 164 336 164q145 0 234.5 -89t89.5 -239v-723q0 -55 -58 -55h-264q-25 0 -34 10t-9 37v680q0 55 -34.5 87t-94.5 32q-55 0 -99 -27.5t-87 -87.5v-678q0 -29 -14.5 -41t-47.5 -12h-254 q-26 0 -37.5 10t-11.5 37z" />
<glyph unicode="o" d="M53 537q0 166 73 296t201 201.5t287 71.5q166 0 293 -72.5t198 -203t71 -293.5q0 -160 -72 -287t-200 -198.5t-292 -71.5q-163 0 -290 70.5t-198 197.5t-71 289zM422 545q0 -166 48 -247t144 -81q99 0 146 80t47 248t-48 250t-145 82q-96 0 -144 -82t-48 -250z" />
<glyph unicode="p" horiz-adv-x="1255" d="M98 -297v1333q0 27 11.5 38t40.5 11h266q26 0 36.5 -10t10.5 -35v-51q0 -14 12 -14q10 0 19 8q63 59 129.5 91t162.5 32q184 0 298 -141.5t114 -415.5q0 -287 -117.5 -428t-308.5 -141q-78 0 -143.5 24.5t-124.5 79.5q-25 20 -31 20q-10 0 -10 -30v-373q0 -39 -35 -39 h-295q-35 0 -35 41zM463 297q70 -92 168 -92q96 0 147 81t51 273q0 178 -50 250t-146 72q-72 0 -121 -41t-49 -97v-446z" />
<glyph unicode="q" horiz-adv-x="1255" d="M57 543q0 170 55.5 298t159 197.5t242.5 69.5q205 0 340 -168q10 -10 14 -10q6 0 13 16l28 94q12 45 47 45h150q29 0 40 -12t11 -37v-1333q0 -41 -37 -41h-293q-35 0 -34 39v358q0 33 -13 33q-10 0 -22 -12q-129 -100 -264 -100q-203 0 -320 147t-117 416zM426 545 q0 -180 49 -261t141 -81q102 0 177 80v424q0 82 -47.5 134t-122.5 52q-90 0 -143.5 -85t-53.5 -263z" />
<glyph unicode="r" horiz-adv-x="903" d="M98 47v995q0 43 35 43h283q14 0 23.5 -10t9.5 -26v-119q0 -18 14 -19q10 0 18 13q55 78 141.5 130t159.5 52q76 0 76 -39v-274q0 -37 -37 -31q-82 20 -159 20q-74 0 -136.5 -49t-62.5 -108v-572q0 -29 -14.5 -41t-47.5 -12h-254q-28 0 -38.5 11.5t-10.5 35.5z" />
<glyph unicode="s" horiz-adv-x="1097" d="M35 233q0 16 14 25l160 82q16 8 31 8q16 0 26 -12q49 -61 107.5 -95t165.5 -34q82 0 134 24.5t52 69.5q0 29 -25.5 49.5t-89.5 32.5l-209 41q-323 63 -323 319q0 106 56 188.5t165 128.5t256 46q154 0 272.5 -56.5t167.5 -138.5q14 -20 15 -34q0 -14 -15 -21l-168 -82 q-12 -6 -20 -6q-18 0 -35 20q-82 103 -221 103q-66 0 -110 -24.5t-44 -67.5q0 -23 19.5 -40.5t77.5 -31.5l225 -51q172 -39 251 -127t79 -211q0 -168 -138.5 -263t-365.5 -95q-182 0 -314.5 62t-185.5 161q-10 16 -10 30z" />
<glyph unicode="t" horiz-adv-x="917" d="M39 879v172q0 35 41 34h131q18 0 22 23l31 307q2 20 9.5 29.5t25.5 9.5h262q37 0 37 -41v-305q0 -20 20 -21h203q18 0 29.5 -9t11.5 -25v-174q0 -41 -47 -41h-203q-25 0 -24 -25v-442q0 -61 33.5 -90t107.5 -29h98q14 0 23.5 -10.5t9.5 -26.5l-2 -147q0 -43 -53 -54 q-92 -14 -260 -14q-147 0 -234.5 69.5t-87.5 198.5v535q0 18 -6 26.5t-22 8.5h-111q-45 0 -45 41z" />
<glyph unicode="u" horiz-adv-x="1222" d="M86 315v715q0 55 57 55h265q25 0 34 -10t9 -39v-676q0 -57 33.5 -89.5t88.5 -32.5q52 0 100 27.5t87 74.5v692q0 29 14 41t47 12h258q27 0 38 -11t11 -38l-8 -995q0 -41 -35 -41h-284q-35 0 -35 37v96q0 12 -7 15.5t-16 -7.5q-78 -84 -161.5 -122.5t-184.5 -38.5 q-139 0 -225 90t-86 245z" />
<glyph unicode="v" horiz-adv-x="1193" d="M37 1047q0 16 10 27t29 11h303q18 0 31.5 -10t19.5 -26l207 -537q6 -18 14 -18t17 20l200 535q18 36 48 36h2h204q17 0 26 -10t9 -24q0 -6 -4 -19l-401 -985q-10 -25 -26.5 -36t-43.5 -11h-170q-29 0 -45 11.5t-27 35.5l-401 985q-2 4 -2 15z" />
<glyph unicode="w" horiz-adv-x="1689" d="M37 1049q0 16 10 26t29 10h280q16 0 30.5 -10t19.5 -26l161 -506q4 -20 15 -21q6 0 16 23l154 504q4 16 17 26t30 10h200q14 0 28.5 -10t19.5 -26l151 -506q4 -20 14 -21q6 0 17 23l157 504q18 36 48 36h2h182q16 0 26.5 -10t10.5 -26l-4 -17l-342 -997 q-6 -18 -16.5 -26.5t-28.5 -8.5h-193q-43 0 -55 41l-154 494q-6 23 -16 22q-8 0 -15 -22l-159 -500q-6 -18 -16.5 -26.5t-30.5 -8.5h-199q-41 0 -53 41l-332 991z" />
<glyph unicode="x" horiz-adv-x="1243" d="M37 33q0 23 31 61l319 418q16 20 16 31q0 14 -16 37l-324 442q-10 14 -10 27q0 16 12.5 26t32.5 10h289q31 0 47.5 -8t28.5 -28l160 -234q10 -16 18 -16t18 16l150 234q14 20 29.5 28t46.5 8h213q39 0 39 -22q0 -14 -13 -31l-293 -397q-14 -16 -14 -31q0 -14 17 -37 l350 -487q28 -41 28 -57q0 -23 -45 -23h-303q-55 0 -78 37l-184 264q-18 27 -27 27q-8 0 -26 -25l-187 -266q-23 -37 -77 -37h-193q-25 0 -40 8t-15 25z" />
<glyph unicode="y" horiz-adv-x="1183" d="M35 1047q0 16 10 27t29 11h303q18 0 31.5 -10t19.5 -26l199 -549q6 -20 16 -21q10 0 19 21l198 549q18 36 47 36h2h205q18 0 27.5 -10t9.5 -26l-4 -17l-410 -999q-63 -156 -130.5 -235t-158 -107.5t-237.5 -28.5q-70 0 -93.5 7t-23.5 34v184q0 37 58 37h141q61 0 103 37 t42 80q0 8 -4 25l-397 964q-2 6 -2 17z" />
<glyph unicode="z" horiz-adv-x="1089" d="M43 47v86q0 29 7 45.5t34 48.5l465 602q8 8 8 19q0 12 -27 12h-401q-23 0 -32 9.5t-9 33.5v146q0 16 9 26t26 10h874q16 0 25.5 -9t9.5 -25v-99q0 -23 -6 -38t-25 -42l-475 -608q-10 -14 -10 -20q0 -14 25 -15h454q41 0 41 -34v-154q0 -18 -11 -29.5t-34 -11.5h-899 q-29 0 -39 10t-10 37z" />
<glyph unicode="{" horiz-adv-x="792" d="M0 551v100q0 37 23 37q115 2 165 45t50 135v385q0 86 51 146.5t132 90.5t165 30h147q29 0 29 -25v-147q0 -27 -29 -27h-71q-84 0 -108 -27.5t-24 -81.5v-401q-2 -96 -69.5 -144.5t-157.5 -60.5q-12 -2 -13 -6t13 -6q223 -18 227 -217v-406q0 -59 28 -84.5t104 -25.5h65 q35 0 35 -31v-133q0 -35 -35 -35h-135q-88 0 -170 29.5t-133 90t-51 146.5v414q0 78 -53.5 125t-161.5 47q-23 0 -23 37z" />
<glyph unicode="|" horiz-adv-x="507" d="M125 -279v1967q0 27 11 37t34 10h172q43 0 43 -37v-2001q0 -16 -11.5 -25.5t-27.5 -9.5h-170q-27 0 -39 14.5t-12 44.5z" />
<glyph unicode="}" horiz-adv-x="792" d="M31 -170q0 31 35 31h65q76 0 103.5 25.5t27.5 84.5v406q4 199 227 217q14 2 13.5 6t-13.5 6q-90 12 -157.5 60.5t-69.5 144.5v401q0 53 -23.5 81t-107.5 28h-72q-29 0 -28 27v147q0 25 28 25h148q84 0 165 -30t132 -90.5t51 -146.5v-385q0 -92 50 -135t165 -45 q23 0 23 -37v-100q0 -37 -23 -37q-109 0 -162 -47t-53 -125v-414q0 -86 -51 -146.5t-133 -90t-170 -29.5h-135q-35 0 -35 35v133z" />
<glyph unicode="~" horiz-adv-x="1275" d="M106 725q0 16 21 37q94 94 166 138t162 44q61 0 109 -19.5t116 -58.5q57 -33 90 -47t74 -14q61 0 112.5 34.5t90.5 90.5q12 16 24 16q18 0 31 -22l59 -101q8 -10 8 -24t-12 -35q-53 -88 -136 -135t-171 -47q-59 0 -108.5 19.5t-112.5 55.5q-59 33 -97 48.5t-81 15.5 q-63 0 -112.5 -36t-113.5 -103q-10 -10 -20 -11q-10 0 -19 13l-75 125q-4 6 -5 16z" />
<glyph unicode="&#xa1;" horiz-adv-x="555" d="M74 -295l90 823q4 25 13 35t36 10h125q31 0 44 -11t17 -40l88 -821v-8q0 -14 -9 -22.5t-23 -8.5h-346q-18 0 -27.5 11.5t-7.5 31.5zM84 756v282q0 25 11 36t40 11h275q35 0 49 -12t14 -43v-276q0 -39 -35 -39h-319q-16 0 -25.5 10t-9.5 31z" />
<glyph unicode="&#xa2;" horiz-adv-x="1142" d="M53 766q0 147 57.5 266t160 195t235.5 98v141q0 29 13 41.5t44 12.5h125q27 0 38 -12.5t11 -37.5v-151q139 -31 229.5 -120t118.5 -195q4 -16 5 -21q0 -25 -37 -29l-248 -16q-2 0 -4 -1t-6 1q-16 0 -23 25q-23 66 -53.5 101.5t-97.5 35.5q-94 0 -146.5 -82t-52.5 -248 q0 -334 217 -334q80 0 126 41t95 127q4 8 12.5 10t26.5 0l172 -36q21 -3 21 -21q0 -6 -5 -22q-27 -94 -114.5 -188.5t-235.5 -127.5v-164q0 -29 -13 -42t-44 -13h-123q-29 0 -40 12.5t-11 36.5v166q-133 20 -235.5 95t-160 193t-57.5 263z" />
<glyph unicode="&#xa3;" horiz-adv-x="1341" d="M25 37v233q0 29 28 29h39q174 0 174 180q0 74 -14 207q-2 20 -25 21h-172q-10 0 -17 7t-7 19v144q0 23 24 22h129q25 0 23 27l-17 172q-2 14 -2 45q0 127 69 216t182.5 135t248.5 46q160 0 302.5 -77t207.5 -226q2 -4 2 -12q0 -16 -24 -23l-248 -74q-6 -2 -17 -2 q-20 0 -28 17q-47 113 -140 112q-59 0 -95 -39.5t-36 -109.5q0 -72 23 -184q2 -10 9 -16.5t18 -6.5h245q23 0 23 -20v-150q0 -23 -23 -22h-219q-20 0 -20 -21q2 -109 -17 -192q-18 -94 -90 -164q-10 -10 -10 -19q0 -10 18 -10h201q86 0 135 32t76 105q8 23 31 23q10 0 16 -2 l223 -45q45 -10 35 -47q-45 -176 -173 -271.5t-314 -95.5h-740q-34 0 -34 37z" />
<glyph unicode="&#xa4;" horiz-adv-x="1204" d="M59 360q0 12 9 21l110 111q8 8 8 18t-6 18q-31 61 -46 114.5t-15 119.5q0 131 63 239q4 6 4 17q0 10 -8 18l-110 111q-8 12 -9 18q0 8 9 21l106 108q12 12 23 13q8 0 18 -11l113 -112q8 -6 16 -6l16 4q121 66 238 65q131 0 254 -67q14 -10 22 2l109 106q10 14 21 0 l122 -125q10 -12 0 -24l-108 -109q-8 -6 -2 -20q70 -115 69 -246q0 -145 -71 -250q-4 -8 0 -12l112 -111q12 -14 0 -26l-120 -123q-12 -12 -25 0l-107 108q-10 8 -22 0q-123 -70 -246 -69q-133 -1 -246 65q-10 6 -18 6t-16 -8l-111 -111q-8 -8 -18 -8t-25 11l-104 106 q-8 8 -9 18zM350 764q0 -66 33 -124t91 -93t128 -35t128 35t91 93t33 124t-33 124t-91 93t-128 35t-128 -35t-91 -93.5t-33 -123.5z" />
<glyph unicode="&#xa5;" horiz-adv-x="1382" d="M-18 1491q0 29 43 29h362q27 0 39 -8.5t25 -30.5l276 -494q10 -20 16 -20q10 0 19 18l274 496q12 23 24.5 31t39.5 8h284q33 0 33 -23q0 -8 -6 -20l-453 -736h230q16 0 25.5 -10t9.5 -26v-101q0 -27 -14.5 -39t-47.5 -12h-250v-152h277q16 0 25.5 -10t9.5 -26v-101 q0 -27 -14.5 -39t-47.5 -12h-250v-158q0 -31 -14 -43t-47 -12h-303q-27 0 -38 11.5t-11 35.5v166h-262q-27 0 -37.5 10t-10.5 35v100q0 43 35 43h275v152h-262q-27 0 -37.5 10t-10.5 35v100q0 43 35 43h209l-442 725q-8 14 -8 25z" />
<glyph unicode="&#xa6;" horiz-adv-x="507" d="M125 -279v756q0 27 10 37t35 10h172q43 0 43 -37v-790q0 -16 -11.5 -25.5t-27.5 -9.5h-170q-27 0 -39 14.5t-12 44.5zM125 932v756q0 27 11 37t34 10h172q43 0 43 -37v-793q0 -14 -11.5 -23.5t-27.5 -9.5h-170q-27 0 -39 14.5t-12 45.5z" />
<glyph unicode="&#xa7;" horiz-adv-x="1048" d="M41 68q0 12 12 20l170 82q12 4 19 4q14 0 34 -20q49 -51 104.5 -80t141.5 -29q76 0 120 24.5t44 71.5q0 37 -30.5 67t-112.5 60l-152 56q-182 68 -261 146.5t-79 203.5q0 94 45 164.5t129 109.5q-84 53 -119.5 114.5t-35.5 137.5q0 96 53 174t152.5 122t232.5 44 q154 0 270.5 -57.5t163.5 -136.5q14 -23 14 -37t-14 -19l-168 -82q-8 -6 -18 -6q-14 0 -35 21q-49 47 -96 74.5t-107 27.5q-59 0 -94 -23.5t-35 -64.5q0 -29 22.5 -50.5t82.5 -43.5l149 -58q186 -70 266 -148.5t80 -205.5q0 -178 -162 -274q95 -54 138 -117.5t43 -151.5 q0 -162 -125 -260t-353 -98q-176 0 -302 58.5t-175 144.5q-12 25 -12 35zM342 727q0 -41 29.5 -66.5t122.5 -60.5l94 -37q55 -4 82.5 24.5t27.5 76.5q0 43 -28.5 76.5t-120.5 68.5l-84 31q-61 -4 -92 -36t-31 -77z" />
<glyph unicode="&#xa8;" horiz-adv-x="813" d="M20 1282v199q0 39 31 39h254q31 0 31 -35v-199q0 -47 -53 -47h-222q-23 0 -32 10.5t-9 32.5zM475 1282v199q0 39 31 39h256q31 0 31 -35v-199q0 -25 -13.5 -36t-42.5 -11h-219q-25 0 -34 10.5t-9 32.5z" />
<glyph unicode="&#xa9;" horiz-adv-x="1699" d="M70 760q0 211 104.5 390t283.5 284.5t392 105.5q211 0 390 -105.5t284.5 -284.5t105.5 -390q0 -213 -105.5 -392.5t-284.5 -283.5t-390 -104q-213 0 -392 104t-283.5 283.5t-104.5 392.5zM281 760q0 -178 70.5 -311.5t199.5 -206t299 -72.5q168 0 297 72.5t200.5 206 t71.5 311.5q0 176 -71.5 310t-200.5 208t-297 74q-170 0 -299 -74t-199.5 -208t-70.5 -310zM428 760q0 127 55.5 227t152.5 155.5t220 55.5q148 0 244 -78t123 -180q2 -6 2 -14q0 -18 -27 -23l-192 -14h-7q-8 0 -12 5t-8 17q-14 47 -39 76t-76 29q-70 0 -109.5 -62.5 t-39.5 -189.5q0 -254 164 -254q61 0 97 31.5t73 97.5q6 12 30 6l133 -29q16 -4 17 -14l-4 -16q-14 -53 -57.5 -111.5t-122 -101.5t-189.5 -43q-123 0 -220 54t-152.5 152.5t-55.5 223.5z" />
<glyph unicode="&#xaa;" horiz-adv-x="796" d="M45 1030q0 102 92 163.5t273 74.5l41 2q25 4 24 22v21q0 84 -92 84q-80 0 -113 -66q-4 -10 -10 -13t-22 1l-152 31q-8 2 -10 15t2 21q39 80 108.5 117t202.5 37q166 -2 234.5 -55t68.5 -160v-352q0 -39 17 -92q10 -33 -60 -33h-135q-18 0 -23.5 6t-9.5 23l-4 18 q-4 10 -10 10t-23 -10q-53 -33 -90 -46t-86 -13q-106 0 -164.5 53t-58.5 141zM270 1044q0 -32 23.5 -50.5t66.5 -18.5q51 0 89 31q27 20 26 49v75q0 25 -24 23l-39 -4q-55 -4 -98.5 -33t-43.5 -72z" />
<glyph unicode="&#xab;" horiz-adv-x="1024" d="M98 526q0 18 11 39l204 359q8 12 13.5 16t17.5 4h137q14 0 21.5 -8t1.5 -23l-133 -362q-4 -16 -4 -25q0 -8 4 -24l135 -350q2 -2 2 -9q0 -16 -33 -16h-131q-25 0 -31 20l-202 338q-12 23 -13 41zM514 526q0 18 10 39l203 359q8 12 14.5 16t18.5 4h135q14 0 21.5 -8 t1.5 -23l-132 -362q-4 -16 -4 -25q0 -8 4 -24l134 -350l2 -9q0 -16 -31 -16h-133q-20 0 -31 20l-201 338q-12 23 -12 41z" />
<glyph unicode="&#xac;" horiz-adv-x="1212" d="M90 680v172q0 43 35 43h967q14 0 23 -10.5t9 -26.5v-500q0 -27 -12 -38t-41 -11h-194q-25 0 -35.5 10.5t-10.5 32.5v283h-692q-27 0 -38 10t-11 35z" />
<glyph unicode="&#xad;" horiz-adv-x="778" d="M92 457v170q0 41 35 41l526 2q14 0 23.5 -11.5t9.5 -27.5v-168q0 -29 -14.5 -41t-46.5 -12h-484q-29 0 -39 11t-10 36z" />
<glyph unicode="&#xae;" horiz-adv-x="1116" d="M70 1051q0 133 65.5 245.5t178 178t245.5 65.5q131 0 243.5 -65.5t178.5 -178t66 -245.5t-66 -245t-177.5 -177.5t-244.5 -65.5t-245.5 65.5t-178 177.5t-65.5 245zM217 1051q0 -162 93 -257.5t249 -95.5q154 0 247 95.5t93 257.5q0 160 -93 257t-247 97 q-156 0 -249 -97.5t-93 -256.5zM356 821v455q0 14 11 14h221q92 0 143 -34.5t51 -98.5q0 -43 -24.5 -75.5t-63.5 -49.5q-4 -2 -4 -10l84 -197l2 -6q0 -12 -12 -12h-117q-12 0 -18 12l-62 182q-2 4 -6 7.5t-14 3.5h-47q-8 0 -8 -8v-181q0 -16 -21 -16h-100q-14 0 -15 14z M492 1116q0 -14 10 -14h80q26 0 42.5 13t16.5 36t-17.5 36t-45.5 13h-72q-14 0 -14 -12v-72z" />
<glyph unicode="&#xaf;" horiz-adv-x="837" d="M21 1327v150q0 37 29 36h739q29 0 29 -32v-150q0 -25 -12.5 -35t-41.5 -10h-702q-25 0 -33 9.5t-8 31.5z" />
<glyph unicode="&#xb0;" horiz-adv-x="950" d="M111 1393q0 104 47 187t130 129t187 46q102 0 186 -47t131.5 -129t47.5 -186q0 -107 -47.5 -190t-130 -129t-187.5 -46q-104 0 -187 46t-130 129t-47 190zM315 1395q0 -76 42 -123t116 -47q70 0 113 46t43 120q0 71 -43 116t-115 45q-70 0 -113 -44t-43 -113z" />
<glyph unicode="&#xb1;" horiz-adv-x="1212" d="M90 96v170q0 43 35 43h967q14 0 23 -10t9 -27v-170q0 -53 -59 -53h-926q-27 0 -38 11.5t-11 35.5zM90 868v170q0 43 35 43h354v342q0 27 10.5 37t34.5 10h172q43 0 43 -34v-355h353q14 0 23 -10t9 -27v-170q0 -27 -14 -39t-45 -12h-326v-354q0 -14 -10 -23.5t-27 -9.5 h-172q-27 0 -39 14.5t-12 47.5v323h-340q-27 0 -38 11.5t-11 35.5z" />
<glyph unicode="&#xb2;" horiz-adv-x="925" d="M80 815v115q0 10 12.5 25.5t55.5 52.5l227 196q88 76 129 117t56.5 70.5t15.5 64.5q0 51 -35 82t-92 31q-51 0 -92 -32t-84 -108q-6 -10 -19 -10q-8 0 -20 6l-135 68q-16 10 -17 25q0 12 6 20q70 111 161 164t214 53q166 0 265.5 -81t99.5 -216q0 -78 -40 -141.5 t-136 -132.5l-232 -170q-8 -2 -8 -8t16 -7h381q29 0 29 -22v-164q0 -10 -7 -18.5t-22 -8.5h-698q-16 0 -23.5 6.5t-7.5 22.5z" />
<glyph unicode="&#xb3;" horiz-adv-x="956" d="M90 958q0 14 17 25l117 82q20 14 30 0q61 -61 109.5 -86t118.5 -25q68 0 107.5 30t39.5 79q0 53 -44 86t-112 35l-110 2q-25 0 -25 20v139q0 16 25 21l88 4q70 2 110.5 35t40.5 82q0 39 -35.5 65.5t-86.5 26.5q-57 0 -103.5 -21.5t-99.5 -70.5q-10 -10 -17 -10 q-2 0 -14 8l-108 102q-7 10 -7 14q0 8 7 17q47 61 143 99t203 38q172 0 272 -69.5t100 -182.5q0 -61 -38.5 -115.5t-108.5 -76.5q-16 -6 -16 -13q0 -6 14 -14q82 -27 130 -85t48 -132q0 -143 -104.5 -218t-313.5 -75q-115 0 -216 46t-154 120q-6 10 -7 18z" />
<glyph unicode="&#xb4;" horiz-adv-x="641" d="M20 1307q0 18 19 26l485 205q4 2 13 2q8 0 16 -6t10 -18l55 -152q4 -16 5 -21q0 -31 -41 -38l-476 -121q-16 -4 -20 -4q-23 0 -35 28l-26 80q-4 6 -5 19z" />
<glyph unicode="&#xb6;" horiz-adv-x="1265" d="M53 1071q0 127 57.5 228.5t169 161t265.5 59.5h606q27 0 27 -25v-154q0 -12 -6.5 -17t-20.5 -5h-82q-12 0 -18.5 -7t-6.5 -20v-1433q0 -33 -28 -33h-154q-18 0 -27.5 9t-9.5 24v1437q0 23 -24 23h-80q-10 0 -17.5 -8t-7.5 -19v-1435q0 -31 -28 -31h-160q-29 0 -29 31v755 q0 16 -20 19q-174 18 -290 130.5t-116 309.5z" />
<glyph unicode="&#xb7;" horiz-adv-x="540" d="M90 637v260q0 37 33 37h289q31 0 30 -33v-256q0 -27 -12 -38t-43 -11h-252q-25 0 -35 9t-10 32z" />
<glyph unicode="&#xb8;" horiz-adv-x="561" d="M22 -375l33 78q6 16 23 10q86 -47 155 -47q47 0 74 16.5t27 43.5q0 41 -42 61t-141 23q-16 0 -21 4t1 18l78 178h153l-41 -104l-2 -8q0 -8 15 -9q106 -2 156.5 -52t50.5 -116q0 -79 -76 -127.5t-187 -48.5q-150 0 -245 49q-18 14 -11 31z" />
<glyph unicode="&#xb9;" horiz-adv-x="751" d="M60 1475v96q0 14 4 21t16 14l226 112q16 8 30.5 12.5t28.5 4.5h100q8 0 14.5 -7.5t6.5 -17.5v-729q0 -14 12 -14h123q27 -1 27 -21v-141q0 -27 -29 -27h-531q-27 0 -26 25v143q0 12 6 16.5t18 4.5h125q4 0 9.5 3t5.5 9v483q0 18 -21 17l-115 -33h-6q-12 0 -18 6t-6 23z " />
<glyph unicode="&#xba;" horiz-adv-x="808" d="M53 1184q0 104 45 185t125 126t180 45q158 0 255.5 -99.5t97.5 -256.5q0 -154 -97.5 -251t-255.5 -97t-254 97t-96 251zM287 1190q0 -104 28.5 -154.5t87.5 -50.5q119 0 119 205q0 203 -119 203q-59 0 -87.5 -50.5t-28.5 -152.5z" />
<glyph unicode="&#xbb;" horiz-adv-x="1024" d="M104 152l136 350q4 8 4 24t-4 25l-134 362q-2 4 -2 13q0 18 25 18h135q12 0 18.5 -4t14.5 -16l203 -359q12 -18 12 -39q0 -20 -14 -41l-201 -338q-10 -20 -31 -20h-131q-39 0 -31 25zM518 152l135 350q4 8 4 24t-4 25l-133 362q-2 4 -2 11q0 20 25 20h137q12 0 18.5 -4 t12.5 -16l204 -359q10 -20 11 -39q0 -18 -13 -41l-200 -338q-10 -20 -31 -20h-133q-39 0 -31 25z" />
<glyph unicode="&#xbc;" horiz-adv-x="1959" d="M-10 1262v96q0 14 4 21t16 14l226 112q16 8 30.5 12.5t28.5 4.5h100q8 0 14.5 -7.5t6.5 -17.5v-729q0 -14 12 -14h123q27 -1 27 -21v-141q0 -27 -29 -27h-531q-27 0 -26 25v143q0 12 6 16.5t18 4.5h125q4 0 9.5 3t5.5 9v483q0 18 -21 17l-115 -33h-6q-12 0 -18 6t-6 23z M274 27q0 14 10 30l967 1454q10 16 22.5 20.5t30.5 4.5h123q25 0 25 -16q0 -8 -6 -21l-984 -1485q-10 -12 -22 -17t-33 -5l-96 2q-18 0 -27.5 9t-9.5 24zM1073 242v120q0 12 10.5 30t28.5 40l379 496q17 18 27 23t33 5h188q23 0 22 -24v-526q0 -14 15 -15h100q25 0 25 -24 v-125q0 -27 -29 -27h-96q-14 0 -15 -16v-166q0 -18 -8 -25.5t-28 -7.5h-197q-16 0 -23.5 6t-7.5 23v174q0 12 -16 12h-377q-14 0 -22.5 7t-8.5 20zM1274 397q0 -6 16 -6h199q12 0 12 8v283q0 18 -4 18q-6 0 -14 -14l-203 -278q-6 -6 -6 -11z" />
<glyph unicode="&#xbd;" horiz-adv-x="2062" d="M-10 1262v96q0 14 4 21t16 14l226 112q16 8 30.5 12.5t28.5 4.5h100q8 0 14.5 -7.5t6.5 -17.5v-729q0 -14 12 -14h123q27 -1 27 -21v-141q0 -27 -29 -27h-531q-27 0 -26 25v143q0 12 6 16.5t18 4.5h125q4 0 9.5 3t5.5 9v483q0 18 -21 17l-115 -33h-6q-12 0 -18 6t-6 23z M418 27q0 14 10 30l967 1454q10 16 22.5 20.5t30.5 4.5h123q25 0 25 -16q0 -8 -6 -21l-984 -1485q-10 -12 -22 -17t-33 -5l-96 2q-18 0 -27.5 9t-9.5 24zM1212 29v114q0 10 12.5 25.5t55.5 52.5l227 197q88 76 129 116.5t56.5 70.5t15.5 65q0 51 -35 81.5t-92 30.5 q-51 0 -92 -31.5t-84 -107.5q-6 -10 -19 -10q-8 0 -20 6l-135 68q-16 10 -17 24q0 12 6 21q70 111 161 164t214 53q166 0 265.5 -81t99.5 -216q0 -78 -40 -141.5t-136 -133.5l-232 -170q-8 -2 -8 -8t16 -6h381q29 0 29 -23v-163q0 -10 -7 -18.5t-22 -8.5h-698q-16 0 -23.5 6 t-7.5 23z" />
<glyph unicode="&#xbe;" horiz-adv-x="2125" d="M20 743q0 14 17 25l117 82q20 14 30 0q61 -61 109.5 -86t118.5 -25q68 0 107.5 30t39.5 79q0 53 -44 86t-112 35l-110 2q-25 0 -25 20v139q0 16 25 21l88 4q70 2 110.5 35t40.5 82q0 39 -35.5 65.5t-86.5 26.5q-57 0 -103.5 -21.5t-99.5 -70.5q-10 -10 -17 -10 q-2 0 -14 8l-108 102q-7 10 -7 14q0 8 7 17q47 61 143 99t203 38q172 0 272 -69.5t100 -182.5q0 -61 -38.5 -115.5t-108.5 -76.5q-16 -6 -16 -13q0 -6 14 -14q82 -27 130 -85t48 -132q0 -143 -104.5 -218t-313.5 -75q-115 0 -216 46t-154 120q-6 10 -7 18zM479 27 q0 14 10 30l967 1454q10 16 22.5 20.5t30.5 4.5h123q25 0 25 -16q0 -8 -6 -21l-984 -1485q-10 -12 -22 -17t-33 -5l-96 2q-18 0 -27.5 9t-9.5 24zM1220 242v120q0 12 10.5 30t28.5 40l379 496q17 18 27 23t33 5h188q23 0 22 -24v-526q0 -14 15 -15h100q25 0 25 -24v-125 q0 -27 -29 -27h-96q-14 0 -15 -16v-166q0 -18 -8 -25.5t-28 -7.5h-197q-16 0 -23.5 6t-7.5 23v174q0 12 -16 12h-377q-14 0 -22.5 7t-8.5 20zM1421 397q0 -6 16 -6h199q12 0 12 8v283q0 18 -4 18q-6 0 -14 -14l-203 -278q-6 -6 -6 -11z" />
<glyph unicode="&#xbf;" horiz-adv-x="1103" d="M47 -4q0 78 31 134t74 94t114 87q92 63 135 110.5t43 119.5q0 18 13.5 31.5t31.5 13.5h195q23 0 35 -13.5t12 -40.5q0 -113 -51 -184.5t-145 -150.5q-66 -53 -97.5 -92t-31.5 -89q0 -53 46 -89t113 -36q72 0 135.5 43t98.5 113q10 25 26 25l21 -4l235 -52q21 -3 21 -32 q0 -12 -2 -19q-66 -158 -203 -240.5t-334 -82.5q-166 0 -282.5 48t-175 128t-58.5 178zM395 754v276q0 31 14.5 43t47.5 12h278q27 0 38 -11t11 -36v-282q0 -41 -36 -41h-318q-35 0 -35 39z" />
<glyph unicode="&#xc0;" horiz-adv-x="1607" d="M57 39q0 14 6 29l504 1409q8 25 20.5 34t37.5 9h356q49 0 70 -52l497 -1405q2 -6 2 -20q0 -18 -7 -30.5t-21 -12.5h-355q-33 0 -43 33l-90 266q-6 12 -11 17.5t-19 5.5h-465q-23 0 -29 -23l-96 -270q-10 -29 -45 -29h-277q-16 0 -25.5 10t-9.5 29zM491 1777q0 12 5 21 l53 152q6 16 16 22t23 0l485 -205q20 -10 21 -28l-5 -17l-28 -80q-12 -29 -33 -28q-6 0 -22 4l-476 121q-39 8 -39 38zM604 651q0 -18 25 -18h282q20 0 21 20q0 12 -2 19l-148 411q-2 12 -12 13q-8 0 -12 -13l-150 -411q-4 -8 -4 -21z" />
<glyph unicode="&#xc1;" horiz-adv-x="1607" d="M57 39q0 14 6 29l504 1409q8 25 20.5 34t37.5 9h356q49 0 70 -52l497 -1405q2 -6 2 -20q0 -18 -7 -30.5t-21 -12.5h-355q-33 0 -43 33l-90 266q-6 12 -11 17.5t-19 5.5h-465q-23 0 -29 -23l-96 -270q-10 -29 -45 -29h-277q-16 0 -25.5 10t-9.5 29zM495 1741q0 18 19 26 l485 205q4 2 13 2q8 0 16 -6t10 -18l55 -152q4 -16 5 -21q0 -31 -41 -38l-476 -121q-16 -4 -20 -4q-23 0 -35 28l-26 80q-4 6 -5 19zM604 651q0 -18 25 -18h282q20 0 21 20q0 12 -2 19l-148 411q-2 12 -12 13q-8 0 -12 -13l-150 -411q-4 -8 -4 -21z" />
<glyph unicode="&#xc2;" horiz-adv-x="1607" d="M57 39q0 14 6 29l504 1409q8 25 20.5 34t37.5 9h356q49 0 70 -52l497 -1405q2 -6 2 -20q0 -18 -7 -30.5t-21 -12.5h-355q-33 0 -43 33l-90 266q-6 12 -11 17.5t-19 5.5h-465q-23 0 -29 -23l-96 -270q-10 -29 -45 -29h-277q-16 0 -25.5 10t-9.5 29zM407 1677q0 6 15 25 l225 241q12 16 27.5 22.5t41.5 6.5h175q33 0 53 -25l223 -245q16 -20 16 -27q0 -8 -18 -8h-199q-20 0 -30.5 3t-20.5 13l-88 111q-10 12 -18.5 20.5t-14.5 8.5q-10 0 -32 -29l-101 -111q-10 -12 -18 -14t-31 -2h-186q-18 0 -19 10zM604 651q0 -18 25 -18h282q20 0 21 20 q0 12 -2 19l-148 411q-2 12 -12 13q-8 0 -12 -13l-150 -411q-4 -8 -4 -21z" />
<glyph unicode="&#xc3;" horiz-adv-x="1607" d="M57 39q0 14 6 29l504 1409q8 25 20.5 34t37.5 9h356q49 0 70 -52l497 -1405q2 -6 2 -20q0 -18 -7 -30.5t-21 -12.5h-355q-33 0 -43 33l-90 266q-6 12 -11 17.5t-19 5.5h-465q-23 0 -29 -23l-96 -270q-10 -29 -45 -29h-277q-16 0 -25.5 10t-9.5 29zM422 1847q0 16 18 37 q47 39 89 59.5t104 20.5q70 0 184 -37q96 -31 143 -31q70 0 150 54q10 8 22 8q16 0 23 -25l29 -121l2 -12q0 -23 -29 -43q-35 -25 -86 -41t-111 -16q-39 0 -82 9t-82 21q-92 31 -153 31q-41 0 -72 -11t-69 -38q-14 -10 -23 -10q-14 0 -20 24l-33 101q-4 16 -4 20zM604 651 q0 -18 25 -18h282q20 0 21 20q0 12 -2 19l-148 411q-2 12 -12 13q-8 0 -12 -13l-150 -411q-4 -8 -4 -21z" />
<glyph unicode="&#xc4;" horiz-adv-x="1607" d="M57 39q0 14 6 29l504 1409q8 25 20.5 34t37.5 9h356q49 0 70 -52l497 -1405q2 -6 2 -20q0 -18 -7 -30.5t-21 -12.5h-355q-33 0 -43 33l-90 266q-6 12 -11 17.5t-19 5.5h-465q-23 0 -29 -23l-96 -270q-10 -29 -45 -29h-277q-16 0 -25.5 10t-9.5 29zM409 1716v199 q0 39 31 39h254q31 0 31 -35v-199q0 -47 -53 -47h-222q-23 0 -32 10.5t-9 32.5zM604 651q0 -18 25 -18h282q20 0 21 20q0 12 -2 19l-148 411q-2 12 -12 13q-8 0 -12 -13l-150 -411q-4 -8 -4 -21zM864 1716v199q0 39 31 39h256q31 0 31 -35v-199q0 -25 -13.5 -36t-42.5 -11 h-219q-25 0 -34 10.5t-9 32.5z" />
<glyph unicode="&#xc5;" horiz-adv-x="1607" d="M57 39q0 14 6 29l504 1409q8 25 20.5 34t37.5 9h69q-61 29 -98 87t-37 130q0 94 69.5 160.5t166.5 66.5q96 0 164.5 -67.5t68.5 -163.5q0 -72 -36 -128.5t-97 -84.5h86q49 0 70 -52l497 -1405q2 -6 2 -20q0 -18 -7 -30.5t-21 -12.5h-355q-33 0 -43 33l-90 266 q-6 12 -11 17.5t-19 5.5h-465q-23 0 -29 -23l-96 -270q-10 -29 -45 -29h-277q-16 0 -25.5 10t-9.5 29zM604 651q0 -18 25 -18h282q21 0 21 20q0 12 -2 19l-148 411q-2 12 -12 13q-8 0 -12 -13l-150 -411q-4 -8 -4 -21zM688 1731q0 -41 32 -72t73 -31t70.5 31t29.5 72 q0 43 -29.5 71.5t-70.5 28.5q-43 0 -74 -28.5t-31 -71.5z" />
<glyph unicode="&#xc6;" horiz-adv-x="2263" d="M57 31q0 16 13 37l741 1409q12 25 25.5 34t37.5 9h1262q33 0 33 -39l-2 -213q0 -49 -47 -49h-625q-45 0 -45 -37v-232q0 -18 10 -28.5t25 -10.5h393q41 0 41 -37v-227q0 -12 -8 -21.5t-27 -9.5h-401q-14 0 -23.5 -8t-9.5 -20v-260q0 -14 5 -20.5t20 -6.5h673q21 0 31 -8 t10 -27v-225q0 -41 -45 -41h-1057q-27 0 -39 11.5t-12 35.5v248q0 27 -24 27h-426q-23 0 -33 -23l-141 -270q-14 -29 -50 -29h-274q-31 0 -31 31zM709 647q0 -14 20 -14h272q35 0 35 39v465q0 20 -7 31.5t-19 11.5q-27 0 -47 -41l-246 -467q-8 -14 -8 -25z" />
<glyph unicode="&#xc7;" horiz-adv-x="1497" d="M76 776q0 231 87 404.5t246.5 266.5t376.5 93q162 0 297.5 -59.5t221.5 -165t110 -236.5l4 -35q0 -16 -6 -21t-22 -7l-320 -23q-18 0 -23.5 7.5t-11.5 29.5q-47 225 -239 225q-289 0 -289 -485q0 -258 71.5 -373.5t217.5 -115.5q115 0 195.5 58t133.5 191q6 16 31 17 q12 0 21 -2l231 -45q12 -4 19.5 -12.5t7.5 -28.5q0 -12 -2 -21q-16 -76 -82 -175t-191 -181t-301 -98l-31 -78l-2 -8q0 -8 15 -9q106 -2 156.5 -52t50.5 -116q0 -80 -76 -128t-187 -48q-150 0 -245 49q-18 14 -11 31l33 78q6 16 23 10q86 -47 155 -47q47 0 74 16.5t27 43.5 q0 41 -42 61t-141 23q-16 0 -21 4t1 18l66 152q-190 18 -333 122.5t-219.5 278.5t-76.5 391z" />
<glyph unicode="&#xc8;" horiz-adv-x="1357" d="M125 47v1430q0 43 35 43h1071q33 0 33 -39v-213q0 -23 -12.5 -36t-37.5 -13h-632q-43 0 -43 -37v-232q0 -18 9 -28.5t23 -10.5h400q39 0 39 -37v-227q0 -31 -33 -31h-408q-31 0 -30 -28v-260q0 -14 5 -20.5t17 -6.5h682q20 0 30.5 -8t10.5 -27v-225q0 -41 -43 -41h-1067 q-27 0 -38 11.5t-11 35.5zM385 1777q0 12 5 21l53 152q6 16 16 22t23 0l485 -205q20 -10 21 -28l-5 -17l-28 -80q-12 -29 -33 -28q-6 0 -22 4l-476 121q-39 8 -39 38z" />
<glyph unicode="&#xc9;" horiz-adv-x="1357" d="M125 47v1430q0 43 35 43h1071q33 0 33 -39v-213q0 -23 -12.5 -36t-37.5 -13h-632q-43 0 -43 -37v-232q0 -18 9 -28.5t23 -10.5h400q39 0 39 -37v-227q0 -31 -33 -31h-408q-31 0 -30 -28v-260q0 -14 5 -20.5t17 -6.5h682q20 0 30.5 -8t10.5 -27v-225q0 -41 -43 -41h-1067 q-27 0 -38 11.5t-11 35.5zM389 1741q0 18 19 26l485 205q4 2 13 2q8 0 16 -6t10 -18l55 -152q4 -16 5 -21q0 -31 -41 -38l-476 -121q-16 -4 -20 -4q-23 0 -35 28l-26 80q-4 6 -5 19z" />
<glyph unicode="&#xca;" horiz-adv-x="1357" d="M125 47v1430q0 43 35 43h1071q33 0 33 -39v-213q0 -23 -12.5 -36t-37.5 -13h-632q-43 0 -43 -37v-232q0 -18 9 -28.5t23 -10.5h400q39 0 39 -37v-227q0 -31 -33 -31h-408q-31 0 -30 -28v-260q0 -14 5 -20.5t17 -6.5h682q20 0 30.5 -8t10.5 -27v-225q0 -41 -43 -41h-1067 q-27 0 -38 11.5t-11 35.5zM301 1677q0 6 15 25l225 241q12 16 27.5 22.5t41.5 6.5h175q33 0 53 -25l223 -245q16 -20 16 -27q0 -8 -18 -8h-199q-20 0 -30.5 3t-20.5 13l-88 111q-10 12 -18.5 20.5t-14.5 8.5q-10 0 -32 -29l-101 -111q-10 -12 -18 -14t-31 -2h-186 q-18 0 -19 10z" />
<glyph unicode="&#xcb;" horiz-adv-x="1357" d="M125 47v1430q0 43 35 43h1071q33 0 33 -39v-213q0 -23 -12.5 -36t-37.5 -13h-632q-43 0 -43 -37v-232q0 -18 9 -28.5t23 -10.5h400q39 0 39 -37v-227q0 -31 -33 -31h-408q-31 0 -30 -28v-260q0 -14 5 -20.5t17 -6.5h682q20 0 30.5 -8t10.5 -27v-225q0 -41 -43 -41h-1067 q-27 0 -38 11.5t-11 35.5zM303 1716v199q0 39 31 39h254q31 0 31 -35v-199q0 -47 -53 -47h-222q-23 0 -32 10.5t-9 32.5zM758 1716v199q0 39 31 39h256q31 0 31 -35v-199q0 -25 -13.5 -36t-42.5 -11h-219q-25 0 -34 10.5t-9 32.5z" />
<glyph unicode="&#xcc;" horiz-adv-x="661" d="M26 1777q0 12 5 21l53 152q6 16 16 22t23 0l485 -205q20 -10 21 -28l-5 -17l-28 -80q-12 -29 -33 -28q-6 0 -22 4l-476 121q-39 8 -39 38zM125 47v1430q0 20 9 31.5t26 11.5h344q35 0 35 -39v-1426q0 -31 -14.5 -43t-47.5 -12h-303q-29 0 -39 11.5t-10 35.5z" />
<glyph unicode="&#xcd;" horiz-adv-x="661" d="M30 1741q0 18 19 26l485 205q4 2 13 2q8 0 16 -6t10 -18l55 -152q4 -16 5 -21q0 -31 -41 -38l-476 -121q-16 -4 -20 -4q-23 0 -35 28l-26 80q-4 6 -5 19zM125 47v1430q0 20 9 31.5t26 11.5h344q35 0 35 -39v-1426q0 -31 -14.5 -43t-47.5 -12h-303q-29 0 -39 11.5 t-10 35.5z" />
<glyph unicode="&#xce;" horiz-adv-x="661" d="M-58 1677q0 6 15 25l225 241q12 16 27.5 22.5t41.5 6.5h175q33 0 53 -25l223 -245q16 -20 16 -27q0 -8 -18 -8h-199q-20 0 -30.5 3t-20.5 13l-88 111q-10 12 -18.5 20.5t-14.5 8.5q-10 0 -32 -29l-101 -111q-10 -12 -18 -14t-31 -2h-186q-18 0 -19 10zM125 47v1430 q0 20 9 31.5t26 11.5h344q35 0 35 -39v-1426q0 -31 -14.5 -43t-47.5 -12h-303q-29 0 -39 11.5t-10 35.5z" />
<glyph unicode="&#xcf;" horiz-adv-x="661" d="M-56 1716v199q0 39 31 39h254q31 0 31 -35v-199q0 -47 -53 -47h-222q-23 0 -32 10.5t-9 32.5zM125 47v1430q0 20 9 31.5t26 11.5h344q35 0 35 -39v-1426q0 -31 -14.5 -43t-47.5 -12h-303q-29 0 -39 11.5t-10 35.5zM399 1716v199q0 39 31 39h256q31 0 31 -35v-199 q0 -25 -13.5 -36t-42.5 -11h-219q-25 0 -34 10.5t-9 32.5z" />
<glyph unicode="&#xd0;" horiz-adv-x="1595" d="M53 664v172q0 43 35 43h72v594q0 27 10 37t39 10h219q223 0 283 -2q403 -15 605 -212.5t202 -541.5q0 -229 -91.5 -401.5t-273.5 -267.5t-446 -95h-494q-29 0 -41 12.5t-12 42.5v561h-60q-27 0 -37 11.5t-10 36.5zM573 317q0 -16 5.5 -22t21.5 -6h27q229 0 342.5 111.5 t113.5 367.5q0 229 -91 335.5t-275 121.5l-125 6q-18 0 -19 -29v-323h252q14 0 24.5 -11.5t10.5 -27.5v-170q0 -53 -63 -54h-224v-299z" />
<glyph unicode="&#xd1;" horiz-adv-x="1556" d="M125 39v1438q0 23 9 33t32 10h293q25 0 36 -6.5t27 -26.5l545 -768q12 -16 23 -17q10 0 10 25v754q0 39 41 39h262q31 0 31 -33v-1452q0 -16 -12.5 -25.5t-30.5 -9.5h-248q-16 0 -27.5 5t-25.5 24l-607 835q-8 12 -14 11t-6 -13v-821v-6q0 -18 -10.5 -26.5t-34.5 -8.5 h-248q-45 0 -45 39zM410 1847q0 16 18 37q47 39 89 59.5t104 20.5q70 0 184 -37q96 -31 143 -31q70 0 150 54q10 8 22 8q16 0 23 -25l29 -121l2 -12q0 -23 -29 -43q-35 -25 -86 -41t-111 -16q-39 0 -82 9t-82 21q-92 31 -153 31q-41 0 -72 -11t-69 -38q-14 -10 -23 -10 q-14 0 -20 24l-33 101q-4 16 -4 20z" />
<glyph unicode="&#xd2;" horiz-adv-x="1591" d="M76 756q0 238 89 415t252 273t380 96q215 0 377.5 -96t252 -273.5t89.5 -414.5q0 -236 -88.5 -411t-251 -270t-379.5 -95q-219 0 -382 94t-251 269t-88 413zM491 1777q0 12 5 21l53 152q6 16 16 22t23 0l485 -205q20 -10 21 -28l-5 -17l-28 -80q-12 -29 -33 -28 q-6 0 -22 4l-476 121q-39 8 -39 38zM510 750q0 -258 67.5 -371t221.5 -113q149 0 215.5 113t66.5 371q0 266 -68.5 385.5t-215.5 119.5q-150 0 -218.5 -119.5t-68.5 -385.5z" />
<glyph unicode="&#xd3;" horiz-adv-x="1591" d="M76 756q0 238 89 415t252 273t380 96q215 0 377.5 -96t252 -273.5t89.5 -414.5q0 -236 -88.5 -411t-251 -270t-379.5 -95q-219 0 -382 94t-251 269t-88 413zM495 1741q0 18 19 26l485 205q4 2 13 2q8 0 16 -6t10 -18l55 -152q4 -16 5 -21q0 -31 -41 -38l-476 -121 q-16 -4 -20 -4q-23 0 -35 28l-26 80q-4 6 -5 19zM510 750q0 -258 67.5 -371t221.5 -113q149 0 215.5 113t66.5 371q0 266 -68.5 385.5t-215.5 119.5q-150 0 -218.5 -119.5t-68.5 -385.5z" />
<glyph unicode="&#xd4;" horiz-adv-x="1591" d="M76 756q0 238 89 415t252 273t380 96q215 0 377.5 -96t252 -273.5t89.5 -414.5q0 -236 -88.5 -411t-251 -270t-379.5 -95q-219 0 -382 94t-251 269t-88 413zM407 1677q0 6 15 25l225 241q12 16 27.5 22.5t41.5 6.5h175q33 0 53 -25l223 -245q16 -20 16 -27q0 -8 -18 -8 h-199q-20 0 -30.5 3t-20.5 13l-88 111q-10 12 -18.5 20.5t-14.5 8.5q-10 0 -32 -29l-101 -111q-10 -12 -18 -14t-31 -2h-186q-18 0 -19 10zM510 750q0 -258 67.5 -371t221.5 -113q149 0 215.5 113t66.5 371q0 266 -68.5 385.5t-215.5 119.5q-150 0 -218.5 -119.5 t-68.5 -385.5z" />
<glyph unicode="&#xd5;" horiz-adv-x="1591" d="M76 756q0 238 89 415t252 273t380 96q215 0 377.5 -96t252 -273.5t89.5 -414.5q0 -236 -88.5 -411t-251 -270t-379.5 -95q-219 0 -382 94t-251 269t-88 413zM422 1847q0 16 18 37q47 39 89 59.5t104 20.5q70 0 184 -37q96 -31 143 -31q70 0 150 54q10 8 22 8q16 0 23 -25 l29 -121l2 -12q0 -23 -29 -43q-35 -25 -86 -41t-111 -16q-39 0 -82 9t-82 21q-92 31 -153 31q-41 0 -72 -11t-69 -38q-14 -10 -23 -10q-14 0 -20 24l-33 101q-4 16 -4 20zM510 750q0 -258 67.5 -371t221.5 -113q149 0 215.5 113t66.5 371q0 266 -68.5 385.5t-215.5 119.5 q-150 0 -218.5 -119.5t-68.5 -385.5z" />
<glyph unicode="&#xd6;" horiz-adv-x="1591" d="M76 756q0 238 89 415t252 273t380 96q215 0 377.5 -96t252 -273.5t89.5 -414.5q0 -236 -88.5 -411t-251 -270t-379.5 -95q-219 0 -382 94t-251 269t-88 413zM409 1716v199q0 39 31 39h254q31 0 31 -35v-199q0 -47 -53 -47h-222q-23 0 -32 10.5t-9 32.5zM510 750 q0 -258 67.5 -371t221.5 -113q149 0 215.5 113t66.5 371q0 266 -68.5 385.5t-215.5 119.5q-150 0 -218.5 -119.5t-68.5 -385.5zM864 1716v199q0 39 31 39h256q31 0 31 -35v-199q0 -25 -13.5 -36t-42.5 -11h-219q-25 0 -34 10.5t-9 32.5z" />
<glyph unicode="&#xd7;" horiz-adv-x="1206" d="M113 1085q0 14 18 33l121 121q16 16 33 16q12 0 22 -10l297 -297l289 289q18 18 35 18q14 0 30 -16l123 -123q14 -14 15 -31q0 -14 -11 -24l-297 -297l297 -297q10 -10 11 -25q0 -12 -13 -24l-122 -121q-18 -18 -35 -18q-20 0 -43 24l-279 279l-297 -297q-8 -12 -22 -13 q-14 0 -27 13l-121 123q-18 18 -18 34q0 20 24 45l277 277l-289 289q-18 18 -18 32z" />
<glyph unicode="&#xd8;" horiz-adv-x="1587" d="M29 127q0 10 14 29l143 143q-111 190 -110 457q0 238 89 415t252 273t380 96q279 0 469 -164l137 135q18 18 37 19q12 0 20 -8l103 -105q12 -12 12 -26q0 -12 -12 -25l-158 -158q109 -193 108 -452q0 -236 -88 -411t-249.5 -270t-378.5 -95q-281 0 -469 153l-121 -121 q-23 -23 -41 -22q-20 0 -41 20l-74 76q-23 27 -22 41zM510 750q0 -68 12 -123l492 501q-66 127 -217 127q-152 0 -219.5 -119.5t-67.5 -385.5zM578 379q66 -113 219 -113q152 0 216 111.5t64 372.5q0 82 -10 127z" />
<glyph unicode="&#xd9;" horiz-adv-x="1482" d="M106 623v854q0 43 37 43h342q35 0 35 -39v-908q0 -158 64.5 -229.5t187.5 -71.5q262 0 262 308v897q0 43 37 43h272q33 0 33 -39v-899q0 -324 -163.5 -463t-471.5 -139q-342 0 -488.5 158.5t-146.5 484.5zM466 1777q0 12 5 21l53 152q6 16 16 22t23 0l485 -205 q20 -10 21 -28l-5 -17l-28 -80q-12 -29 -33 -28q-6 0 -22 4l-476 121q-39 8 -39 38z" />
<glyph unicode="&#xda;" horiz-adv-x="1482" d="M106 623v854q0 43 37 43h342q35 0 35 -39v-908q0 -158 64.5 -229.5t187.5 -71.5q262 0 262 308v897q0 43 37 43h272q33 0 33 -39v-899q0 -324 -163.5 -463t-471.5 -139q-342 0 -488.5 158.5t-146.5 484.5zM471 1741q0 18 19 26l485 205q4 2 13 2q8 0 16 -6t10 -18 l55 -152q4 -16 5 -21q0 -31 -41 -38l-476 -121q-16 -4 -20 -4q-23 0 -35 28l-26 80q-4 6 -5 19z" />
<glyph unicode="&#xdb;" horiz-adv-x="1482" d="M106 623v854q0 43 37 43h342q35 0 35 -39v-908q0 -158 64.5 -229.5t187.5 -71.5q262 0 262 308v897q0 43 37 43h272q33 0 33 -39v-899q0 -324 -163.5 -463t-471.5 -139q-342 0 -488.5 158.5t-146.5 484.5zM383 1677q0 6 15 25l225 241q12 16 27.5 22.5t41.5 6.5h175 q33 0 53 -25l223 -245q16 -20 16 -27q0 -8 -18 -8h-199q-20 0 -30.5 3t-20.5 13l-88 111q-10 12 -18.5 20.5t-14.5 8.5q-10 0 -32 -29l-101 -111q-10 -12 -18 -14t-31 -2h-186q-18 0 -19 10z" />
<glyph unicode="&#xdc;" horiz-adv-x="1482" d="M106 623v854q0 43 37 43h342q35 0 35 -39v-908q0 -158 64.5 -229.5t187.5 -71.5q262 0 262 308v897q0 43 37 43h272q33 0 33 -39v-899q0 -324 -163.5 -463t-471.5 -139q-342 0 -488.5 158.5t-146.5 484.5zM385 1716v199q0 39 31 39h254q31 0 31 -35v-199q0 -47 -53 -47 h-222q-23 0 -32 10.5t-9 32.5zM840 1716v199q0 39 31 39h256q31 0 31 -35v-199q0 -25 -13.5 -36t-42.5 -11h-219q-25 0 -34 10.5t-9 32.5z" />
<glyph unicode="&#xdd;" horiz-adv-x="1546" d="M55 1491q0 29 43 29h361q27 0 39 -7.5t26 -31.5l277 -494q10 -20 18 -20q6 0 19 18l272 496q10 23 23.5 31t40.5 8h284q35 0 35 -23q0 -10 -8 -20l-481 -783q-12 -20 -15.5 -41.5t-3.5 -81.5v-516q0 -31 -14.5 -43t-46.5 -12h-303q-27 0 -38.5 11.5t-11.5 35.5v545 q0 27 -6 43t-20 41l-482 790q-8 14 -8 25zM499 1741q0 18 19 26l485 205q4 2 13 2q8 0 16 -6t10 -18l55 -152q4 -16 5 -21q0 -31 -41 -38l-476 -121q-16 -4 -20 -4q-23 0 -35 28l-26 80q-4 6 -5 19z" />
<glyph unicode="&#xde;" horiz-adv-x="1503" d="M125 47v1430q0 20 9 31.5t26 11.5h344q35 0 35 -39v-221q0 -23 18 -23h272q172 0 309.5 -53.5t218.5 -158.5t81 -259q0 -145 -71 -249.5t-197 -159t-291 -54.5h-318q-23 0 -22 -22v-228q0 -29 -14.5 -41t-47.5 -12h-305q-27 0 -37 11.5t-10 35.5zM539 637q0 -23 6 -32 t24 -9h248q90 0 143.5 48t53.5 128t-58.5 126t-150.5 46h-223q-25 0 -34 -9t-9 -32v-266z" />
<glyph unicode="&#xdf;" horiz-adv-x="1357" d="M25 813v172q0 41 43 41h51q16 0 21 8t5 25q6 199 138.5 330t416.5 131q220 0 339.5 -84t119.5 -238q0 -109 -66.5 -179.5t-218.5 -133.5q-18 -8 -25 -15.5t-7 -19.5q0 -10 7 -17.5t28 -13.5q147 -63 231 -113.5t143.5 -134.5t59.5 -211q0 -184 -124 -282t-337 -98 q-152 0 -252 55q-12 8 -15 19.5t1 21.5l78 164q10 16 22 16q8 0 16 -6q35 -20 67 -31.5t73 -11.5q63 0 104 29.5t41 87.5q0 51 -38 79.5t-140 69.5q-104 47 -164.5 115.5t-60.5 173.5q0 76 31.5 130t88.5 103l31 29q49 45 72.5 77t23.5 75q0 49 -37.5 80.5t-105.5 31.5 q-88 0 -136 -53t-48 -139v-1055q2 -6 2 -14q0 -27 -31 -27h-295q-33 0 -33 37v719q0 20 -16 20h-63q-41 0 -41 37z" />
<glyph unicode="&#xe0;" horiz-adv-x="1163" d="M45 279q0 117 74 205.5t212 138t326 51.5l41 2q33 0 33 29v38q0 68 -38 105t-109 37q-57 0 -105.5 -25.5t-79.5 -83.5q-6 -12 -12 -17t-18 -5t-21 2l-237 49q-20 4 -21 24q0 12 8 35q94 242 502 242q256 0 366.5 -89t110.5 -251v-715q0 -31 -8 -41t-35 -10h-248 q-23 0 -33 16.5t-16 46.5l-2 31q-2 18 -14 19q-12 0 -35 -19q-135 -114 -309 -114q-152 0 -242 83.5t-90 215.5zM294 1343q0 12 5 21l53 152q6 16 16 22t23 0l485 -205q20 -10 21 -28l-5 -17l-28 -80q-12 -29 -33 -28q-6 0 -22 4l-476 121q-39 8 -39 38zM399 328 q0 -53 38 -84t102 -31q76 0 135 47q57 49 57 90v121q0 18 -7 26.5t-24 8.5l-32 -2q-55 -2 -118 -21.5t-107 -59.5t-44 -95z" />
<glyph unicode="&#xe1;" horiz-adv-x="1163" d="M45 279q0 117 74 205.5t212 138t326 51.5l41 2q33 0 33 29v38q0 68 -38 105t-109 37q-57 0 -105.5 -25.5t-79.5 -83.5q-6 -12 -12 -17t-18 -5t-21 2l-237 49q-20 4 -21 24q0 12 8 35q94 242 502 242q256 0 366.5 -89t110.5 -251v-715q0 -31 -8 -41t-35 -10h-248 q-23 0 -33 16.5t-16 46.5l-2 31q-2 18 -14 19q-12 0 -35 -19q-135 -114 -309 -114q-152 0 -242 83.5t-90 215.5zM299 1307q0 18 19 26l485 205q4 2 13 2q8 0 16 -6t10 -18l55 -152q4 -16 5 -21q0 -31 -41 -38l-476 -121q-16 -4 -20 -4q-23 0 -35 28l-26 80q-4 6 -5 19z M399 328q0 -53 38 -84t102 -31q76 0 135 47q57 49 57 90v121q0 18 -7 26.5t-24 8.5l-32 -2q-55 -2 -118 -21.5t-107 -59.5t-44 -95z" />
<glyph unicode="&#xe2;" horiz-adv-x="1163" d="M45 279q0 117 74 205.5t212 138t326 51.5l41 2q33 0 33 29v38q0 68 -38 105t-109 37q-57 0 -105.5 -25.5t-79.5 -83.5q-6 -12 -12 -17t-18 -5t-21 2l-237 49q-20 4 -21 24q0 12 8 35q94 242 502 242q256 0 366.5 -89t110.5 -251v-715q0 -31 -8 -41t-35 -10h-248 q-23 0 -33 16.5t-16 46.5l-2 31q-2 18 -14 19q-12 0 -35 -19q-135 -114 -309 -114q-152 0 -242 83.5t-90 215.5zM211 1243q0 6 15 25l225 241q12 16 27.5 22.5t41.5 6.5h175q33 0 53 -25l223 -245q16 -20 16 -27q0 -8 -18 -8h-199q-20 0 -30.5 3t-20.5 13l-88 111 q-10 12 -18.5 20.5t-14.5 8.5q-10 0 -32 -29l-101 -111q-10 -12 -18 -14t-31 -2h-186q-18 0 -19 10zM399 328q0 -53 38 -84t102 -31q76 0 135 47q57 49 57 90v121q0 18 -7 26.5t-24 8.5l-32 -2q-55 -2 -118 -21.5t-107 -59.5t-44 -95z" />
<glyph unicode="&#xe3;" horiz-adv-x="1163" d="M45 279q0 117 74 205.5t212 138t326 51.5l41 2q33 0 33 29v38q0 68 -38 105t-109 37q-57 0 -105.5 -25.5t-79.5 -83.5q-6 -12 -12 -17t-18 -5t-21 2l-237 49q-20 4 -21 24q0 12 8 35q94 242 502 242q256 0 366.5 -89t110.5 -251v-715q0 -31 -8 -41t-35 -10h-248 q-23 0 -33 16.5t-16 46.5l-2 31q-2 18 -14 19q-12 0 -35 -19q-135 -114 -309 -114q-152 0 -242 83.5t-90 215.5zM226 1413q0 16 18 37q47 39 89 59.5t104 20.5q70 0 184 -37q96 -31 143 -31q70 0 150 54q10 8 22 8q16 0 23 -25l29 -121l2 -12q0 -23 -29 -43q-35 -25 -86 -41 t-111 -16q-39 0 -82 9t-82 21q-92 31 -153 31q-41 0 -72 -11t-69 -38q-14 -10 -23 -10q-14 0 -20 24l-33 101q-4 16 -4 20zM399 328q0 -53 38 -84t102 -31q76 0 135 47q57 49 57 90v121q0 18 -7 26.5t-24 8.5l-32 -2q-55 -2 -118 -21.5t-107 -59.5t-44 -95z" />
<glyph unicode="&#xe4;" horiz-adv-x="1163" d="M45 279q0 117 74 205.5t212 138t326 51.5l41 2q33 0 33 29v38q0 68 -38 105t-109 37q-57 0 -105.5 -25.5t-79.5 -83.5q-6 -12 -12 -17t-18 -5t-21 2l-237 49q-20 4 -21 24q0 12 8 35q94 242 502 242q256 0 366.5 -89t110.5 -251v-715q0 -31 -8 -41t-35 -10h-248 q-23 0 -33 16.5t-16 46.5l-2 31q-2 18 -14 19q-12 0 -35 -19q-135 -114 -309 -114q-152 0 -242 83.5t-90 215.5zM213 1282v199q0 39 31 39h254q31 0 31 -35v-199q0 -47 -53 -47h-222q-23 0 -32 10.5t-9 32.5zM399 328q0 -53 38 -84t102 -31q76 0 135 47q57 49 57 90v121 q0 18 -7 26.5t-24 8.5l-32 -2q-55 -2 -118 -21.5t-107 -59.5t-44 -95zM668 1282v199q0 39 31 39h256q31 0 31 -35v-199q0 -25 -13.5 -36t-42.5 -11h-219q-25 0 -34 10.5t-9 32.5z" />
<glyph unicode="&#xe5;" horiz-adv-x="1163" d="M45 279q0 117 74 205.5t212 138t326 51.5l41 2q33 0 33 29v38q0 68 -38 105t-109 37q-57 0 -105.5 -25.5t-79.5 -83.5q-6 -12 -12 -17t-18 -5t-21 2l-237 49q-20 4 -21 24q0 12 8 35q94 242 502 242q256 0 366.5 -89t110.5 -251v-715q0 -31 -8 -41t-35 -10h-248 q-23 0 -33 16.5t-16 46.5l-2 31q-2 18 -14 19q-12 0 -35 -19q-135 -114 -309 -114q-152 0 -242 83.5t-90 215.5zM365 1419q0 94 69.5 160.5t165.5 66.5t165 -67.5t69 -163.5q0 -99 -69 -167.5t-165 -68.5q-98 0 -166.5 69.5t-68.5 170.5zM399 328q0 -53 38 -84t102 -31 q76 0 135 47q57 49 57 90v121q0 18 -7 26.5t-24 8.5l-32 -2q-55 -2 -118 -21.5t-107 -59.5t-44 -95zM494 1413q0 -41 31.5 -72t72.5 -31t70.5 31t29.5 72q0 43 -29.5 71.5t-70.5 28.5q-43 0 -73.5 -28.5t-30.5 -71.5z" />
<glyph unicode="&#xe6;" horiz-adv-x="1878" d="M45 291q0 166 146.5 266t429.5 115l73 4q37 0 37 29v38q0 68 -37 105t-110 37q-57 0 -105.5 -25.5t-79.5 -83.5q-6 -12 -12 -17t-16 -5q-12 0 -23 2l-237 49q-8 2 -12.5 12t-4.5 23q0 18 4 24q63 125 174 183.5t322 58.5q268 -2 377 -105q135 104 315 105 q158 0 282 -68.5t193.5 -199.5t69.5 -312q0 -29 -6 -39t-31 -12h-659q-33 0 -33 -37q0 -98 67.5 -156.5t169.5 -58.5q66 0 122.5 30t121.5 95q8 8 16 8q12 0 23 -4l168 -69q16 -6 16 -23q0 -12 -10 -22q-98 -143 -214 -200.5t-290 -57.5q-131 0 -240.5 48t-185.5 128 q-8 12 -20 0q-90 -90 -195.5 -133t-253.5 -43q-168 0 -260 83.5t-92 227.5zM399 315q0 -55 38 -85.5t106 -30.5q78 2 133 38.5t55 94.5v125q0 35 -37 35l-51 -5q-92 -6 -168 -52t-76 -120zM1108 670l334 -2q20 0 27.5 6t7.5 24q0 41 -20.5 85t-60.5 75t-96 31 q-81 0 -137.5 -57.5t-54.5 -161.5z" />
<glyph unicode="&#xe7;" horiz-adv-x="1132" d="M53 539q0 166 73 295t200 200.5t284 71.5q131 0 230.5 -48t161 -124t83.5 -158l5 -20q0 -25 -37 -29l-248 -16q-2 0 -4 -1t-6 1q-16 0 -23 24q-23 66 -53.5 101.5t-97.5 35.5q-94 0 -146.5 -81.5t-52.5 -247.5q0 -334 217 -334q80 0 126 41t95 127q4 8 12.5 10t26.5 0 l172 -37q21 -2 21 -20q0 -6 -5 -23q-16 -61 -64 -129.5t-134 -124t-205 -69.5l-31 -78l-2 -8q0 -8 15 -9q106 -2 156 -52t50 -116q0 -80 -75.5 -128t-186.5 -48q-150 0 -245 49q-18 14 -11 31l33 78q6 16 23 10q86 -47 155 -47q47 0 74 16.5t27 43.5q0 41 -42 61t-141 23 q-16 0 -21 4t1 18l65 152q-139 16 -246.5 91t-168 194.5t-60.5 269.5z" />
<glyph unicode="&#xe8;" horiz-adv-x="1204" d="M53 526q0 170 76 302.5t204 205t279 72.5q160 0 283 -68.5t192.5 -199.5t69.5 -312q0 -29 -5 -39t-30 -12h-665q-29 0 -29 -33q0 -102 67.5 -160.5t172.5 -58.5q63 0 119.5 29t121.5 96q8 8 19 8q10 0 20 -4l168 -69q18 -8 19 -23q0 -8 -11 -22q-102 -147 -216.5 -202.5 t-289.5 -55.5q-160 0 -288.5 69.5t-202.5 193.5t-74 283zM309 1343q0 12 5 21l53 152q6 16 16 22t23 0l485 -205q20 -10 21 -28l-5 -17l-28 -80q-12 -29 -33 -28q-6 0 -22 4l-476 121q-39 8 -39 38zM434 670l334 -2q20 0 27.5 5t7.5 23q0 70 -46 131.5t-128 61.5 q-86 0 -141.5 -59.5t-53.5 -159.5z" />
<glyph unicode="&#xe9;" horiz-adv-x="1204" d="M53 526q0 170 76 302.5t204 205t279 72.5q160 0 283 -68.5t192.5 -199.5t69.5 -312q0 -29 -5 -39t-30 -12h-665q-29 0 -29 -33q0 -102 67.5 -160.5t172.5 -58.5q63 0 119.5 29t121.5 96q8 8 19 8q10 0 20 -4l168 -69q18 -8 19 -23q0 -8 -11 -22q-102 -147 -216.5 -202.5 t-289.5 -55.5q-160 0 -288.5 69.5t-202.5 193.5t-74 283zM313 1307q0 18 19 26l485 205q4 2 13 2q8 0 16 -6t10 -18l55 -152q4 -16 5 -21q0 -31 -41 -38l-476 -121q-16 -4 -20 -4q-23 0 -35 28l-26 80q-4 6 -5 19zM434 670l334 -2q20 0 27.5 5t7.5 23q0 70 -46 131.5 t-128 61.5q-86 0 -141.5 -59.5t-53.5 -159.5z" />
<glyph unicode="&#xea;" horiz-adv-x="1204" d="M53 526q0 170 76 302.5t204 205t279 72.5q160 0 283 -68.5t192.5 -199.5t69.5 -312q0 -29 -5 -39t-30 -12h-665q-29 0 -29 -33q0 -102 67.5 -160.5t172.5 -58.5q63 0 119.5 29t121.5 96q8 8 19 8q10 0 20 -4l168 -69q18 -8 19 -23q0 -8 -11 -22q-102 -147 -216.5 -202.5 t-289.5 -55.5q-160 0 -288.5 69.5t-202.5 193.5t-74 283zM225 1243q0 6 15 25l225 241q12 16 27.5 22.5t41.5 6.5h175q33 0 53 -25l223 -245q16 -20 16 -27q0 -8 -18 -8h-199q-20 0 -30.5 3t-20.5 13l-88 111q-10 12 -18.5 20.5t-14.5 8.5q-10 0 -32 -29l-101 -111 q-10 -12 -18 -14t-31 -2h-186q-18 0 -19 10zM434 670l334 -2q20 0 27.5 5t7.5 23q0 70 -46 131.5t-128 61.5q-86 0 -141.5 -59.5t-53.5 -159.5z" />
<glyph unicode="&#xeb;" horiz-adv-x="1204" d="M53 526q0 170 76 302.5t204 205t279 72.5q160 0 283 -68.5t192.5 -199.5t69.5 -312q0 -29 -5 -39t-30 -12h-665q-29 0 -29 -33q0 -102 67.5 -160.5t172.5 -58.5q63 0 119.5 29t121.5 96q8 8 19 8q10 0 20 -4l168 -69q18 -8 19 -23q0 -8 -11 -22q-102 -147 -216.5 -202.5 t-289.5 -55.5q-160 0 -288.5 69.5t-202.5 193.5t-74 283zM227 1282v199q0 39 31 39h254q31 0 31 -35v-199q0 -47 -53 -47h-222q-23 0 -32 10.5t-9 32.5zM434 670l334 -2q20 0 27.5 5t7.5 23q0 70 -46 131.5t-128 61.5q-86 0 -141.5 -59.5t-53.5 -159.5zM682 1282v199 q0 39 31 39h256q31 0 31 -35v-199q0 -25 -13.5 -36t-42.5 -11h-219q-25 0 -34 10.5t-9 32.5z" />
<glyph unicode="&#xec;" horiz-adv-x="561" d="M-19 1343q0 12 5 21l53 152q6 16 16 22t23 0l485 -205q20 -10 21 -28l-5 -17l-28 -80q-12 -29 -33 -28q-6 0 -22 4l-476 121q-39 8 -39 38zM98 47v995q0 43 37 43h293q35 0 35 -38v-992q0 -31 -14.5 -43t-47.5 -12h-254q-29 0 -39 11.5t-10 35.5z" />
<glyph unicode="&#xed;" horiz-adv-x="561" d="M-15 1307q0 18 19 26l485 205q4 2 13 2q8 0 16 -6t10 -18l55 -152q4 -16 5 -21q0 -31 -41 -38l-476 -121q-16 -4 -20 -4q-23 0 -35 28l-26 80q-4 6 -5 19zM98 47v995q0 43 37 43h293q35 0 35 -38v-992q0 -31 -14.5 -43t-47.5 -12h-254q-29 0 -39 11.5t-10 35.5z" />
<glyph unicode="&#xee;" horiz-adv-x="561" d="M-103 1243q0 6 15 25l225 241q12 16 27.5 22.5t41.5 6.5h175q33 0 53 -25l223 -245q16 -20 16 -27q0 -8 -18 -8h-199q-20 0 -30.5 3t-20.5 13l-88 111q-10 12 -18.5 20.5t-14.5 8.5q-10 0 -32 -29l-101 -111q-10 -12 -18 -14t-31 -2h-186q-18 0 -19 10zM98 47v995 q0 43 37 43h293q35 0 35 -38v-992q0 -31 -14.5 -43t-47.5 -12h-254q-29 0 -39 11.5t-10 35.5z" />
<glyph unicode="&#xef;" horiz-adv-x="561" d="M-101 1282v199q0 39 31 39h254q31 0 31 -35v-199q0 -47 -53 -47h-222q-23 0 -32 10.5t-9 32.5zM98 47v995q0 43 37 43h293q35 0 35 -38v-992q0 -31 -14.5 -43t-47.5 -12h-254q-29 0 -39 11.5t-10 35.5zM354 1282v199q0 39 31 39h256q31 0 31 -35v-199q0 -25 -13.5 -36 t-42.5 -11h-219q-25 0 -34 10.5t-9 32.5z" />
<glyph unicode="&#xf0;" d="M53 516q0 158 73 283t201 195.5t285 70.5q37 0 52 -10q-63 98 -164 170l-217 -123q-8 -6 -19 -6q-14 0 -28 20l-29 47q-8 10 -8 23q0 12 12 18l170 94q-84 43 -178 76q-10 4 -10 15q0 6 8 14l151 125q12 12 23 12q4 0 20 -4q137 -35 246 -92l162 90q10 6 16 6 q12 0 19 -10l41 -74q4 -4 4 -10t-13 -16l-106 -60q199 -137 305.5 -346t106.5 -455q0 -178 -70 -311t-198 -205.5t-296 -72.5q-164 0 -290.5 69.5t-197.5 192.5t-71 274zM422 524q0 -152 48 -229.5t144 -77.5q193 0 193 307q0 152 -49 232t-144 80q-94 0 -143 -80t-49 -232z " />
<glyph unicode="&#xf1;" d="M98 47v995q0 43 35 43h291q35 0 35 -36v-99q0 -16 10 -16q6 0 14 8q160 164 336 164q145 0 234.5 -89t89.5 -239v-723q0 -55 -58 -55h-264q-25 0 -34 10t-9 37v680q0 55 -34.5 87t-94.5 32q-55 0 -99 -27.5t-87 -87.5v-678q0 -29 -14.5 -41t-47.5 -12h-254 q-26 0 -37.5 10t-11.5 37zM248 1413q0 16 18 37q47 39 89 59.5t104 20.5q70 0 184 -37q96 -31 143 -31q70 0 150 54q10 8 22 8q16 0 23 -25l29 -121l2 -12q0 -23 -29 -43q-35 -25 -86 -41t-111 -16q-39 0 -82 9t-82 21q-92 31 -153 31q-41 0 -72 -11t-69 -38 q-14 -10 -23 -10q-14 0 -20 24l-33 101q-4 16 -4 20z" />
<glyph unicode="&#xf2;" d="M53 537q0 166 73 296t201 201.5t287 71.5q166 0 293 -72.5t198 -203t71 -293.5q0 -160 -72 -287t-200 -198.5t-292 -71.5q-163 0 -290 70.5t-198 197.5t-71 289zM309 1343q0 12 5 21l53 152q6 16 16 22t23 0l485 -205q20 -10 21 -28l-5 -17l-28 -80q-12 -29 -33 -28 q-6 0 -22 4l-476 121q-39 8 -39 38zM422 545q0 -166 48 -247t144 -81q99 0 146 80t47 248t-48 250t-145 82q-96 0 -144 -82t-48 -250z" />
<glyph unicode="&#xf3;" d="M53 537q0 166 73 296t201 201.5t287 71.5q166 0 293 -72.5t198 -203t71 -293.5q0 -160 -72 -287t-200 -198.5t-292 -71.5q-163 0 -290 70.5t-198 197.5t-71 289zM313 1307q0 18 19 26l485 205q4 2 13 2q8 0 16 -6t10 -18l55 -152q4 -16 5 -21q0 -31 -41 -38l-476 -121 q-16 -4 -20 -4q-23 0 -35 28l-26 80q-4 6 -5 19zM422 545q0 -166 48 -247t144 -81q99 0 146 80t47 248t-48 250t-145 82q-96 0 -144 -82t-48 -250z" />
<glyph unicode="&#xf4;" d="M53 537q0 166 73 296t201 201.5t287 71.5q166 0 293 -72.5t198 -203t71 -293.5q0 -160 -72 -287t-200 -198.5t-292 -71.5q-163 0 -290 70.5t-198 197.5t-71 289zM225 1243q0 6 15 25l225 241q12 16 27.5 22.5t41.5 6.5h175q33 0 53 -25l223 -245q16 -20 16 -27 q0 -8 -18 -8h-199q-20 0 -30.5 3t-20.5 13l-88 111q-10 12 -18.5 20.5t-14.5 8.5q-10 0 -32 -29l-101 -111q-10 -12 -18 -14t-31 -2h-186q-18 0 -19 10zM422 545q0 -166 48 -247t144 -81q99 0 146 80t47 248t-48 250t-145 82q-96 0 -144 -82t-48 -250z" />
<glyph unicode="&#xf5;" d="M53 537q0 166 73 296t201 201.5t287 71.5q166 0 293 -72.5t198 -203t71 -293.5q0 -160 -72 -287t-200 -198.5t-292 -71.5q-163 0 -290 70.5t-198 197.5t-71 289zM240 1413q0 16 18 37q47 39 89 59.5t104 20.5q70 0 184 -37q96 -31 143 -31q70 0 150 54q10 8 22 8 q16 0 23 -25l29 -121l2 -12q0 -23 -29 -43q-35 -25 -86 -41t-111 -16q-39 0 -82 9t-82 21q-92 31 -153 31q-41 0 -72 -11t-69 -38q-14 -10 -23 -10q-14 0 -20 24l-33 101q-4 16 -4 20zM422 545q0 -166 48 -247t144 -81q99 0 146 80t47 248t-48 250t-145 82q-96 0 -144 -82 t-48 -250z" />
<glyph unicode="&#xf6;" d="M53 537q0 166 73 296t201 201.5t287 71.5q166 0 293 -72.5t198 -203t71 -293.5q0 -160 -72 -287t-200 -198.5t-292 -71.5q-163 0 -290 70.5t-198 197.5t-71 289zM227 1282v199q0 39 31 39h254q31 0 31 -35v-199q0 -47 -53 -47h-222q-23 0 -32 10.5t-9 32.5zM422 545 q0 -166 48 -247t144 -81q99 0 146 80t47 248t-48 250t-145 82q-96 0 -144 -82t-48 -250zM682 1282v199q0 39 31 39h256q31 0 31 -35v-199q0 -25 -13.5 -36t-42.5 -11h-219q-25 0 -34 10.5t-9 32.5z" />
<glyph unicode="&#xf7;" horiz-adv-x="1216" d="M90 680v172q0 43 35 43h967q14 0 23 -10.5t9 -26.5v-172q0 -27 -14 -39t-45 -12h-926q-27 0 -38 10t-11 35zM430 199v264q0 37 33 37h297q29 0 28 -33v-262q0 -27 -12 -37t-43 -10h-258q-25 0 -35 9t-10 32zM430 1073v262q0 37 33 37h297q29 0 28 -33v-262q0 -27 -12 -38 t-43 -11h-258q-25 0 -35 11.5t-10 33.5z" />
<glyph unicode="&#xf8;" d="M41 102q0 12 16 29l88 82q-92 139 -92 324q0 166 73 296t201 201.5t287 71.5q207 0 357 -117l82 78q18 18 37 18q12 0 22 -10l64 -67q12 -13 12 -27q0 -12 -12 -25l-95 -88q94 -141 95 -331q0 -160 -72 -287t-200 -198.5t-292 -71.5q-209 0 -356 114l-76 -71 q-23 -23 -41 -23q-20 0 -39 23l-37 38q-23 27 -22 41zM422 545q0 -47 2 -70l336 318q-45 84 -146 84q-96 0 -144 -82t-48 -250zM471 295q47 -78 143 -78q98 0 145.5 80t47.5 248q0 43 -2 63z" />
<glyph unicode="&#xf9;" horiz-adv-x="1222" d="M86 315v715q0 55 57 55h265q25 0 34 -10t9 -39v-676q0 -57 33.5 -89.5t88.5 -32.5q52 0 100 27.5t87 74.5v692q0 29 14 41t47 12h258q27 0 38 -11t11 -38l-8 -995q0 -41 -35 -41h-284q-35 0 -35 37v96q0 12 -7 15.5t-16 -7.5q-78 -84 -161.5 -122.5t-184.5 -38.5 q-139 0 -225 90t-86 245zM299 1343q0 12 5 21l53 152q6 16 16 22t23 0l485 -205q20 -10 21 -28l-5 -17l-28 -80q-12 -29 -33 -28q-6 0 -22 4l-476 121q-39 8 -39 38z" />
<glyph unicode="&#xfa;" horiz-adv-x="1222" d="M86 315v715q0 55 57 55h265q25 0 34 -10t9 -39v-676q0 -57 33.5 -89.5t88.5 -32.5q52 0 100 27.5t87 74.5v692q0 29 14 41t47 12h258q27 0 38 -11t11 -38l-8 -995q0 -41 -35 -41h-284q-35 0 -35 37v96q0 12 -7 15.5t-16 -7.5q-78 -84 -161.5 -122.5t-184.5 -38.5 q-139 0 -225 90t-86 245zM303 1307q0 18 19 26l485 205q4 2 13 2q8 0 16 -6t10 -18l55 -152q4 -16 5 -21q0 -31 -41 -38l-476 -121q-16 -4 -20 -4q-23 0 -35 28l-26 80q-4 6 -5 19z" />
<glyph unicode="&#xfb;" horiz-adv-x="1222" d="M86 315v715q0 55 57 55h265q25 0 34 -10t9 -39v-676q0 -57 33.5 -89.5t88.5 -32.5q52 0 100 27.5t87 74.5v692q0 29 14 41t47 12h258q27 0 38 -11t11 -38l-8 -995q0 -41 -35 -41h-284q-35 0 -35 37v96q0 12 -7 15.5t-16 -7.5q-78 -84 -161.5 -122.5t-184.5 -38.5 q-139 0 -225 90t-86 245zM215 1243q0 6 15 25l225 241q12 16 27.5 22.5t41.5 6.5h175q33 0 53 -25l223 -245q16 -20 16 -27q0 -8 -18 -8h-199q-20 0 -30.5 3t-20.5 13l-88 111q-10 12 -18.5 20.5t-14.5 8.5q-10 0 -32 -29l-101 -111q-10 -12 -18 -14t-31 -2h-186 q-18 0 -19 10z" />
<glyph unicode="&#xfc;" horiz-adv-x="1222" d="M86 315v715q0 55 57 55h265q25 0 34 -10t9 -39v-676q0 -57 33.5 -89.5t88.5 -32.5q52 0 100 27.5t87 74.5v692q0 29 14 41t47 12h258q27 0 38 -11t11 -38l-8 -995q0 -41 -35 -41h-284q-35 0 -35 37v96q0 12 -7 15.5t-16 -7.5q-78 -84 -161.5 -122.5t-184.5 -38.5 q-139 0 -225 90t-86 245zM217 1282v199q0 39 31 39h254q31 0 31 -35v-199q0 -47 -53 -47h-222q-23 0 -32 10.5t-9 32.5zM672 1282v199q0 39 31 39h256q31 0 31 -35v-199q0 -25 -13.5 -36t-42.5 -11h-219q-25 0 -34 10.5t-9 32.5z" />
<glyph unicode="&#xfd;" horiz-adv-x="1183" d="M35 1047q0 16 10 27t29 11h303q18 0 31.5 -10t19.5 -26l199 -549q6 -20 16 -21q10 0 19 21l198 549q18 37 49 36h205q18 0 27.5 -10t9.5 -26l-4 -17l-410 -999q-63 -156 -130.5 -235t-158 -107.5t-237.5 -28.5q-70 0 -93.5 7t-23.5 34v184q0 37 58 37h141q61 0 103 37 t42 80q0 8 -4 25l-397 964q-2 6 -2 17zM346 1307q0 18 19 26l485 205q4 2 13 2q8 0 16 -6t10 -18l55 -152q4 -16 5 -21q0 -31 -41 -38l-476 -121q-16 -4 -20 -4q-23 0 -35 28l-26 80q-4 6 -5 19z" />
<glyph unicode="&#xfe;" horiz-adv-x="1249" d="M98 -297v1767q0 27 11.5 38.5t40.5 11.5h266q26 0 36.5 -10.5t10.5 -34.5v-486q0 -14 12 -14q10 0 19 8q63 59 129.5 91t162.5 32q184 0 298 -141.5t114 -415.5q0 -287 -117.5 -428t-308.5 -141q-78 0 -143.5 24.5t-124.5 79.5q-25 20 -31 20q-10 0 -10 -30v-373 q0 -39 -35 -39h-295q-35 0 -35 41zM463 297q70 -92 168 -92q96 0 147 81t51 273q0 178 -50 250t-146 72q-72 0 -121 -41t-49 -97v-446z" />
<glyph unicode="&#xff;" horiz-adv-x="1183" d="M35 1047q0 16 10 27t29 11h303q18 0 31.5 -10t19.5 -26l199 -549q6 -20 16 -21q10 0 19 21l198 549q18 37 49 36h205q18 0 27.5 -10t9.5 -26l-4 -17l-410 -999q-63 -156 -130.5 -235t-158 -107.5t-237.5 -28.5q-70 0 -93.5 7t-23.5 34v184q0 37 58 37h141q61 0 103 37 t42 80q0 8 -4 25l-397 964q-2 6 -2 17zM260 1282v199q0 39 31 39h254q31 0 31 -35v-199q0 -47 -53 -47h-222q-23 0 -32 10.5t-9 32.5zM715 1282v199q0 39 31 39h256q31 0 31 -35v-199q0 -25 -13.5 -36t-42.5 -11h-219q-25 0 -34 10.5t-9 32.5z" />
<glyph unicode="&#x152;" horiz-adv-x="2312" d="M76 756q0 240 91 416t263 272t410 96q186 0 299 -61l73 39q12 2 39 2h934q33 0 33 -39v-213q0 -23 -12.5 -36t-36.5 -13h-631q-43 0 -43 -37v-232q0 -39 35 -39h395q39 0 39 -37v-227q0 -31 -33 -31h-405q-31 0 -31 -28v-260q0 -14 5 -20.5t20 -6.5h678q20 0 30 -8 t10 -27v-225q0 -41 -43 -41h-927q-27 0 -39 2l-90 37q-123 -59 -320 -59q-229 0 -397 94t-257 269t-89 413zM510 750q0 -258 67.5 -371t221.5 -113q149 0 214.5 113t65.5 371q0 266 -67.5 385.5t-214.5 119.5q-150 0 -218.5 -119.5t-68.5 -385.5z" />
<glyph unicode="&#x153;" horiz-adv-x="1947" d="M53 537q0 168 73 297t201 200.5t287 71.5q209 0 355 -125q16 -12 24 -12q12 0 25 12q68 61 153.5 93t182.5 32q160 0 283.5 -68.5t193.5 -200.5t70 -313q0 -27 -7.5 -37t-29.5 -12h-662q-31 0 -31 -35q0 -102 68 -159.5t170 -57.5q66 0 122 29t120 96q8 8 18 8 q12 0 23 -4l168 -69q16 -6 16 -23q0 -12 -10 -22q-102 -145 -216 -201.5t-288 -56.5q-104 0 -196.5 32.5t-161.5 91.5q-10 6 -17 7q-10 0 -18 -9q-70 -59 -161 -90.5t-196 -31.5q-163 0 -290 70.5t-198 197.5t-71 289zM422 545q0 -328 192 -328q97 0 145 81t48 247 q0 168 -48 250t-145 82q-193 0 -192 -332zM1178 670l333 -2q20 0 27.5 5t7.5 23q0 70 -47 131.5t-129 61.5t-138 -58.5t-54 -160.5z" />
<glyph unicode="&#x178;" horiz-adv-x="1546" d="M55 1491q0 29 43 29h361q27 0 39 -7.5t26 -31.5l277 -494q10 -20 18 -20q6 0 19 18l272 496q10 23 23.5 31t40.5 8h284q35 0 35 -23q0 -10 -8 -20l-481 -783q-12 -20 -15.5 -41.5t-3.5 -81.5v-516q0 -31 -14.5 -43t-46.5 -12h-303q-27 0 -38.5 11.5t-11.5 35.5v545 q0 27 -6 43t-20 41l-482 790q-8 14 -8 25zM413 1716v199q0 39 31 39h254q31 0 31 -35v-199q0 -47 -53 -47h-222q-23 0 -32 10.5t-9 32.5zM868 1716v199q0 39 31 39h256q31 0 31 -35v-199q0 -25 -13.5 -36t-42.5 -11h-219q-25 0 -34 10.5t-9 32.5z" />
<glyph unicode="&#x2c6;" horiz-adv-x="821" d="M20 1243q0 6 15 25l225 241q12 16 27.5 22.5t41.5 6.5h175q33 0 53 -25l223 -245q16 -20 16 -27q0 -8 -18 -8h-199q-20 0 -30.5 3t-20.5 13l-88 111q-10 12 -18.5 20.5t-14.5 8.5q-10 0 -32 -29l-101 -111q-10 -12 -18 -14t-31 -2h-186q-18 0 -19 10z" />
<glyph unicode="&#x2dc;" horiz-adv-x="892" d="M70 1413q0 16 18 37q47 39 89 59.5t104 20.5q70 0 184 -37q96 -31 143 -31q70 0 150 54q10 8 22 8q16 0 23 -25l29 -121l2 -12q0 -23 -29 -43q-35 -25 -86 -41t-111 -16q-39 0 -82 9t-82 21q-92 31 -153 31q-41 0 -72 -11t-69 -38q-14 -10 -23 -10q-14 0 -20 24l-33 101 q-4 16 -4 20z" />
<glyph unicode="&#x2000;" horiz-adv-x="987" />
<glyph unicode="&#x2001;" horiz-adv-x="1975" />
<glyph unicode="&#x2002;" horiz-adv-x="987" />
<glyph unicode="&#x2003;" horiz-adv-x="1975" />
<glyph unicode="&#x2004;" horiz-adv-x="658" />
<glyph unicode="&#x2005;" horiz-adv-x="493" />
<glyph unicode="&#x2006;" horiz-adv-x="329" />
<glyph unicode="&#x2007;" horiz-adv-x="329" />
<glyph unicode="&#x2008;" horiz-adv-x="246" />
<glyph unicode="&#x2009;" horiz-adv-x="395" />
<glyph unicode="&#x200a;" horiz-adv-x="109" />
<glyph unicode="&#x2010;" horiz-adv-x="778" d="M92 457v170q0 41 35 41l526 2q14 0 23.5 -11.5t9.5 -27.5v-168q0 -29 -14.5 -41t-46.5 -12h-484q-29 0 -39 11t-10 36z" />
<glyph unicode="&#x2011;" horiz-adv-x="778" d="M92 457v170q0 41 35 41l526 2q14 0 23.5 -11.5t9.5 -27.5v-168q0 -29 -14.5 -41t-46.5 -12h-484q-29 0 -39 11t-10 36z" />
<glyph unicode="&#x2012;" horiz-adv-x="778" d="M92 457v170q0 41 35 41l526 2q14 0 23.5 -11.5t9.5 -27.5v-168q0 -29 -14.5 -41t-46.5 -12h-484q-29 0 -39 11t-10 36z" />
<glyph unicode="&#x2013;" horiz-adv-x="1216" d="M90 436v170q0 43 35 43h967q14 0 23 -10t9 -27v-170q0 -27 -14 -39t-45 -12h-926q-27 0 -38 10.5t-11 34.5z" />
<glyph unicode="&#x2014;" horiz-adv-x="1882" d="M90 436v170q0 43 35 43h1632q16 0 25.5 -10t9.5 -27v-170q0 -27 -14.5 -39t-46.5 -12h-1592q-27 0 -38 10.5t-11 34.5z" />
<glyph unicode="&#x2018;" horiz-adv-x="505" d="M74 913v242q0 8 6 27l196 301q12 18 34 27.5t42 9.5h33q16 0 23.5 -12.5t3.5 -28.5l-88 -205q-8 -25 -9 -33q0 -18 25 -22l35 -5q25 -4 34 -12t9 -31v-251q0 -39 -33 -39h-281q-31 0 -30 32z" />
<glyph unicode="&#x2019;" horiz-adv-x="505" d="M88 1229v252q0 39 33 39h280q31 0 31 -33v-242q0 -8 -6 -26l-197 -301q-12 -18 -33.5 -27.5t-41.5 -9.5h-33q-17 0 -24 12t-3 29l88 204q8 25 8 33q0 20 -24 23l-35 4q-25 4 -34 12t-9 31z" />
<glyph unicode="&#x201a;" horiz-adv-x="505" d="M88 43v252q0 39 33 39h280q31 0 31 -33v-242q0 -8 -6 -26l-197 -301q-12 -18 -33.5 -27.5t-41.5 -9.5h-33q-17 0 -24 13t-3 28l88 205q8 25 8 32q0 18 -24 23l-35 4q-25 4 -34 12t-9 31z" />
<glyph unicode="&#x201c;" horiz-adv-x="999" d="M74 913v242q0 14 8 27l194 299q12 18 33 28.5t43 10.5h33q16 0 23.5 -13.5t3.5 -27.5l-88 -207q-6 -18 -7 -31q0 -18 25 -24l33 -3q25 -4 35 -13t10 -30v-251q0 -39 -35 -39h-281q-30 -1 -30 32zM567 913v242q0 8 6 27l197 299q12 18 32.5 28.5t43.5 10.5h33 q16 0 23 -13.5t3 -27.5l-88 -207q-8 -25 -8 -31q0 -18 25 -24l34 -3q25 -2 34 -11t9 -32v-251q0 -39 -32 -39h-281q-31 -1 -31 32z" />
<glyph unicode="&#x201d;" horiz-adv-x="1007" d="M88 1229v252q0 39 33 39h280q31 0 31 -33v-242q0 -8 -6 -26l-197 -301q-12 -18 -33.5 -27.5t-41.5 -9.5h-33q-17 0 -24 12t-3 29l88 204q8 25 8 33q0 20 -24 23l-35 4q-25 4 -34 12t-9 31zM580 1229v252q0 39 34 39h281q31 0 31 -33v-242q0 -14 -8 -26l-195 -301 q-12 -18 -33.5 -27.5t-42.5 -9.5h-33q-16 0 -23 12t-3 29l88 204q6 18 6 31q0 23 -25 25l-32 4q-25 4 -35 12t-10 31z" />
<glyph unicode="&#x201e;" horiz-adv-x="1007" d="M88 43v252q0 39 33 39h280q31 0 31 -33v-242q0 -8 -6 -26l-197 -301q-12 -18 -33.5 -27.5t-41.5 -9.5h-33q-17 0 -24 13t-3 28l88 205q8 25 8 32q0 18 -24 23l-35 4q-25 4 -34 12t-9 31zM582 43v252q0 39 33 39h280q31 0 31 -33v-242q0 -8 -6 -26l-197 -301 q-12 -18 -33.5 -27.5t-41.5 -9.5h-33q-17 0 -24 13t-3 28l88 205q8 25 8 32q0 18 -24 23l-35 4q-25 4 -34 12t-9 31z" />
<glyph unicode="&#x2022;" horiz-adv-x="712" d="M59 772q0 80 39 147.5t106.5 106.5t147.5 39t147.5 -39t106.5 -106.5t39 -147.5t-39 -147.5t-106.5 -106.5t-147.5 -39t-147.5 39t-106.5 106.5t-39 147.5z" />
<glyph unicode="&#x2026;" horiz-adv-x="1914" d="M74 47v289q0 41 35 41h319q35 0 35 -37v-285q0 -31 -14.5 -43t-49.5 -12h-274q-29 0 -40 11.5t-11 35.5zM758 47v289q0 41 35 41h319q35 0 35 -37v-285q0 -31 -14.5 -43t-49.5 -12h-274q-29 0 -40 11.5t-11 35.5zM1440 47v289q0 41 35 41h319q35 0 35 -37v-285 q0 -31 -14.5 -43t-49.5 -12h-274q-29 0 -40 11.5t-11 35.5z" />
<glyph unicode="&#x202f;" horiz-adv-x="395" />
<glyph unicode="&#x2039;" horiz-adv-x="610" d="M98 526q0 18 11 39l204 359q8 12 13.5 16t17.5 4h137q14 0 21.5 -8t1.5 -23l-133 -362q-4 -16 -4 -25q0 -8 4 -24l135 -350q2 -2 2 -9q0 -16 -33 -16h-131q-25 0 -31 20l-202 338q-12 23 -13 41z" />
<glyph unicode="&#x203a;" horiz-adv-x="610" d="M104 152l136 350q4 8 4 24t-4 25l-134 362q-2 4 -2 11q0 20 25 20h137q12 0 17.5 -4t13.5 -16l205 -359q10 -20 10 -39q0 -18 -12 -41l-203 -338q-6 -20 -31 -20h-131q-39 0 -31 25z" />
<glyph unicode="&#x205f;" horiz-adv-x="493" />
<glyph unicode="&#x20ac;" horiz-adv-x="1372" d="M-4 539v100q0 43 35 43h129q-4 61 -4 94q0 41 2 62h-115q-27 0 -37 11t-10 36v100q0 41 35 41h153q61 240 229.5 377t403.5 137q152 0 280 -57.5t210 -159.5q6 -8 6 -14q0 -12 -21 -29l-176 -129q-20 -14 -43 -14q-14 0 -20 8q-47 53 -92.5 81.5t-108.5 28.5 q-188 0 -250 -229h281q35 0 35 -37v-100q0 -27 -14.5 -39t-47.5 -12h-278q-2 -23 -3 -68q0 -59 3 -88h305q35 0 35 -37v-100q0 -27 -14.5 -39t-47.5 -12h-244q35 -109 100.5 -161t151.5 -52q66 0 131.5 35.5t106.5 82.5q14 18 26 19q8 0 19 -10l143 -150q4 -4 12.5 -14.5 t9.5 -17.5t-3 -13q-86 -104 -215 -168.5t-279 -64.5q-223 0 -389 138t-233 374h-150q-27 0 -37 11t-10 36z" />
<glyph unicode="&#x2122;" horiz-adv-x="2117" d="M39 1356v137q0 12 8 19.5t21 7.5h751q14 0 21.5 -7.5t7.5 -19.5v-137q0 -20 -27 -21h-231q-14 0 -15 -12v-727q0 -27 -24 -27h-215q-20 0 -21 25v723q0 18 -12 18h-235q-29 0 -29 21zM965 602v891q0 27 24 27h314q14 0 21 -5.5t11 -17.5l162 -469q10 -18 19 0l149 459 q10 33 33 33h323q20 0 21 -25v-893q0 -18 -8.5 -25.5t-28.5 -7.5h-190q-18 0 -24.5 6.5t-6.5 22.5v604q0 10 -5 10t-10 -10l-200 -610q-10 -23 -31 -23h-121q-20 0 -31 23l-200 600q-4 12 -9.5 12t-5.5 -12v-596q0 -16 -5 -21.5t-21 -5.5h-150q-30 0 -30 33z" />
<glyph unicode="&#x25fc;" horiz-adv-x="1085" d="M0 0v1085h1085v-1085h-1085z" />
</font>
</defs>
</svg>
